<svg xmlns="http://www.w3.org/2000/svg" viewBox="0 0 48.27 48.27"><defs><style>.cls-1,.cls-4,.cls-5{fill:#4ca7e5;}.cls-1{opacity:0.1;}.cls-2,.cls-3{fill:none;stroke:#4ca7e5;stroke-miterlimit:10;stroke-width:2px;}.cls-2{opacity:0;}.cls-3{stroke-linecap:round;opacity:0.6;}.cls-5{opacity:0.5;}</style></defs><title>1</title><g id="Layer_2" data-name="Layer 2"><g id="Layer_2-2" data-name="Layer 2"><rect class="cls-1" x="7.76" y="7.76" width="32.75" height="32.75" rx="1"/><rect class="cls-2" x="7.76" y="7.76" width="32.75" height="32.75" rx="1"/><line class="cls-3" x1="29.6" y1="40.51" x2="29.6" y2="47.27"/><line class="cls-3" x1="18.68" y1="40.51" x2="18.68" y2="47.27"/><line class="cls-3" x1="29.6" y1="1" x2="29.6" y2="7.76"/><line class="cls-3" x1="18.68" y1="1" x2="18.68" y2="7.76"/><line class="cls-3" x1="7.76" y1="29.6" x2="1" y2="29.6"/><line class="cls-3" x1="7.76" y1="18.68" x2="1" y2="18.68"/><line class="cls-3" x1="47.27" y1="29.6" x2="40.51" y2="29.6"/><line class="cls-3" x1="47.27" y1="18.68" x2="40.51" y2="18.68"/><path class="cls-4" d="M30.26,17.3a2.39,2.39,0,0,0-4.78,0,2.36,2.36,0,0,0,.22,1,0,0,0,0,1,0,0l-2.06,1.73a.62.62,0,0,0-.23.49v8.18l-.88.47A2.39,2.39,0,1,0,23.33,31a2.14,2.14,0,0,0-.11-.67l1.15-.62a.64.64,0,0,0,.34-.57V20.85l1.83-1.53a1.19,1.19,0,0,0,.26.11,2.38,2.38,0,0,0,3.46-2.13ZM20.94,31.71a.74.74,0,1,1,.74-.74A.74.74,0,0,1,20.94,31.71Zm6.93-15.15a.74.74,0,1,1-.74.74A.74.74,0,0,1,27.87,16.56Z"/><path class="cls-5" d="M18,26.72a.57.57,0,0,0-.57.57.57.57,0,1,0,1.14,0A.57.57,0,0,0,18,26.72Z"/><path class="cls-5" d="M30.28,21.71a.57.57,0,1,0,.57.57A.57.57,0,0,0,30.28,21.71Z"/><path class="cls-5" d="M18.6,23a.57.57,0,1,0-.57-.57A.56.56,0,0,0,18.6,23Z"/><path class="cls-5" d="M29.68,26.22a.57.57,0,1,0,0,1.13.57.57,0,1,0,0-1.13Z"/></g></g></svg>