<svg xmlns="http://www.w3.org/2000/svg" viewBox="0 0 50.98 45.06"><defs><style>.cls-1{opacity:0.1;}.cls-2{fill:#956f5c;}.cls-2,.cls-4,.cls-6{fill-rule:evenodd;}.cls-3{opacity:0;}.cls-4,.cls-6{fill:none;stroke:#956f5c;stroke-miterlimit:10;}.cls-4{stroke-width:2px;}.cls-5{opacity:0.6;}</style></defs><title>1</title><g id="Layer_2" data-name="Layer 2"><g id="Layer_2-2" data-name="Layer 2"><g id="Settings" class="cls-1"><path class="cls-2" d="M45,21.11a1.35,1.35,0,0,0-1.33-1,4.56,4.56,0,0,1-3.12-7.94,1.15,1.15,0,0,0,.12-1.56,20.42,20.42,0,0,0-3.27-3.3,1.15,1.15,0,0,0-1.57.12,4.75,4.75,0,0,1-5.15,1.16,4.58,4.58,0,0,1-2.79-4.48,1.15,1.15,0,0,0-1-1.21,20.57,20.57,0,0,0-4.64,0,1.15,1.15,0,0,0-1,1.18,4.59,4.59,0,0,1-2.82,4.41,4.79,4.79,0,0,1-5.12-1.17,1.16,1.16,0,0,0-1.56-.13,20.51,20.51,0,0,0-3.34,3.31A1.16,1.16,0,0,0,8.45,12a4.56,4.56,0,0,1,1.16,5.15A4.77,4.77,0,0,1,5.11,20a1.12,1.12,0,0,0-1.19,1,21.1,21.1,0,0,0,0,4.7,1.37,1.37,0,0,0,1.36,1,4.53,4.53,0,0,1,4.25,2.83,4.61,4.61,0,0,1-1.16,5.11,1.15,1.15,0,0,0-.12,1.56,20.77,20.77,0,0,0,3.26,3.3,1.16,1.16,0,0,0,1.58-.12,4.75,4.75,0,0,1,5.15-1.16A4.58,4.58,0,0,1,21,42.71a1.15,1.15,0,0,0,1,1.21,20.83,20.83,0,0,0,2.38.14,19,19,0,0,0,2.26-.13,1.15,1.15,0,0,0,1-1.18,4.59,4.59,0,0,1,2.82-4.41,4.78,4.78,0,0,1,5.12,1.17,1.16,1.16,0,0,0,1.56.13,20.5,20.5,0,0,0,3.34-3.31,1.15,1.15,0,0,0-.12-1.57,4.56,4.56,0,0,1-1.16-5.15,4.63,4.63,0,0,1,4.22-2.8h.26a1.15,1.15,0,0,0,1.21-1A21,21,0,0,0,45,21.11Z"/></g><g id="Settings-2" data-name="Settings" class="cls-3"><path class="cls-4" d="M45,21.11a1.35,1.35,0,0,0-1.33-1,4.56,4.56,0,0,1-3.12-7.94,1.15,1.15,0,0,0,.12-1.56,20.42,20.42,0,0,0-3.27-3.3,1.15,1.15,0,0,0-1.57.12,4.75,4.75,0,0,1-5.15,1.16,4.58,4.58,0,0,1-2.79-4.48,1.15,1.15,0,0,0-1-1.21,20.57,20.57,0,0,0-4.64,0,1.15,1.15,0,0,0-1,1.18,4.59,4.59,0,0,1-2.82,4.41,4.79,4.79,0,0,1-5.12-1.17,1.16,1.16,0,0,0-1.56-.13,20.51,20.51,0,0,0-3.34,3.31A1.16,1.16,0,0,0,8.45,12a4.56,4.56,0,0,1,1.16,5.15A4.77,4.77,0,0,1,5.11,20a1.12,1.12,0,0,0-1.19,1,21.1,21.1,0,0,0,0,4.7,1.37,1.37,0,0,0,1.36,1,4.53,4.53,0,0,1,4.25,2.83,4.61,4.61,0,0,1-1.16,5.11,1.15,1.15,0,0,0-.12,1.56,20.77,20.77,0,0,0,3.26,3.3,1.16,1.16,0,0,0,1.58-.12,4.75,4.75,0,0,1,5.15-1.16A4.58,4.58,0,0,1,21,42.71a1.15,1.15,0,0,0,1,1.21,20.83,20.83,0,0,0,2.38.14,19,19,0,0,0,2.26-.13,1.15,1.15,0,0,0,1-1.18,4.59,4.59,0,0,1,2.82-4.41,4.78,4.78,0,0,1,5.12,1.17,1.16,1.16,0,0,0,1.56.13,20.5,20.5,0,0,0,3.34-3.31,1.15,1.15,0,0,0-.12-1.57,4.56,4.56,0,0,1-1.16-5.15,4.63,4.63,0,0,1,4.22-2.8h.26a1.15,1.15,0,0,0,1.21-1A21,21,0,0,0,45,21.11Z"/></g><g id="Settings-3" data-name="Settings" class="cls-5"><path class="cls-6" d="M18.35,8.43a2.07,2.07,0,0,1-1.44-1.24,2.1,2.1,0,0,1,.53-2.35.54.54,0,0,0,.06-.72A9.44,9.44,0,0,0,16,2.6a.54.54,0,0,0-.73,0,2.18,2.18,0,0,1-2.37.54A2.13,2.13,0,0,1,11.6,1.12a.54.54,0,0,0-.47-.56A9.57,9.57,0,0,0,9,.56a.52.52,0,0,0-.47.54,2.13,2.13,0,0,1-1.3,2A2.22,2.22,0,0,1,4.86,2.6a.53.53,0,0,0-.72-.06A9.63,9.63,0,0,0,2.6,4.06a.54.54,0,0,0,0,.73,2.1,2.1,0,0,1,.54,2.37A2.21,2.21,0,0,1,1.11,8.45a.52.52,0,0,0-.55.47,9.75,9.75,0,0,0,0,2.16.63.63,0,0,0,.62.47,2.11,2.11,0,0,1,1.43,3.66.54.54,0,0,0-.06.72,9.93,9.93,0,0,0,1.51,1.53.54.54,0,0,0,.73-.06,2.19,2.19,0,0,1,2.37-.54,2.13,2.13,0,0,1,1.29,1.9"/></g><g id="Settings-4" data-name="Settings" class="cls-5"><path class="cls-6" d="M50.46,32.67a.2.2,0,0,0-.2-.16.7.7,0,0,1-.48-1.22.2.2,0,0,0,0-.25,3.08,3.08,0,0,0-.51-.51.17.17,0,0,0-.24,0,.75.75,0,0,1-.8.18.69.69,0,0,1-.43-.69.19.19,0,0,0-.16-.19,2.89,2.89,0,0,0-.72,0,.18.18,0,0,0-.16.18.7.7,0,0,1-.43.68.74.74,0,0,1-.8-.18.19.19,0,0,0-.24,0,3.51,3.51,0,0,0-.51.51.19.19,0,0,0,0,.25.7.7,0,0,1,.17.8.74.74,0,0,1-.69.43.18.18,0,0,0-.19.15,4.45,4.45,0,0,0,0,.73.22.22,0,0,0,.21.16A.69.69,0,0,1,45,34a.71.71,0,0,1-.18.79.17.17,0,0,0,0,.24,3.08,3.08,0,0,0,.51.51.17.17,0,0,0,.24,0,.74.74,0,0,1,.8-.18.71.71,0,0,1,.43.69.17.17,0,0,0,.16.19l.37,0a2.11,2.11,0,0,0,.35,0,.17.17,0,0,0,.15-.18.71.71,0,0,1,.44-.68.73.73,0,0,1,.79.18.17.17,0,0,0,.24,0,2.79,2.79,0,0,0,.52-.51.19.19,0,0,0,0-.25.71.71,0,0,1-.18-.79.72.72,0,0,1,.66-.44h0a.17.17,0,0,0,.18-.15A3,3,0,0,0,50.46,32.67Z"/></g><path class="cls-2" d="M29.94,15.9h-11a2,2,0,0,0-2,2v11a2,2,0,0,0,2,2h11a2,2,0,0,0,2-2v-11A2,2,0,0,0,29.94,15.9Zm-10,13a1,1,0,1,1,1-1A1,1,0,0,1,19.94,28.9Zm0-9a1,1,0,1,1,1-1A1,1,0,0,1,19.94,19.9Zm9,9a1,1,0,1,1,1-1A1,1,0,0,1,28.94,28.9Zm0-9a1,1,0,1,1,1-1A1,1,0,0,1,28.94,19.9Z"/></g></g></svg>