<svg xmlns="http://www.w3.org/2000/svg" viewBox="0 0 48.08 52.19"><defs><style>.cls-1,.cls-2{fill:#84b012;}.cls-1{opacity:0.1;}.cls-2{opacity:0.6;}.cls-3,.cls-4{fill:none;stroke:#84b012;stroke-miterlimit:10;stroke-width:2px;}.cls-3{opacity:0;}</style></defs><title>1</title><g id="Layer_2" data-name="Layer 2"><g id="Layer_2-2" data-name="Layer 2"><path class="cls-1" d="M47.08,31.33c0,4.32-9.16,24.29-23,17.78C15.6,36.18,1.63,41.26,1,31.33,1,4.14,10.15,20.74,21.88,10.09,42-8.2,47.08,19.42,47.08,31.33Z"/><path class="cls-2" d="M20.25,5.73C16.11,9.51,8.66,12.84,8.5,6c.25-2.53,3.87-1.4,6.57-2.83,4.49-2.11,7.1-5.28,7.69-1.09C22.7,3.62,21.49,4.55,20.25,5.73Z"/><path class="cls-2" d="M6,43.57c2.64,1,5.19,1.36,7.82,3.67,2,1.75,2.43,4.41-.18,4.87A4.38,4.38,0,0,1,11.66,52a2.31,2.31,0,0,1-.65-.32c-2.38-1.63-9.35-4.52-9-6.54a2.66,2.66,0,0,1,.23-.67l0,0C3,43.12,4.55,43,6,43.57Z"/><path class="cls-3" d="M47.08,31.33c0,4.32-9.16,24.29-23,17.78C15.6,36.18,1.63,41.26,1,31.33,1,4.14,10.15,20.74,21.88,10.09,42-8.2,47.08,19.42,47.08,31.33Z"/><path class="cls-4" d="M26.16,32.51a1.08,1.08,0,0,0,1-.55l2.35-4.13a1.12,1.12,0,0,0,0-1l-2.2-4.21a1.07,1.07,0,0,0-.95-.59l-4.43-.08a1.08,1.08,0,0,0-1,.55L18.6,26.58a1.09,1.09,0,0,0,0,1.05l2.19,4.21a1.09,1.09,0,0,0,.95.59Z"/></g></g></svg>