<svg xmlns="http://www.w3.org/2000/svg" viewBox="0 0 44.92 46.29"><defs><style>.cls-1,.cls-4{fill:#da6bf5;}.cls-1{opacity:0.1;}.cls-2,.cls-3{fill:none;stroke:#da6bf5;stroke-miterlimit:10;}.cls-2{stroke-width:2px;opacity:0;}.cls-3{stroke-linecap:round;opacity:0.5;}</style></defs><title>1</title><g id="Layer_2" data-name="Layer 2"><g id="Layer_2-2" data-name="Layer 2"><path class="cls-1" d="M21.21,1.72,1.2,36.39a1.44,1.44,0,0,0,1.25,2.16h40a1.44,1.44,0,0,0,1.25-2.16l-20-34.67A1.45,1.45,0,0,0,21.21,1.72Z"/><path class="cls-2" d="M21.21,1.72,1.2,36.39a1.44,1.44,0,0,0,1.25,2.16h40a1.44,1.44,0,0,0,1.25-2.16l-20-34.67A1.45,1.45,0,0,0,21.21,1.72Z"/><path class="cls-3" d="M13.26,15.49H7.82A2.47,2.47,0,0,0,5.68,19.2L20.32,44.55a2.47,2.47,0,0,0,4.28,0L39.24,19.2a2.47,2.47,0,0,0-2.14-3.71H31.66"/><path class="cls-4" d="M28.92,25.16a.35.35,0,0,0-.14-.06.45.45,0,0,0-.53.36A6.23,6.23,0,0,1,16.68,27.2a.45.45,0,0,0-.8.43,7.13,7.13,0,0,0,13.25-2A.44.44,0,0,0,28.92,25.16Z"/><polygon class="cls-4" points="28.94 24.02 27.39 25.75 29.8 26.21 28.94 24.02"/><path class="cls-4" d="M29.08,24,30,26.16a.14.14,0,0,1,0,.15.15.15,0,0,1-.14.05l-2.42-.46a.17.17,0,0,1-.12-.1.17.17,0,0,1,0-.15l1.55-1.73a.17.17,0,0,1,.14-.05l.05,0A.16.16,0,0,1,29.08,24Zm.48,2-.67-1.71-1.21,1.35Z"/><path class="cls-4" d="M25.65,16.48A7.13,7.13,0,0,0,15,21.21a.45.45,0,1,0,.89.17A6.23,6.23,0,0,1,27.5,19.64a.45.45,0,0,0,.61.19.46.46,0,0,0,.18-.62A7.07,7.07,0,0,0,25.65,16.48Z"/><polygon class="cls-4" points="15.24 22.82 16.79 21.09 14.37 20.63 15.24 22.82"/><path class="cls-4" d="M16.93,21a.14.14,0,0,1,0,.15l-1.55,1.73a.16.16,0,0,1-.14,0,.17.17,0,0,1-.11-.09l-.87-2.2a.14.14,0,0,1,0-.15.15.15,0,0,1,.14-.05l2.42.46.05,0A.16.16,0,0,1,16.93,21Zm-1.64,1.5,1.21-1.35-1.89-.36Z"/><path class="cls-4" d="M22.09,17.83A10.64,10.64,0,0,1,21,20.52c-.8,1.46-2.17,3.14-2.17,4a3.22,3.22,0,0,0,6.44,0C25.31,22.77,22.09,17.83,22.09,17.83Zm1.05,8.34A1.55,1.55,0,0,1,21,25.65c-.45-.74.94-.5,1.68-.94s.54-1.41,1-.67A1.55,1.55,0,0,1,23.14,26.17Z"/></g></g></svg>