<svg xmlns="http://www.w3.org/2000/svg" viewBox="0 0 48.27 48.27"><defs><style>.cls-1,.cls-4{fill:#4ca7e5;}.cls-1{opacity:0.1;}.cls-2,.cls-3,.cls-5{fill:none;stroke:#4ca7e5;stroke-miterlimit:10;}.cls-2,.cls-3{stroke-width:2px;}.cls-2{opacity:0.2;}.cls-3{stroke-linecap:round;opacity:0.6;}.cls-5{opacity:0.5;}</style></defs><title>2</title><g id="Layer_2" data-name="Layer 2"><g id="Layer_2-2" data-name="Layer 2"><rect class="cls-1" x="7.76" y="7.76" width="32.75" height="32.75" rx="1"/><rect class="cls-2" x="7.76" y="7.76" width="32.75" height="32.75" rx="1"/><line class="cls-3" x1="29.6" y1="40.51" x2="29.6" y2="47.27"/><line class="cls-3" x1="18.68" y1="40.51" x2="18.68" y2="47.27"/><line class="cls-3" x1="29.6" y1="1" x2="29.6" y2="7.76"/><line class="cls-3" x1="18.68" y1="1" x2="18.68" y2="7.76"/><line class="cls-3" x1="7.76" y1="29.6" x2="1" y2="29.6"/><line class="cls-3" x1="7.76" y1="18.68" x2="1" y2="18.68"/><line class="cls-3" x1="47.27" y1="29.6" x2="40.51" y2="29.6"/><line class="cls-3" x1="47.27" y1="18.68" x2="40.51" y2="18.68"/><rect class="cls-4" x="16.14" y="12.96" width="16" height="4" rx="2"/><rect class="cls-4" x="26.82" y="23.95" width="3" height="3"/><rect class="cls-4" x="18.45" y="23.95" width="3" height="3"/><rect class="cls-4" x="27.82" y="16.98" width="1" height="7"/><rect class="cls-5" x="14.96" y="21.58" width="18.36" height="7.73"/><rect class="cls-4" x="19.45" y="16.98" width="1" height="7"/></g></g></svg>