<svg xmlns="http://www.w3.org/2000/svg" viewBox="0 0 48.08 52.19"><defs><style>.cls-1,.cls-2,.cls-4{fill:#84b012;}.cls-1{opacity:0.1;}.cls-2{opacity:0.6;}.cls-3{fill:none;stroke:#84b012;stroke-miterlimit:10;stroke-width:2px;opacity:0.2;}</style></defs><title>2</title><g id="Layer_2" data-name="Layer 2"><g id="Layer_2-2" data-name="Layer 2"><path class="cls-1" d="M47.08,31.33c0,4.32-9.16,24.29-23,17.78C15.6,36.18,1.63,41.26,1,31.33,1,4.14,10.15,20.74,21.88,10.09,42-8.2,47.08,19.42,47.08,31.33Z"/><path class="cls-2" d="M20.25,5.73C16.11,9.51,8.66,12.84,8.5,6c.25-2.53,3.87-1.4,6.57-2.83,4.49-2.11,7.1-5.28,7.69-1.09C22.7,3.62,21.49,4.55,20.25,5.73Z"/><path class="cls-2" d="M6,43.57c2.64,1,5.19,1.36,7.82,3.67,2,1.75,2.43,4.41-.18,4.87A4.38,4.38,0,0,1,11.66,52a2.31,2.31,0,0,1-.65-.32c-2.38-1.63-9.35-4.52-9-6.54a2.66,2.66,0,0,1,.23-.67l0,0C3,43.12,4.55,43,6,43.57Z"/><path class="cls-3" d="M47.08,31.33c0,4.32-9.16,24.29-23,17.78C15.6,36.18,1.63,41.26,1,31.33,1,4.14,10.15,20.74,21.88,10.09,42-8.2,47.08,19.42,47.08,31.33Z"/><path class="cls-4" d="M23.19,30.7a4.42,4.42,0,0,1,3.33.22c1.52,1.64-2.69,4.33,1.62,5.43a4.38,4.38,0,0,0,1.24.23A3,3,0,0,0,32.32,33a2,2,0,0,0-.31-.8c-.21-.3-.44-.6-.65-.88s-.43-.54-.61-.79c-1.89-3,3-7.61-3-10a4,4,0,0,0-1-.34,3,3,0,0,0-3.29,1.9,6.3,6.3,0,0,1-.69,0,2.14,2.14,0,0,1-1.52-.65A3.35,3.35,0,0,0,18,20.52a2.16,2.16,0,0,0-.88.41,3.22,3.22,0,0,0,.67,5.66,2.64,2.64,0,0,0,.44.12,4.4,4.4,0,0,0,1,2.46,2.19,2.19,0,0,0-.3.54,2.29,2.29,0,0,0,.68,2.57,2,2,0,0,0,1.31.45,2.71,2.71,0,0,0,1.37-.39A2.47,2.47,0,0,0,23.19,30.7Z"/></g></g></svg>