<svg xmlns="http://www.w3.org/2000/svg" viewBox="0 0 44.92 46.29"><defs><style>.cls-1,.cls-4{fill:#da6bf5;}.cls-1{opacity:0.1;}.cls-2,.cls-3{fill:none;stroke:#da6bf5;stroke-miterlimit:10;}.cls-2{stroke-width:2px;opacity:0.2;}.cls-3{stroke-linecap:round;opacity:0.5;}</style></defs><title>2</title><g id="Layer_2" data-name="Layer 2"><g id="Layer_2-2" data-name="Layer 2"><path class="cls-1" d="M21.21,1.72,1.2,36.39a1.44,1.44,0,0,0,1.25,2.16h40a1.44,1.44,0,0,0,1.25-2.16l-20-34.67A1.45,1.45,0,0,0,21.21,1.72Z"/><path class="cls-2" d="M21.21,1.72,1.2,36.39a1.44,1.44,0,0,0,1.25,2.16h40a1.44,1.44,0,0,0,1.25-2.16l-20-34.67A1.45,1.45,0,0,0,21.21,1.72Z"/><path class="cls-3" d="M13.26,15.49H7.82A2.47,2.47,0,0,0,5.68,19.2L20.32,44.55a2.47,2.47,0,0,0,4.28,0L39.24,19.2a2.47,2.47,0,0,0-2.14-3.71H31.66"/><path class="cls-4" d="M18.63,29.71H15.85l-1.73-2.18.61-2.7,2.51-1.21,2.5,1.21.62,2.7Zm-2.37-.86h1.95l1.22-1.53L19,25.42l-1.76-.85-1.76.85L15,27.32Z"/><path class="cls-4" d="M22.53,14.58s-4,6.18-4.87,9.47c0,.16,1.22.73,1.22.73l.83,2.61,2.63.14,1.58,1.89s0,.52.08.48a5,5,0,0,0,3.56-4.81c0-1.44-2.06-4.06-3.36-6.4A17.9,17.9,0,0,1,22.53,14.58Z"/><path class="cls-4" d="M21.08,33.09l-2.51-1.21L18,29.17,19.69,27h2.78l1.73,2.17-.62,2.71Zm-1.76-1.8,1.76.85,1.76-.85.43-1.9-1.22-1.53H20.1l-1.22,1.53Z"/><circle class="cls-4" cx="17.24" cy="26.71" r="0.62"/><circle class="cls-4" cx="21.08" cy="29.78" r="0.62"/></g></g></svg>