<svg xmlns="http://www.w3.org/2000/svg" viewBox="0 0 48.27 48.27"><defs><style>.cls-1,.cls-4,.cls-5{fill:#4ca7e5;}.cls-1{opacity:0.1;}.cls-2,.cls-3{fill:none;stroke:#4ca7e5;stroke-miterlimit:10;stroke-width:2px;}.cls-2{opacity:0.4;}.cls-3{stroke-linecap:round;}.cls-3,.cls-5{opacity:0.6;}</style></defs><title>3</title><g id="Layer_2" data-name="Layer 2"><g id="Layer_2-2" data-name="Layer 2"><rect class="cls-1" x="7.76" y="7.76" width="32.75" height="32.75" rx="1"/><rect class="cls-2" x="7.76" y="7.76" width="32.75" height="32.75" rx="1"/><line class="cls-3" x1="29.6" y1="40.51" x2="29.6" y2="47.27"/><line class="cls-3" x1="18.68" y1="40.51" x2="18.68" y2="47.27"/><line class="cls-3" x1="29.6" y1="1" x2="29.6" y2="7.76"/><line class="cls-3" x1="18.68" y1="1" x2="18.68" y2="7.76"/><line class="cls-3" x1="7.76" y1="29.6" x2="1" y2="29.6"/><line class="cls-3" x1="7.76" y1="18.68" x2="1" y2="18.68"/><line class="cls-3" x1="47.27" y1="29.6" x2="40.51" y2="29.6"/><line class="cls-3" x1="47.27" y1="18.68" x2="40.51" y2="18.68"/><path class="cls-4" d="M29.44,16.49H18.31a.73.73,0,0,0-.72.58l-.08,6.12-1.61,2.9a.73.73,0,0,0,.71.88H31.14a.73.73,0,0,0,.71-.88l-1.61-2.9-.08-6.12A.73.73,0,0,0,29.44,16.49Zm-5.56,5.35a1.62,1.62,0,1,1,1.61-1.62A1.61,1.61,0,0,1,23.88,21.84Z"/><rect class="cls-5" x="27.53" y="26.97" width="1" height="5.83"/><rect class="cls-5" x="23.38" y="26.97" width="1" height="5.83"/><rect class="cls-5" x="19.22" y="26.97" width="1" height="5.83"/></g></g></svg>