<svg xmlns="http://www.w3.org/2000/svg" viewBox="0 0 48.08 52.19"><defs><style>.cls-1,.cls-2,.cls-4{fill:#84b012;}.cls-1{opacity:0.1;}.cls-2{opacity:0.6;}.cls-3{fill:none;stroke:#84b012;stroke-miterlimit:10;stroke-width:2px;opacity:0.4;}</style></defs><title>3</title><g id="Layer_2" data-name="Layer 2"><g id="Layer_2-2" data-name="Layer 2"><path class="cls-1" d="M47.08,31.33c0,4.32-9.16,24.29-23,17.78C15.6,36.18,1.63,41.26,1,31.33,1,4.14,10.15,20.74,21.88,10.09,42-8.2,47.08,19.42,47.08,31.33Z"/><path class="cls-2" d="M20.25,5.73C16.11,9.51,8.66,12.84,8.5,6c.25-2.53,3.87-1.4,6.57-2.83,4.49-2.11,7.1-5.28,7.69-1.09C22.7,3.62,21.49,4.55,20.25,5.73Z"/><path class="cls-2" d="M6,43.57c2.64,1,5.19,1.36,7.82,3.67,2,1.75,2.43,4.41-.18,4.87A4.38,4.38,0,0,1,11.66,52a2.31,2.31,0,0,1-.65-.32c-2.38-1.63-9.35-4.52-9-6.54a2.66,2.66,0,0,1,.23-.67l0,0C3,43.12,4.55,43,6,43.57Z"/><path class="cls-3" d="M47.08,31.33c0,4.32-9.16,24.29-23,17.78C15.6,36.18,1.63,41.26,1,31.33,1,4.14,10.15,20.74,21.88,10.09,42-8.2,47.08,19.42,47.08,31.33Z"/><path class="cls-4" d="M35.18,24.5a1.31,1.31,0,0,0-2.61,0,1.27,1.27,0,0,0,.35.89l-.55.92a1.24,1.24,0,0,0-.27,0,1.3,1.3,0,0,0-1.19.76H29.62a1.36,1.36,0,0,0-1.08-.76l-.56-1a1.3,1.3,0,0,0,.29-.82,1.28,1.28,0,0,0-.27-.79l.58-1h0a1.31,1.31,0,1,0,0-2.61,1.3,1.3,0,0,0-1.06,2.05l-.59,1h0a1.31,1.31,0,0,0-1.19.77H24.32a1.3,1.3,0,0,0-1.19-.78l-.57-1a1.33,1.33,0,0,0,.36-.91,1.28,1.28,0,0,0-.27-.79l.54-.93a1.31,1.31,0,0,0,1.24-1.31,1.31,1.31,0,0,0-2.61,0,1.26,1.26,0,0,0,.32.85l-.52.88h0a1.31,1.31,0,0,0-1.22.83H18.9a1.31,1.31,0,1,0-1.16,1.91,1.28,1.28,0,0,0,1.15-.7h1.65a1.31,1.31,0,0,0,.9.56l.65,1.11a1.28,1.28,0,0,0-.27.79,1.26,1.26,0,0,0,.3.83l-.57,1a1.31,1.31,0,0,0-1.12.77h-1.5a1.31,1.31,0,0,0-2.5.53,1.36,1.36,0,0,0,.3.84l-.57,1a1.3,1.3,0,1,0,1.06.48l.57-1a1.32,1.32,0,0,0,1.07-.64H20.5a1.29,1.29,0,0,0,1,.63l.61,1.05a1.33,1.33,0,0,0-.26.78,1.3,1.3,0,0,0,.32.86l-.61,1a1.31,1.31,0,1,0,1.39,1.3,1.28,1.28,0,0,0-.34-.87l.32-.56h0l.28-.47a1.31,1.31,0,0,0,1.11-.71h1.52a1.3,1.3,0,0,0,1.11.71l.57,1a1.31,1.31,0,1,0,1.07-.39L28,31.56a1.29,1.29,0,0,0,.31-.84,1.34,1.34,0,0,0-.26-.79l.61-1.05a1.3,1.3,0,0,0,.93-.63H31a1.27,1.27,0,0,0,1.12.64,1.3,1.3,0,0,0,1.3-1.3,1.41,1.41,0,0,0-.11-.54L34,25.81A1.32,1.32,0,0,0,35.18,24.5Z"/></g></g></svg>