<svg xmlns="http://www.w3.org/2000/svg" viewBox="0 0 44.92 46.29"><defs><style>.cls-1,.cls-4{fill:#da6bf5;}.cls-1{opacity:0.1;}.cls-2,.cls-3{fill:none;stroke:#da6bf5;stroke-miterlimit:10;}.cls-2{stroke-width:2px;opacity:0.4;}.cls-3{stroke-linecap:round;opacity:0.5;}.cls-4{fill-rule:evenodd;}</style></defs><title>3</title><g id="Layer_2" data-name="Layer 2"><g id="Layer_2-2" data-name="Layer 2"><path class="cls-1" d="M21.21,1.72,1.2,36.39a1.44,1.44,0,0,0,1.25,2.16h40a1.44,1.44,0,0,0,1.25-2.16l-20-34.67A1.45,1.45,0,0,0,21.21,1.72Z"/><path class="cls-2" d="M21.21,1.72,1.2,36.39a1.44,1.44,0,0,0,1.25,2.16h40a1.44,1.44,0,0,0,1.25-2.16l-20-34.67A1.45,1.45,0,0,0,21.21,1.72Z"/><path class="cls-3" d="M13.26,15.49H7.82A2.47,2.47,0,0,0,5.68,19.2L20.32,44.55a2.47,2.47,0,0,0,4.28,0L39.24,19.2a2.47,2.47,0,0,0-2.14-3.71H31.66"/><path class="cls-4" d="M21.28,15.59a.78.78,0,0,1-.71,1.07c-.39,0-1-.12-.71-1.07.16-.57.32-1.07.71-1.07S21,15.06,21.28,15.59Z"/><path class="cls-4" d="M18.44,19.47a.43.43,0,0,1-.39.59c-.22,0-.54-.06-.4-.59.09-.32.18-.59.4-.59S18.3,19.18,18.44,19.47Z"/><path class="cls-4" d="M27.69,19.37c.09-.35.55,1.15.58,1.36s0,.55-.53.48c-.32,0-.61-.09-.64-.3A13.78,13.78,0,0,1,27.69,19.37Z"/><path class="cls-4" d="M24.56,19.58c0,.66.2,1.3-1.18,1.2-.66,0-1.67-.53-1.21-1.18s.85-1,1.26-1.54S24.55,18.92,24.56,19.58Z"/><path class="cls-4" d="M14,21.19l1.44,3.47C15.63,26,17.55,27,18.63,27h.53a1.71,1.71,0,0,1,1.61,1.14h0a1.7,1.7,0,0,0,3.19.05L24,28A1.7,1.7,0,0,1,25.59,27h.7c1.08,0,3-1,3.16-2.29l1.44-3.47-1.76,1.34a1.69,1.69,0,0,1-1,.35H16.82a1.69,1.69,0,0,1-1-.35Z"/></g></g></svg>