<svg xmlns="http://www.w3.org/2000/svg" viewBox="0 0 47.52 47.52"><defs><style>.cls-1,.cls-4,.cls-5{fill:#4ca7e5;}.cls-1{opacity:0.1;}.cls-2,.cls-3{fill:none;stroke:#4ca7e5;stroke-miterlimit:10;stroke-width:2px;opacity:0.6;}.cls-3{stroke-linecap:round;}.cls-5{opacity:0.5;}</style></defs><title>4</title><g id="Layer_2" data-name="Layer 2"><g id="Layer_2-2" data-name="Layer 2"><rect class="cls-1" x="7.76" y="7.76" width="32" height="32" rx="1"/><rect class="cls-2" x="7.76" y="7.76" width="32" height="32" rx="1"/><line class="cls-3" x1="29.22" y1="39.76" x2="29.22" y2="46.52"/><line class="cls-3" x1="18.3" y1="39.76" x2="18.3" y2="46.52"/><line class="cls-3" x1="29.22" y1="1" x2="29.22" y2="7.76"/><line class="cls-3" x1="18.3" y1="1" x2="18.3" y2="7.76"/><line class="cls-3" x1="7.76" y1="29.22" x2="1" y2="29.22"/><line class="cls-3" x1="7.76" y1="18.3" x2="1" y2="18.3"/><line class="cls-3" x1="46.52" y1="29.22" x2="39.76" y2="29.22"/><line class="cls-3" x1="46.52" y1="18.3" x2="39.76" y2="18.3"/><path class="cls-4" d="M30.26,19.72h-13a1,1,0,0,0-1,1v6a1,1,0,0,0,1,1h13a1,1,0,0,0,1-1v-6A1,1,0,0,0,30.26,19.72Zm-5.78,6a2.17,2.17,0,0,1-.82.16,2.24,2.24,0,0,1-2.08-1.42,2.21,2.21,0,0,1,0-1.71,2.26,2.26,0,0,1,1.23-1.18l.37.93a1.21,1.21,0,0,0-.68.65,1.24,1.24,0,0,0,1.58,1.65,1.27,1.27,0,0,0,.66-.61l.9.44A2.23,2.23,0,0,1,24.48,25.69Z"/><rect class="cls-5" x="20.17" y="16.77" width="1.24" height="13.98"/><rect class="cls-4" x="20.17" y="28.61" width="1.24" height="3.04" transform="translate(50.92 9.33) rotate(90)"/><rect class="cls-4" x="25.83" y="28.61" width="1.24" height="3.04" transform="translate(56.58 3.67) rotate(90)"/><rect class="cls-4" x="20.17" y="15.87" width="1.24" height="3.04" transform="translate(38.19 -3.4) rotate(90)"/><rect class="cls-4" x="25.83" y="15.87" width="1.24" height="3.04" transform="translate(43.85 -9.06) rotate(90)"/><rect class="cls-5" x="25.83" y="16.77" width="1.24" height="13.98"/></g></g></svg>