<svg xmlns="http://www.w3.org/2000/svg" viewBox="0 0 48.08 52.19"><defs><style>.cls-1,.cls-2,.cls-5{fill:#84b012;}.cls-1{opacity:0.1;}.cls-2,.cls-3{opacity:0.6;}.cls-3,.cls-4{fill:none;stroke:#84b012;stroke-miterlimit:10;}.cls-3{stroke-width:2px;}.cls-4{stroke-width:0.94px;}</style></defs><title>4</title><g id="Layer_2" data-name="Layer 2"><g id="Layer_2-2" data-name="Layer 2"><path class="cls-1" d="M47.08,31.33c0,4.32-9.16,24.29-23,17.78C15.6,36.18,1.63,41.26,1,31.33,1,4.14,10.15,20.74,21.88,10.09,42-8.2,47.08,19.42,47.08,31.33Z"/><path class="cls-2" d="M20.25,5.73C16.11,9.51,8.66,12.84,8.5,6c.25-2.53,3.87-1.4,6.57-2.83,4.49-2.11,7.1-5.28,7.69-1.09C22.7,3.62,21.49,4.55,20.25,5.73Z"/><path class="cls-2" d="M6,43.57c2.64,1,5.19,1.36,7.82,3.67,2,1.75,2.43,4.41-.18,4.87A4.38,4.38,0,0,1,11.66,52a2.31,2.31,0,0,1-.65-.32c-2.38-1.63-9.35-4.52-9-6.54a2.66,2.66,0,0,1,.23-.67l0,0C3,43.12,4.55,43,6,43.57Z"/><path class="cls-3" d="M47.08,31.33c0,4.32-9.16,24.29-23,17.78C15.6,36.18,1.63,41.26,1,31.33,1,4.14,10.15,20.74,21.88,10.09,42-8.2,47.08,19.42,47.08,31.33Z"/><path class="cls-4" d="M36.16,14.61,34.46,16s-6.66,1.48-11,5.42c-4.94,4.48-6.21,11.54-6.21,11.54L15.48,35"/><path class="cls-4" d="M37.68,16l-1.34,1.7a19.82,19.82,0,0,1-5,10.8C26.84,33.38,19.39,35,19.39,35l-2.07,1.77"/><path class="cls-4" d="M34.46,16a5.81,5.81,0,0,0,.6,1.12,6.69,6.69,0,0,0,1.28.67"/><path class="cls-4" d="M19.39,35a14.46,14.46,0,0,0-.91-1.21,11.51,11.51,0,0,0-1.23-.83"/><path class="cls-5" d="M19.18,32.08,33.89,17.74s-8,2.71-9.7,5.2A66.63,66.63,0,0,0,19.18,32.08Z"/><path class="cls-5" d="M34.46,18.57,19.75,32.91s7.18-2,9.83-5.2C31.6,25.29,34.46,18.57,34.46,18.57Z"/></g></g></svg>