<svg xmlns="http://www.w3.org/2000/svg" viewBox="0 0 44.92 46.29"><defs><style>.cls-1,.cls-4{fill:#da6bf5;}.cls-1{opacity:0.1;}.cls-2,.cls-3,.cls-5{fill:none;stroke:#da6bf5;stroke-miterlimit:10;}.cls-2{stroke-width:2px;opacity:0.6;}.cls-3{stroke-linecap:round;opacity:0.5;}.cls-5{stroke-width:0.94px;}</style></defs><title>4</title><g id="Layer_2" data-name="Layer 2"><g id="Layer_2-2" data-name="Layer 2"><path class="cls-1" d="M21.21,1.72,1.2,36.39a1.44,1.44,0,0,0,1.25,2.16h40a1.44,1.44,0,0,0,1.25-2.16l-20-34.67A1.45,1.45,0,0,0,21.21,1.72Z"/><path class="cls-2" d="M21.21,1.72,1.2,36.39a1.44,1.44,0,0,0,1.25,2.16h40a1.44,1.44,0,0,0,1.25-2.16l-20-34.67A1.45,1.45,0,0,0,21.21,1.72Z"/><path class="cls-3" d="M13.26,15.49H7.82A2.47,2.47,0,0,0,5.68,19.2L20.32,44.55a2.47,2.47,0,0,0,4.28,0L39.24,19.2a2.47,2.47,0,0,0-2.14-3.71H31.66"/><circle class="cls-4" cx="28.77" cy="23.93" r="1.41"/><circle class="cls-5" cx="22.52" cy="23.93" r="2.83"/><circle class="cls-4" cx="16.15" cy="23.93" r="1.41"/><circle class="cls-4" cx="27.83" cy="18.56" r="0.94"/><circle class="cls-4" cx="17.09" cy="18.56" r="0.94"/><circle class="cls-4" cx="27.83" cy="29.2" r="0.94"/><circle class="cls-4" cx="17.09" cy="30.14" r="0.94"/><circle class="cls-4" cx="21.07" cy="31.15" r="0.94"/><circle class="cls-4" cx="23.87" cy="17.13" r="0.94"/><circle class="cls-4" cx="24.82" cy="30.99" r="0.94"/><circle class="cls-4" cx="20.41" cy="15.25" r="0.94"/></g></g></svg>