<svg xmlns="http://www.w3.org/2000/svg" viewBox="0 0 48.27 48.27"><defs><style>.cls-1,.cls-5{fill:#4ca7e5;}.cls-1{opacity:0.1;}.cls-2,.cls-3,.cls-4,.cls-6{fill:none;}.cls-2,.cls-3,.cls-4,.cls-5,.cls-6{stroke:#4ca7e5;stroke-miterlimit:10;}.cls-2,.cls-3{stroke-width:2px;}.cls-2{opacity:0.8;}.cls-3{stroke-linecap:round;opacity:0.6;}.cls-5{stroke-width:0;}.cls-6{stroke-width:0.93px;}</style></defs><title>5</title><g id="Layer_2" data-name="Layer 2"><g id="Layer_2-2" data-name="Layer 2"><rect class="cls-1" x="7.76" y="7.76" width="32.75" height="32.75" rx="1"/><rect class="cls-2" x="7.76" y="7.76" width="32.75" height="32.75" rx="1"/><line class="cls-3" x1="29.6" y1="40.51" x2="29.6" y2="47.27"/><line class="cls-3" x1="18.68" y1="40.51" x2="18.68" y2="47.27"/><line class="cls-3" x1="29.6" y1="1" x2="29.6" y2="7.76"/><line class="cls-3" x1="18.68" y1="1" x2="18.68" y2="7.76"/><line class="cls-3" x1="7.76" y1="29.6" x2="1" y2="29.6"/><line class="cls-3" x1="7.76" y1="18.68" x2="1" y2="18.68"/><line class="cls-3" x1="47.27" y1="29.6" x2="40.51" y2="29.6"/><line class="cls-3" x1="47.27" y1="18.68" x2="40.51" y2="18.68"/><circle class="cls-4" cx="24.14" cy="24.14" r="10.46"/><polyline class="cls-4" points="20.13 27.14 22.17 27.14 22.17 13.83"/><circle class="cls-4" cx="18.63" cy="27.14" r="1.5"/><circle class="cls-5" cx="18.63" cy="21.51" r="1.5"/><line class="cls-4" x1="14.01" y1="21.51" x2="17.63" y2="21.51"/><polyline class="cls-4" points="28.15 21.14 26.11 21.14 26.11 34.44"/><circle class="cls-4" cx="29.65" cy="21.14" r="1.5"/><circle class="cls-5" cx="29.65" cy="26.76" r="1.5"/><line class="cls-4" x1="34.27" y1="26.76" x2="30.65" y2="26.76"/><line class="cls-6" x1="29.65" y1="37.03" x2="29.65" y2="33.03"/><line class="cls-6" x1="18.63" y1="37.03" x2="18.63" y2="33.03"/><line class="cls-6" x1="29.65" y1="15.24" x2="29.65" y2="11.24"/><line class="cls-6" x1="18.63" y1="15.24" x2="18.63" y2="11.24"/></g></g></svg>