<svg xmlns="http://www.w3.org/2000/svg" viewBox="0 0 48.08 52.19"><defs><style>.cls-1,.cls-2,.cls-4{fill:#84b012;}.cls-1{opacity:0.1;}.cls-2{opacity:0.6;}.cls-3{fill:none;stroke:#84b012;stroke-miterlimit:10;stroke-width:2px;opacity:0.8;}</style></defs><title>5</title><g id="Layer_2" data-name="Layer 2"><g id="Layer_2-2" data-name="Layer 2"><path class="cls-1" d="M47.08,31.33c0,4.32-9.16,24.29-23,17.78C15.6,36.18,1.63,41.26,1,31.33,1,4.14,10.15,20.74,21.88,10.09,42-8.2,47.08,19.42,47.08,31.33Z"/><path class="cls-2" d="M20.25,5.73C16.11,9.51,8.66,12.84,8.5,6c.25-2.53,3.87-1.4,6.57-2.83,4.49-2.11,7.1-5.28,7.69-1.09C22.7,3.62,21.49,4.55,20.25,5.73Z"/><path class="cls-2" d="M6,43.57c2.64,1,5.19,1.36,7.82,3.67,2,1.75,2.43,4.41-.18,4.87A4.38,4.38,0,0,1,11.66,52a2.31,2.31,0,0,1-.65-.32c-2.38-1.63-9.35-4.52-9-6.54a2.66,2.66,0,0,1,.23-.67l0,0C3,43.12,4.55,43,6,43.57Z"/><path class="cls-3" d="M47.08,31.33c0,4.32-9.16,24.29-23,17.78C15.6,36.18,1.63,41.26,1,31.33,1,4.14,10.15,20.74,21.88,10.09,42-8.2,47.08,19.42,47.08,31.33Z"/><path class="cls-4" d="M35,19.1l-.17-1.3c-.08-.64-.48-1-.86-.85a15.09,15.09,0,0,1-1.93.45c-1.18.19-3.29,3.28-4,3.18-.52-.07.58.91-.1.86l-.38,0c-.46,0-.18-.94-.52-1-.83-.15-.29-1.42-.29-1.42a.88.88,0,0,0-1.2-.74l-.29.09a.83.83,0,0,0-.55,1.23s.37.78-.21,1a3.83,3.83,0,0,1-.75.25c-1.54.49-.92-3.55-.92-3.55a.87.87,0,0,0-1-.68l-.44.05a.87.87,0,0,0-.84,1.1s1.87,3,.14,5.11a7,7,0,0,0-2.07,5c0,3.86-3.17,7.25.56,8.24s13.42-4.38,13.42-8.24a7,7,0,0,0-1.45-4.24h0c-1-1.55.13-4,1.12-3.84a9,9,0,0,1,2,.68C34.8,20.49,35.14,19.81,35,19.1ZM28.61,27a1.78,1.78,0,0,1-.31.45l-.58.62-1.09,1.14a17.65,17.65,0,0,1-2.49,2.07,11,11,0,0,1-3,1.51,11.76,11.76,0,0,1,1.72-2.89,18.84,18.84,0,0,1,2.23-2.32c.4-.34.84-.72,1.29-1.05l.37-.25a5.6,5.6,0,0,1-.22-3.22,12.8,12.8,0,0,0,1.67,2.58,3.09,3.09,0,0,1,.3.31l.08.13a1.33,1.33,0,0,1,.1.24A1.17,1.17,0,0,1,28.61,27Z"/></g></g></svg>