<svg xmlns="http://www.w3.org/2000/svg" viewBox="0 0 44.92 46.29"><defs><style>.cls-1,.cls-4{fill:#da6bf5;}.cls-1{opacity:0.1;}.cls-2,.cls-3{fill:none;stroke:#da6bf5;stroke-miterlimit:10;}.cls-2{stroke-width:2px;opacity:0.8;}.cls-3{stroke-linecap:round;opacity:0.5;}</style></defs><title>5</title><g id="Layer_2" data-name="Layer 2"><g id="Layer_2-2" data-name="Layer 2"><path class="cls-1" d="M21.21,1.72,1.2,36.39a1.44,1.44,0,0,0,1.25,2.16h40a1.44,1.44,0,0,0,1.25-2.16l-20-34.67A1.45,1.45,0,0,0,21.21,1.72Z"/><path class="cls-2" d="M21.21,1.72,1.2,36.39a1.44,1.44,0,0,0,1.25,2.16h40a1.44,1.44,0,0,0,1.25-2.16l-20-34.67A1.45,1.45,0,0,0,21.21,1.72Z"/><path class="cls-3" d="M13.26,15.49H7.82A2.47,2.47,0,0,0,5.68,19.2L20.32,44.55a2.47,2.47,0,0,0,4.28,0L39.24,19.2a2.47,2.47,0,0,0-2.14-3.71H31.66"/><path class="cls-4" d="M22.41,33l-.24-.23a.06.06,0,0,1,0-.07,0,0,0,0,1,.07,0h0Z"/><path class="cls-4" d="M20.53,30.92l-.4-.53a.39.39,0,0,1,.09-.55.4.4,0,0,1,.55.08l0,.06v0l.28.57h0a.32.32,0,0,1-.15.44A.31.31,0,0,1,20.53,30.92Z"/><path class="cls-4" d="M18.88,28.21l-.24-.65a.6.6,0,0,1,.34-.78.61.61,0,0,1,.78.35.64.64,0,0,1,0,.07v0l.15.58v.05a.55.55,0,0,1-.41.68A.55.55,0,0,1,18.88,28.21Z"/><path class="cls-4" d="M18.66,24.76,19,24.1a.72.72,0,1,1,1.31.58.05.05,0,0,1,0,0l0,.07-.27.5,0,.08a.69.69,0,0,1-.93.28A.68.68,0,0,1,18.66,24.76Z"/><path class="cls-4" d="M20.41,22l.42-.5a.74.74,0,0,1,1.05-.09A.74.74,0,0,1,22,22.45h0l-.41.49h0A.74.74,0,0,1,20.5,23,.74.74,0,0,1,20.41,22Z"/><path class="cls-4" d="M22.31,19.66l.35-.49,0,0a.69.69,0,0,1,1.16.76l-.35.59a.72.72,0,0,1-1.24-.74l0,0Z"/><path class="cls-4" d="M23.4,17.27a2.52,2.52,0,0,0,0-.54h0a.56.56,0,0,1,1.1-.23,4.52,4.52,0,0,1,.13.75h0a.59.59,0,0,1-.55.64.6.6,0,0,1-.65-.55Z"/><path class="cls-4" d="M22.59,14.64l-.32-.54v0a.34.34,0,0,1,.12-.46.35.35,0,0,1,.42.07l.44.51a.4.4,0,0,1-.6.52l0-.06Z"/><path class="cls-4" d="M20.88,12.13l-.21-.26.27.19a.05.05,0,0,1,0,.07,0,0,0,0,1-.07,0Z"/><path class="cls-4" d="M22.41,33l-.08-.15s0,0,0,0h0Z"/><path class="cls-4" d="M21.55,30.38,21.5,30a.31.31,0,1,1,.62-.08V30h0l0,.33h0a.28.28,0,0,1-.55,0Z"/><path class="cls-4" d="M21.71,27.36l.1-.35a.51.51,0,0,1,1,.29.14.14,0,0,1,0,.06v0l-.12.29v0a.48.48,0,0,1-.91-.33Z"/><path class="cls-4" d="M23.07,24.61l.21-.28a.66.66,0,1,1,1,.81l0,0h0l-.22.24v0a.65.65,0,0,1-.91,0A.64.64,0,0,1,23.07,24.61Z"/><path class="cls-4" d="M24.82,22.39l.17-.26v0a.73.73,0,0,1,1.22.81v0l-.21.3a.72.72,0,0,1-1,.18.73.73,0,0,1-.19-1Z"/><path class="cls-4" d="M26,20l.1-.3v0a.72.72,0,0,1,.92-.47.74.74,0,0,1,.48.91l-.11.34A.74.74,0,1,1,26,20h0Z"/><path class="cls-4" d="M26.41,17.53l-.05-.27v-.07a.67.67,0,0,1,.53-.78.68.68,0,0,1,.77.49l.1.39a.68.68,0,0,1-1.32.34v-.1Z"/><path class="cls-4" d="M25.3,15.31l-.22-.23v0a.54.54,0,0,1,0-.76.55.55,0,0,1,.72,0l.27.25a.56.56,0,0,1,0,.78.56.56,0,0,1-.79,0l0,0Z"/><path class="cls-4" d="M23.24,13.48,23,13.29h0a.32.32,0,0,1,.32-.55l.32.15a.35.35,0,0,1-.3.64l-.05,0Z"/><path class="cls-4" d="M20.81,12l-.14-.08.16,0,0,0s0,0,0,0Z"/><path class="cls-4" d="M22.41,33l-.16,0a0,0,0,0,1,0,0l0,0h0Z"/><path class="cls-4" d="M19.91,32.3l-.3-.13a.29.29,0,1,1,.23-.53l0,0h0l.27.16h0a.25.25,0,0,1,.09.36A.27.27,0,0,1,19.91,32.3Z"/><path class="cls-4" d="M17.46,30.94l-.27-.2a.5.5,0,0,1-.08-.68.49.49,0,0,1,.67-.08l0,0h0l.21.22h0a.46.46,0,0,1-.61.68Z"/><path class="cls-4" d="M15.53,28.76l-.16-.32a.61.61,0,0,1,1.1-.55.17.17,0,0,1,0,.05v0l.11.27v0a.59.59,0,0,1-.34.77A.6.6,0,0,1,15.53,28.76Z"/><path class="cls-4" d="M14.91,25.8l0-.35a.69.69,0,1,1,1.38.13v.06l0,.28v0a.68.68,0,0,1-.78.58A.69.69,0,0,1,14.91,25.8Z"/><path class="cls-4" d="M15.42,23l.1-.33a.74.74,0,1,1,1.42.44h0v0l-.1.28v0A.74.74,0,0,1,15.42,23Z"/><path class="cls-4" d="M16.72,20.35l.21-.28a.73.73,0,0,1,1.16.88l0,0-.17.24,0,0a.73.73,0,1,1-1.17-.87Z"/><path class="cls-4" d="M18.73,18.32l.24-.21a.65.65,0,0,1,.87,1l-.23.22a.66.66,0,0,1-.93,0,.65.65,0,0,1,0-.92Z"/><path class="cls-4" d="M20.74,16.62l.19-.21,0,0a.49.49,0,0,1,.78.6l-.2.3a.52.52,0,0,1-.72.14.5.5,0,0,1-.14-.71.21.21,0,0,1,0-.06Z"/><path class="cls-4" d="M21.6,14.46l0-.29v0a.29.29,0,0,1,.26-.31.31.31,0,0,1,.3.22l.08.33a.32.32,0,1,1-.61.16.43.43,0,0,0,0,0Z"/><path class="cls-4" d="M20.76,12l-.09-.14.12.11a0,0,0,0,1,0,0Z"/></g></g></svg>