<svg xmlns="http://www.w3.org/2000/svg" viewBox="0 0 48.53 48.53"><defs><style>.cls-1,.cls-4{fill:#4ca7e5;}.cls-1{opacity:0.1;}.cls-2,.cls-3,.cls-5,.cls-6{fill:none;stroke:#4ca7e5;stroke-miterlimit:10;}.cls-2,.cls-3{stroke-width:2.25px;}.cls-3,.cls-5,.cls-6{stroke-linecap:round;}.cls-3{opacity:0.6;}.cls-6{opacity:0.7;}</style></defs><title>6</title><g id="Layer_2" data-name="Layer 2"><g id="Layer_2-2" data-name="Layer 2"><rect class="cls-1" x="7.89" y="7.89" width="32.75" height="32.75" rx="1"/><rect class="cls-2" x="7.89" y="7.89" width="32.75" height="32.75" rx="1"/><line class="cls-3" x1="29.72" y1="40.64" x2="29.72" y2="47.4"/><line class="cls-3" x1="18.8" y1="40.64" x2="18.8" y2="47.4"/><line class="cls-3" x1="29.72" y1="1.13" x2="29.72" y2="7.89"/><line class="cls-3" x1="18.8" y1="1.13" x2="18.8" y2="7.89"/><line class="cls-3" x1="7.89" y1="29.72" x2="1.13" y2="29.72"/><line class="cls-3" x1="7.89" y1="18.8" x2="1.13" y2="18.8"/><line class="cls-3" x1="47.4" y1="29.72" x2="40.64" y2="29.72"/><line class="cls-3" x1="47.4" y1="18.8" x2="40.64" y2="18.8"/><rect class="cls-4" x="18.76" y="19.33" width="0.87" height="9.97"/><rect class="cls-4" x="17.15" y="19.33" width="1.61" height="0.79"/><rect class="cls-4" x="17.15" y="20.87" width="0.73" height="0.73"/><rect class="cls-4" x="17.15" y="22.28" width="0.73" height="0.73"/><rect class="cls-4" x="17.15" y="23.69" width="0.73" height="0.73"/><rect class="cls-4" x="17.15" y="25.1" width="0.73" height="0.73"/><rect class="cls-4" x="17.15" y="26.51" width="0.73" height="0.73"/><rect class="cls-4" x="17.15" y="27.92" width="0.73" height="0.73"/><path class="cls-4" d="M19.64,20.87V29.3H30.88V20.87Zm9.44,3.55-.94.19-1.08,2.08L25.89,24.2,25.36,28l-1.68-1.72L23.09,28,21.77,25l-.84,1.36L20.31,26l1.57-2.51L23,26,23.39,25l1.46,1.49.66-4.77,1.59,3.38L27.66,24l1-.2L29,23.2l.6.4Z"/><line class="cls-5" x1="31.41" y1="16.57" x2="26.03" y2="16.57"/><path class="cls-4" d="M31.41,14.9v3.34h4.47V14.9Zm3.39,2.53H32.49V15.71H34.8Z"/><path class="cls-4" d="M12.29,14.9v3.34h4.47V14.9Zm3.4,2.53H13.37V15.71h2.32Z"/><path class="cls-4" d="M12.29,30.13v3.33h4.47V30.13Zm3.4,2.53H13.37V30.93h2.32Z"/><line class="cls-5" x1="33.65" y1="18.24" x2="33.65" y2="19.24"/><line class="cls-6" x1="16.27" y1="16.57" x2="23.41" y2="16.57"/><line class="cls-6" x1="14.53" y1="30.47" x2="14.53" y2="17.85"/><polyline class="cls-6" points="33.65 21.59 33.65 29.72 29.92 31.8 16.27 31.8"/></g></g></svg>