<svg xmlns="http://www.w3.org/2000/svg" viewBox="0 0 48.08 52.19"><defs><style>.cls-1,.cls-2,.cls-4{fill:#84b012;}.cls-1{opacity:0.1;}.cls-2{opacity:0.6;}.cls-3{fill:none;stroke:#84b012;stroke-miterlimit:10;stroke-width:2px;}</style></defs><title>6</title><g id="Layer_2" data-name="Layer 2"><g id="Layer_2-2" data-name="Layer 2"><path class="cls-1" d="M47.08,31.33c0,4.32-9.16,24.29-23,17.78C15.6,36.18,1.63,41.26,1,31.33,1,4.14,10.15,20.74,21.88,10.09,42-8.2,47.08,19.42,47.08,31.33Z"/><path class="cls-2" d="M20.25,5.73C16.11,9.51,8.66,12.84,8.5,6c.25-2.53,3.87-1.4,6.57-2.83,4.49-2.11,7.1-5.28,7.69-1.09C22.7,3.62,21.49,4.55,20.25,5.73Z"/><path class="cls-2" d="M6,43.57c2.64,1,5.19,1.36,7.82,3.67,2,1.75,2.43,4.41-.18,4.87A4.38,4.38,0,0,1,11.66,52a2.31,2.31,0,0,1-.65-.32c-2.38-1.63-9.35-4.52-9-6.54a2.66,2.66,0,0,1,.23-.67l0,0C3,43.12,4.55,43,6,43.57Z"/><path class="cls-3" d="M47.08,31.33c0,4.32-9.16,24.29-23,17.78C15.6,36.18,1.63,41.26,1,31.33,1,4.14,10.15,20.74,21.88,10.09,42-8.2,47.08,19.42,47.08,31.33Z"/><path class="cls-4" d="M27.85,20a16.16,16.16,0,0,0-4.43.45,6.79,6.79,0,0,0-2,.81,1.41,1.41,0,0,0-.78,1.59l0-.05c1.38,2.65,3.44,4.94,4.93,7.6a8.83,8.83,0,0,1,1.3,4.35,6.08,6.08,0,0,1-1.92,4,6,6,0,0,0,1.78-4,8.61,8.61,0,0,0-1.4-4.2c-1.55-2.59-3.67-4.78-5.18-7.48v0a1.8,1.8,0,0,1,.09-1.33,2.64,2.64,0,0,1,.86-.95,7.32,7.32,0,0,1,2.19-1,16.93,16.93,0,0,1,4.65-.62Z"/><path class="cls-4" d="M17.16,36.47a16.47,16.47,0,0,0,4-.23,5.09,5.09,0,0,0,3.24-2l0,0a3.05,3.05,0,0,0-.06-2.64,6.56,6.56,0,0,0-2-2c-.79-.56-1.63-1.06-2.44-1.66a6.08,6.08,0,0,1-2.08-2.29l0,0v0a5.31,5.31,0,0,1,.9-3.64,7.79,7.79,0,0,1,2.7-2.5,7,7,0,0,1,3.52-1,6.32,6.32,0,0,1,3.42,1l0,.07a7,7,0,0,0-3.36-.58,7.13,7.13,0,0,0-3.15,1.1,7.91,7.91,0,0,0-2.36,2.32,4.68,4.68,0,0,0-.86,3l0-.08a5.34,5.34,0,0,0,1.76,2.05c.76.59,1.59,1.12,2.38,1.72a7,7,0,0,1,2.09,2.21,3.5,3.5,0,0,1,0,3v0l0,0a5.35,5.35,0,0,1-3.52,2,16.91,16.91,0,0,1-4,.09Z"/><path class="cls-4" d="M21.67,20.15a4.51,4.51,0,0,0-2.68.91A6.3,6.3,0,0,0,17,23.28a3.26,3.26,0,0,0-.21,2.77A3.87,3.87,0,0,0,19,27.89H19A6,6,0,0,0,21,27.72c.71-.15,1.41-.33,2.13-.45a6.61,6.61,0,0,1,2.22-.07,4.18,4.18,0,0,1,2,.93h0v0a4.84,4.84,0,0,1,.93,2.27,4.27,4.27,0,0,1-.41,2.39,9.64,9.64,0,0,1-3.29,3.51,9.51,9.51,0,0,0,3.17-3.56,4.22,4.22,0,0,0,.34-2.32,4.76,4.76,0,0,0-.95-2.14l0,0a3.94,3.94,0,0,0-1.9-.81,6.21,6.21,0,0,0-2.1.12c-.7.14-1.39.34-2.1.51a6.35,6.35,0,0,1-2.23.22h0a4.45,4.45,0,0,1-2.55-2.07,3.89,3.89,0,0,1,.14-3.3,6.81,6.81,0,0,1,2.11-2.53,5.17,5.17,0,0,1,3.16-1.14Z"/><path class="cls-4" d="M24.93,12.93a5.73,5.73,0,0,1,.81.68,2.55,2.55,0,0,1,.6,1c.07.15.09.11.18.15a2,2,0,0,1,.27.15,6.82,6.82,0,0,1,.81.61v.1a1.43,1.43,0,0,1-1.17.22,1.07,1.07,0,0,1-.59-.36,1.18,1.18,0,0,1-.28-.73,2,2,0,0,0-.24-.85,5.37,5.37,0,0,0-.46-.89Z"/><path class="cls-4" d="M30.78,10.78a9.55,9.55,0,0,0-1.24.93,3.15,3.15,0,0,0-.89,1.08c0,.11-.12.53-.2.74a4.56,4.56,0,0,1-.27.71,3.33,3.33,0,0,0-.51,1.29l-.09.06a1.05,1.05,0,0,1-.44-.83,2.35,2.35,0,0,1,.09-.89,2.92,2.92,0,0,1,.36-.73,4.33,4.33,0,0,0,.38-.7,3.6,3.6,0,0,1,1.3-1.12,10.49,10.49,0,0,1,1.47-.63Z"/><path class="cls-4" d="M34,18.47a38.08,38.08,0,0,0-2.77-2.62c-2.17-2.56-4.56-.23-6.7,3.45-2.84,5.41,1.66,7,7.29,9.81,2.11.87,5.29.66,5.65-1.72C37.62,23.92,35.69,21.1,34,18.47Zm-.17,4.21c-.31.72-1.14.35-1.8-.41s-1.47-.86-1.16-1.58,1.21-.87,2-.32A2.06,2.06,0,0,1,33.79,22.68Z"/></g></g></svg>