<svg xmlns="http://www.w3.org/2000/svg" viewBox="0 0 44.92 46.29"><defs><style>.cls-1,.cls-4,.cls-5{fill:#da6bf5;}.cls-1{opacity:0.1;}.cls-2,.cls-3{fill:none;stroke:#da6bf5;stroke-miterlimit:10;}.cls-2{stroke-width:2px;}.cls-3{stroke-linecap:round;opacity:0.5;}.cls-4{fill-rule:evenodd;}</style></defs><title>6</title><g id="Layer_2" data-name="Layer 2"><g id="Layer_2-2" data-name="Layer 2"><path class="cls-1" d="M21.21,1.72,1.2,36.39a1.44,1.44,0,0,0,1.25,2.16h40a1.44,1.44,0,0,0,1.25-2.16l-20-34.67A1.45,1.45,0,0,0,21.21,1.72Z"/><path class="cls-2" d="M21.21,1.72,1.2,36.39a1.44,1.44,0,0,0,1.25,2.16h40a1.44,1.44,0,0,0,1.25-2.16l-20-34.67A1.45,1.45,0,0,0,21.21,1.72Z"/><path class="cls-3" d="M13.26,15.49H7.82A2.47,2.47,0,0,0,5.68,19.2L20.32,44.55a2.47,2.47,0,0,0,4.28,0L39.24,19.2a2.47,2.47,0,0,0-2.14-3.71H31.66"/><path class="cls-4" d="M29.35,30.14s-2.14-4.42-2.61-6c-.37-1.23-.9-5.09-.9-5.09a1.87,1.87,0,0,0-1.74-1.37H20.82a1.87,1.87,0,0,0-1.74,1.37s-.53,3.86-.9,5.09c-.47,1.58-2.61,6-2.61,6a2.25,2.25,0,0,0-.11.68,2,2,0,0,0,1.85,2.06h10.3a2,2,0,0,0,1.85-2.06A2.25,2.25,0,0,0,29.35,30.14Zm-5.66-5.88a1.06,1.06,0,0,1,0,2.11,1.06,1.06,0,1,1,0-2.11Zm-2.1-2.64c.41,0,.74.47.74,1.05s-.33,1-.74,1-.74-.47-.74-1S21.18,21.62,21.59,21.62Zm6,9.43c-.21.38-.75.25-1.28.3-3.24.33-10.73,1.33-8.59-2.58.72-1.62,2.89-1.85,4.88-1.74,1.68.1,3.39,0,4.42,1.47C27.46,29.07,28,30.43,27.62,31.05Z"/><rect class="cls-5" x="19.46" y="14.64" width="6.01" height="1.75" rx="0.87"/></g></g></svg>