<svg xmlns="http://www.w3.org/2000/svg" viewBox="0 0 20 34.59"><defs><style>.cls-1,.cls-2{fill:#f7d492;}.cls-1{opacity:0.5;}</style></defs><title>battery</title><g id="Layer_2" data-name="Layer 2"><g id="Layer_2-2" data-name="Layer 2"><rect class="cls-1" x="7.09" width="5.81" height="4.13" rx="1"/><path class="cls-2" d="M18,2.59H2a2,2,0,0,0-2,2V6.15l20-1V4.59A2,2,0,0,0,18,2.59Z"/><polygon class="cls-2" points="0 11.73 20 10.73 20 7.21 0 8.21 0 11.73"/><path class="cls-2" d="M0,13.79v18.8a2,2,0,0,0,2,2H18a2,2,0,0,0,2-2V12.79Zm14.21,8L6.43,29.64a0,0,0,0,1-.08,0L7.5,24.85a.05.05,0,0,0,0-.06H5.82a0,0,0,0,1,0-.07l3-7a.05.05,0,0,1,0,0h4a.05.05,0,0,1,0,.06L12,21.62a0,0,0,0,0,0,.06h2.14A0,0,0,0,1,14.21,21.76Z"/></g></g></svg>