<?xml version="1.0"?>
<svg xmlns="http://www.w3.org/2000/svg" xmlns:xlink="http://www.w3.org/1999/xlink" viewBox="0 0 1600 200">
<defs>
    <style>
        .cls-1{fill:url(#gradient_53);}
        .cls-17,.cls-2,.cls-23,.cls-24,.cls-3,.cls-4,.cls-5,.cls-6{opacity:0.1;}
        .cls-2{fill:url(#gradient_19);}
        .cls-3{fill:url(#gradient_19-2);}
        .cls-4{fill:url(#gradient_19-3);}
        .cls-5{fill:url(#gradient_19-4);}
        .cls-6{fill:url(#gradient_19-5);}
        .cls-10,.cls-13,.cls-18,.cls-24,.cls-25,.cls-26,.cls-30,.cls-31,.cls-32,.cls-33,.cls-35,.cls-7{fill:none;}
        .cls-26,.cls-31,.cls-32,.cls-33,.cls-35,.cls-7{stroke:#8f9fc4;}
        .cls-10,.cls-26,.cls-31,.cls-32,.cls-35,.cls-7{stroke-linecap:round;stroke-linejoin:round;}
        .cls-11,.cls-15,.cls-7{opacity:0.4;}
        .cls-11,.cls-12,.cls-14,.cls-16,.cls-17,.cls-19,.cls-20,.cls-8,.cls-9{fill:#909fc4;}
        .cls-10,.cls-13,.cls-20,.cls-21,.cls-8,.cls-9{opacity:0.3;}
        .cls-9{font-size:6px;}
        .cls-19,.cls-20,.cls-9{font-family:MyriadPro-Regular, Myriad Pro;}
        .cls-10,.cls-13,.cls-18,.cls-24,.cls-25,.cls-30{stroke:#909fc4;}
        .cls-12,.cls-18,.cls-22,.cls-31,.cls-34{opacity:0.2;}
        .cls-13,.cls-18,.cls-24,.cls-25,.cls-30,.cls-33{stroke-miterlimit:10;}
        .cls-14,.cls-19{opacity:0.15;}
        .cls-19,.cls-20{font-size:5.35px;}
        .cls-25{opacity:0.06;}
        .cls-27{fill:#2c467e;}
        .cls-28{fill:#141414;}
        .cls-29,.cls-34{fill:#8f9fc4;}
        .cls-32{opacity:0.64;}
        .cls-35{stroke-width:0.75px;}
        .cls-36{fill:#1a1c22;}
    </style>
</defs>
<title>main-illustration</title>
    <g id='code-3'>
        <line class="cls-31" x1="1237.56" y1="120.49" x2="1230.13" y2="120.49"/>
        <line class="cls-32" x1="1230.13" y1="114.88" x2="1257.17" y2="114.88"/>
        <line class="cls-31" x1="1241.42" y1="120.49" x2="1272.92" y2="120.49"/>
        <line class="cls-31" x1="1275.67" y1="120.49" x2="1277.91" y2="120.49"/>
        <line class="cls-31" x1="1230.13" y1="130.53" x2="1244.82" y2="130.53"/>
        <line class="cls-31" x1="1247.5" y1="130.53" x2="1268.09" y2="130.53"/>
        <line class="cls-31" x1="1270.72" y1="130.53" x2="1279.22" y2="130.53"/>
        <line class="cls-31" x1="1230.13" y1="134.12" x2="1238.5" y2="134.12"/>
        <line class="cls-31" x1="1243.12" y1="134.12" x2="1250.61" y2="134.12"/>
        <line class="cls-31" x1="1272.22" y1="125.25" x2="1261.6" y2="125.25"/>
        <line class="cls-31" x1="1258.09" y1="125.25" x2="1230.13" y2="125.25"/>
    </g>

    <g id='code-2'>
        <line class="cls-31" x1="1469.49" y1="136.73" x2="1464.39" y2="136.73"/>
        <line class="cls-32" x1="1464.39" y1="131.12" x2="1491.43" y2="131.12"/>
        <line class="cls-31" x1="1472.88" y1="136.73" x2="1482.94" y2="136.73"/>
        <line class="cls-31" x1="1488.93" y1="136.73" x2="1512.18" y2="136.73"/>
        <line class="cls-31" x1="1464.39" y1="146.78" x2="1479.08" y2="146.78"/>
        <line class="cls-31" x1="1481.76" y1="146.78" x2="1488.63" y2="146.78"/>
        <line class="cls-31" x1="1506.48" y1="141.49" x2="1498.21" y2="141.49"/>
        <line class="cls-31" x1="1493.72" y1="141.49" x2="1464.39" y2="141.49"/>
    </g>

    <g id='monitor-3'>
        <g class="cls-22">
            <path class="cls-26" d="M1544.42,169.73h-20.72a2.09,2.09,0,0,0-2.09,2.09v9.82c0,1.16.94,2.09,2.09,1.09h20.72c1.16,1,2.09.06,2.09-1.09v-9.82A2.09,2.09,0,0,0,1544.42,169.73Z"/>
            <path class="cls-26" d="M1524.36,186.85c0-.72.73-1.3,1.63-.68h16.15c.9-.62,1.63,0,1.63.68"/>
            <rect class="cls-29" x="1539.47" y="179.66" width="4.3" height="1.27" rx="0.26" ry="0.26" transform="translate(3083.24 360.6) rotate(180)"/>
            <rect class="cls-29" x="1533.96" y="179.66" width="4.27" height="1.27" rx="0.26" ry="0.26" transform="translate(3072.19 360.6) rotate(180)"/>
            <rect class="cls-29" x="1528.03" y="179.66" width="4.89" height="1.27" rx="0.26" ry="0.26" transform="translate(3060.95 360.6) rotate(180)"/>
            <rect class="cls-29" x="1524.71" y="179.66" width="1.35" height="1.27" rx="0.26" ry="0.26" transform="translate(3050.76 360.6) rotate(180)"/>
            <rect class="cls-29" x="1531.58" y="176.42" width="2.67" height="1.27" rx="0.26" ry="0.26" transform="translate(3065.84 354.12) rotate(180)"/>
            <rect class="cls-29" x="1529.19" y="176.42" width="1.64" height="1.27" rx="0.26" ry="0.26" transform="translate(3060.02 354.12) rotate(-180)"/>
            <rect class="cls-29" x="1525.89" y="176.42" width="2.37" height="1.27" rx="0.26" ry="0.26" transform="translate(3054.15 354.12) rotate(-180)"/>
            <rect class="cls-29" x="1539.03" y="172.74" width="1.34" height="1.27" rx="0.26" ry="0.26" transform="translate(3079.39 346.74) rotate(180)"/>
            <rect class="cls-29" x="1534.51" y="172.74" width="3.72" height="1.27" rx="0.26" ry="0.26" transform="translate(3072.74 346.74) rotate(180)"/>
            <rect class="cls-29" x="1532.37" y="172.74" width="0.9" height="1.27" rx="0.26" ry="0.26" transform="translate(3065.64 346.74) rotate(180)"/>
            <rect class="cls-29" x="1528.26" y="172.74" width="2.87" height="1.27" rx="0.26" ry="0.26" transform="translate(3059.38 346.74) rotate(180)"/>
        </g>
        <rect class="cls-29" x="1535.32" y="176.42" width="6.67" height="1.27" rx="0.26" ry="0.26" transform="translate(3077.32 354.12) rotate(180)"/>
    </g>

    <g id='monitor-2'>
        <g class="cls-22">
            <path class="cls-26" d="M1496.56,161.65h2a8,8,0,0,1,8,8v0a2.1,2.1,0,0,1-2.1,2.1h-13.72a2.1,2.1,0,0,1-2.1-2.1v0a8,8,0,0,1,8-8Z"/>
            <rect class="cls-29" x="1501.42" y="169.21" width="3.09" height="0.91" rx="0.26" ry="0.26" transform="translate(3005.94 339.34) rotate(180)"/>
            <rect class="cls-29" x="1497.46" y="169.21" width="3.07" height="0.91" rx="0.26" ry="0.26" transform="translate(2997.99 339.34) rotate(-180)"/>
            <rect class="cls-29" x="1490.81" y="169.21" width="0.97" height="0.91" rx="0.26" ry="0.26" transform="translate(2982.59 339.34) rotate(180)"/>
            <rect class="cls-29" x="1495.75" y="166.88" width="1.92" height="0.91" rx="0.26" ry="0.26" transform="translate(2993.43 334.68) rotate(180)"/>
            <rect class="cls-29" x="1498.44" y="166.88" width="4.8" height="0.91" rx="0.26" ry="0.26" transform="translate(3001.68 334.68) rotate(180)"/>
            <rect class="cls-29" x="1494.03" y="166.88" width="1.18" height="0.91" rx="0.26" ry="0.26" transform="translate(2989.25 334.68) rotate(180)"/>
            <rect class="cls-29" x="1491.66" y="166.88" width="1.7" height="0.91" rx="0.26" ry="0.26" transform="translate(2985.02 334.68) rotate(180)"/>
            <rect class="cls-29" x="1501.1" y="164.23" width="0.96" height="0.91" rx="0.26" ry="0.26" transform="translate(3003.17 329.37) rotate(180)"/>
            <rect class="cls-29" x="1497.86" y="164.23" width="2.67" height="0.91" rx="0.26" ry="0.26" transform="translate(2998.39 329.37) rotate(180)"/>
            <rect class="cls-29" x="1496.32" y="164.23" width="0.65" height="0.91" rx="0.26" ry="0.26" transform="translate(2993.28 329.37) rotate(180)"/>
            <rect class="cls-29" x="1493.36" y="164.23" width="2.06" height="0.91" rx="0.26" ry="0.26" transform="translate(2988.78 329.37) rotate(180)"/>
        </g>
        <rect class="cls-29" x="1493.2" y="169.21" width="3.52" height="0.91" rx="0.26" ry="0.26" transform="translate(2989.91 339.34) rotate(-180)"/>
    </g>

    <g id='monitor-1'>
        <path class="cls-31" d="M1579,158.52h-17a1.62,1.62,0,0,0-1.72,1.49v7a1,1,0,0,0,1.72.78h17a1,1,0,0,0,1.72-.78v-7A1.62,1.62,0,0,0,1579,158.52Z"/>
        <path class="cls-31" d="M1562.5,171.77c0-.72.6-1.3,1.34-.68h13.28c.74-.62,1.34,0,1.34.68"/>
        <rect class="cls-34" x="1573.67" y="164.58" width="4.3" height="1.27" rx="0.26" ry="0.26" transform="translate(3151.64 330.44) rotate(180)"/>
        <rect class="cls-34" x="1568.16" y="164.58" width="4.27" height="1.27" rx="0.26" ry="0.26" transform="translate(3140.59 330.44) rotate(180)"/>
        <rect class="cls-34" x="1562.23" y="164.58" width="4.89" height="1.27" rx="0.26" ry="0.26" transform="translate(3129.35 330.44) rotate(180)"/>
        <rect class="cls-34" x="1569.52" y="161.34" width="6.67" height="1.27" rx="0.26" ry="0.26" transform="translate(3145.72 323.96) rotate(180)"/>
        <rect class="cls-34" x="1563.4" y="161.34" width="1.64" height="1.27" rx="0.26" ry="0.26" transform="translate(3128.43 323.96) rotate(180)"/>
        <rect class="cls-29" x="1565.79" y="161.34" width="2.67" height="1.27" rx="0.26" ry="0.26" transform="translate(3134.24 323.96) rotate(180)"/>
    </g>

</svg>
