<svg xmlns="http://www.w3.org/2000/svg" viewBox="0 0 74 84"><defs><style>.cls-1,.cls-2,.cls-3{fill:none;}.cls-1,.cls-3{stroke:#fff;stroke-linecap:round;stroke-linejoin:round;stroke-width:0.75px;}.cls-1{opacity:0.3;}.cls-3{opacity:0.3;}.cls-4{opacity:0.6;}.cls-5{fill:#fff;}</style></defs><title>g</title><g id="Слой_2" data-name="Слой 2"><g id="Слой_1-2" data-name="Слой 1"><polyline class="cls-1" points="18.72 44.58 18.72 56.71 27.39 61.91"/><polyline class="cls-1" points="58.88 40.8 58.88 28.67 50.21 23.47"/><rect class="cls-2" width="74" height="84"/><polyline class="cls-3" points="16.25 15.11 10.43 15.09 5.52 23.54 10.38 32.01 20.14 32.04 25.05 23.6 21.93 18.15"/><polyline class="cls-3" points="26.79 24.88 32.6 24.9 37.51 16.46 32.66 7.98 22.89 7.95 17.98 16.4 21.1 21.84"/><g class="cls-4"><path class="cls-5" d="M17.33,26.42H13.25v-.65l2.88-4.26h-2.8v-.8h3.93v.66l-2.89,4.25h3Z"/></g><g class="cls-4"><path class="cls-5" d="M29.93,19.28H28.84L27.05,16.7l-.55.45v2.14h-.93V13.57h.93V16.3q.38-.47.76-.9l1.54-1.82h1.06l-2.14,2.5Z"/></g><polyline class="cls-3" points="48.24 58.4 42.42 58.39 37.51 66.83 42.37 75.3 52.14 75.33 57.05 66.89 53.93 61.45"/><polyline class="cls-3" points="58.78 68.17 64.6 68.19 69.51 59.75 64.65 51.28 54.88 51.24 49.97 59.69 53.09 65.13"/><g class="cls-4"><path class="cls-5" d="M49.54,64v3.7a2.19,2.19,0,0,1-.27,1.11,1.81,1.81,0,0,1-.79.73,2.73,2.73,0,0,1-1.23.26,2.3,2.3,0,0,1-1.65-.56A2,2,0,0,1,45,67.64V64H46v3.61a1.44,1.44,0,0,0,.33,1,1.35,1.35,0,0,0,1,.34q1.32,0,1.32-1.39V64Z"/></g><g class="cls-4"><path class="cls-5" d="M58.06,62.57V56.86H59v4.91h2.42v.8Z"/></g></g></g></svg>