<svg xmlns="http://www.w3.org/2000/svg" viewBox="0 0 80 80"><defs><style>.cls-1,.cls-2{fill:none;}.cls-2{stroke:#fff;stroke-linecap:round;stroke-linejoin:round;stroke-width:0.75px;}.cls-2,.cls-3,.cls-5{opacity:0.6;}.cls-4,.cls-5{fill:#fff;}.cls-5{font-size:6.93px;font-family:OpenSans, Open Sans;}</style></defs><title>gh</title><g id="Слой_2" data-name="Слой 2"><g id="Слой_1-2" data-name="Слой 1"><rect class="cls-1" width="80" height="80"/><polyline class="cls-2" points="20.42 16.07 16.58 22.73 23.03 33.91 35.95 33.91 42.4 22.73 35.95 11.55 27.65 11.55"/><line class="cls-2" x1="29.49" y1="42.88" x2="29.49" y2="35.38"/><g class="cls-3"><path class="cls-4" d="M30,22.25h4.2V28a12.1,12.1,0,0,1-2,.48,14,14,0,0,1-2.05.14,5.15,5.15,0,0,1-4-1.54,6.18,6.18,0,0,1-1.41-4.33,5.78,5.78,0,0,1,1.59-4.32,6,6,0,0,1,4.37-1.56,8.53,8.53,0,0,1,3.39.69l-.66,1.55a6.62,6.62,0,0,0-2.78-.64,3.74,3.74,0,0,0-2.89,1.15,4.44,4.44,0,0,0-1.06,3.14,4.68,4.68,0,0,0,1,3.18A3.47,3.47,0,0,0,30.44,27a9,9,0,0,0,1.94-.23V23.85H30Z"/></g><polygon class="cls-2" points="33.32 44.78 25.66 44.78 21.83 51.42 25.66 58.05 33.32 58.05 37.15 51.42 33.32 44.78"/><text class="cls-5" transform="translate(27.29 53.67)">H</text></g></g></svg>