<svg xmlns="http://www.w3.org/2000/svg" viewBox="0 0 80 80"><defs><style>.cls-1,.cls-4{opacity:0.6;}.cls-2{fill:#fff;}.cls-3,.cls-4{fill:none;}.cls-4{stroke:#fff;stroke-linecap:round;stroke-linejoin:round;stroke-width:0.75px;}</style></defs><title>gho2</title><g id="Слой_2" data-name="Слой 2"><g id="Слой_1-2" data-name="Слой 1"><g class="cls-1"><path class="cls-2" d="M20.5,62.2a3.12,3.12,0,0,1-.7,2.17,2.52,2.52,0,0,1-2,.77,2.54,2.54,0,0,1-2-.77,3.15,3.15,0,0,1-.69-2.18,3.09,3.09,0,0,1,.7-2.17,2.57,2.57,0,0,1,2-.76,2.52,2.52,0,0,1,2,.77A3.12,3.12,0,0,1,20.5,62.2Zm-4.36,0a2.56,2.56,0,0,0,.43,1.6,1.5,1.5,0,0,0,1.26.54,1.5,1.5,0,0,0,1.26-.54,3.24,3.24,0,0,0,0-3.2,1.48,1.48,0,0,0-1.25-.54,1.52,1.52,0,0,0-1.27.54A2.54,2.54,0,0,0,16.14,62.2Z"/></g><rect class="cls-3" width="80" height="80"/><g class="cls-1"><path class="cls-2" d="M37.27,36h4.2v5.73a12.2,12.2,0,0,1-2,.48,14,14,0,0,1-2.05.14,5.15,5.15,0,0,1-4-1.54A6.18,6.18,0,0,1,32,36.52a5.77,5.77,0,0,1,1.59-4.32A6,6,0,0,1,38,30.64a8.51,8.51,0,0,1,3.39.69l-.66,1.55a6.6,6.6,0,0,0-2.78-.64,3.74,3.74,0,0,0-2.89,1.15A4.45,4.45,0,0,0,34,36.53a4.69,4.69,0,0,0,1,3.18A3.47,3.47,0,0,0,37.7,40.8a9,9,0,0,0,1.94-.23V37.63H37.27Z"/></g><polyline class="cls-4" points="45.83 29.85 49.67 36.51 43.22 47.7 30.3 47.7 23.84 36.51 30.3 25.33 38.6 25.33"/><polyline class="cls-4" points="26.8 41.66 23.41 43.61 17.83 46.84 17.83 46.92 17.83 53.42"/><polygon class="cls-4" points="21.66 55.56 13.99 55.56 10.16 62.2 13.99 68.83 21.66 68.83 25.49 62.2 21.66 55.56"/><line class="cls-4" x1="30.34" y1="25.33" x2="26.72" y2="19.07"/><g class="cls-1"><path class="cls-2" d="M24.62,11.77a5.07,5.07,0,0,1-1.13,3.52,4.1,4.1,0,0,1-3.21,1.26A4.13,4.13,0,0,1,17,15.3a5.11,5.11,0,0,1-1.13-3.55,5,5,0,0,1,1.13-3.53A4.18,4.18,0,0,1,20.29,7a4.09,4.09,0,0,1,3.2,1.25A5.07,5.07,0,0,1,24.62,11.77Zm-7.08,0a4.16,4.16,0,0,0,.69,2.6,2.44,2.44,0,0,0,2.05.89,2.44,2.44,0,0,0,2-.88A4.16,4.16,0,0,0,23,11.77a4.18,4.18,0,0,0-.68-2.59,2.41,2.41,0,0,0-2-.88,2.46,2.46,0,0,0-2.06.88A4.12,4.12,0,0,0,17.53,11.77Z"/><path class="cls-2" d="M33.93,16.42H32.4V12.24H28.13v4.18H26.61V7.14h1.52v3.8H32.4V7.14h1.52Z"/></g></g></g></svg>