<svg xmlns="http://www.w3.org/2000/svg" viewBox="0 0 41.83 30.38"><defs><style>.cls-1,.cls-2{fill:#fff;}.cls-1{opacity:0.5;}</style></defs><title>g</title><g id="Layer_2" data-name="Layer 2"><g id="Layer_2-2" data-name="Layer 2"><rect class="cls-1" x="31.6" y="26.62" width="9.06" height="3.76" rx="1.69"/><rect class="cls-1" x="0.96" y="26.62" width="9.06" height="3.76" rx="1.69"/><rect class="cls-1" x="31.6" width="9.06" height="3.76" rx="1.69"/><rect class="cls-1" x="0.96" width="9.06" height="3.76" rx="1.69"/><path class="cls-2" d="M40,6.18h-7.7A1.88,1.88,0,0,1,30.37,4.3,2.86,2.86,0,0,0,27.5,1.43H13.31a1.84,1.84,0,0,0-1.85,1.84v1A1.88,1.88,0,0,1,9.58,6.18H1.88A1.88,1.88,0,0,1,0,4.3V26.44a1.88,1.88,0,0,1,1.88-1.88h7.7a1.88,1.88,0,0,1,1.88,1.88,2.86,2.86,0,0,0,2.87,2.87H27.5a2.86,2.86,0,0,0,2.87-2.87,1.88,1.88,0,0,1,1.88-1.88H40a1.88,1.88,0,0,1,1.88,1.88V4.3A1.88,1.88,0,0,1,40,6.18ZM25.6,21a13,13,0,0,1-2.22.54,14.8,14.8,0,0,1-2.12.15A5.38,5.38,0,0,1,17,20a6.76,6.76,0,0,1-1.46-4.66,6.14,6.14,0,0,1,1.69-4.61A6.43,6.43,0,0,1,22,9.1a9.07,9.07,0,0,1,3.62.75l-.86,2.07a6.09,6.09,0,0,0-2.78-.67,3.45,3.45,0,0,0-2.69,1.13,4.38,4.38,0,0,0-1,3,4.88,4.88,0,0,0,.82,3,2.8,2.8,0,0,0,2.36,1,8.56,8.56,0,0,0,1.65-.17V16.78H20.76V14.62H25.6Z"/></g></g></svg>