<svg xmlns="http://www.w3.org/2000/svg" viewBox="0 0 80 80"><defs><style>.cls-1,.cls-4{opacity:0.6;}.cls-2{fill:#fff;}.cls-3,.cls-4{fill:none;}.cls-4{stroke:#fff;stroke-linecap:round;stroke-linejoin:round;stroke-width:0.75px;}</style></defs><title>go</title><g id="Слой_2" data-name="Слой 2"><g id="Слой_1-2" data-name="Слой 1"><g class="cls-1"><path class="cls-2" d="M32.17,51.41a3.12,3.12,0,0,1-.7,2.17,2.52,2.52,0,0,1-2,.77,2.54,2.54,0,0,1-2-.77,3.15,3.15,0,0,1-.69-2.18,3.09,3.09,0,0,1,.7-2.17,2.57,2.57,0,0,1,2-.76,2.52,2.52,0,0,1,2,.77A3.12,3.12,0,0,1,32.17,51.41Zm-4.36,0a2.56,2.56,0,0,0,.43,1.6,1.73,1.73,0,0,0,2.52,0,3.24,3.24,0,0,0,0-3.2,1.48,1.48,0,0,0-1.25-.54,1.52,1.52,0,0,0-1.27.54A2.54,2.54,0,0,0,27.81,51.41Z"/></g><rect class="cls-3" width="80" height="80"/><polyline class="cls-4" points="20.42 16.07 16.58 22.73 23.03 33.91 35.95 33.91 42.4 22.73 35.95 11.55 27.65 11.55"/><line class="cls-4" x1="29.49" y1="42.88" x2="29.49" y2="35.38"/><g class="cls-1"><path class="cls-2" d="M30,22.25h4.2V28a12.1,12.1,0,0,1-2,.48,14,14,0,0,1-2.05.14,5.15,5.15,0,0,1-4-1.54,6.18,6.18,0,0,1-1.41-4.33,5.78,5.78,0,0,1,1.59-4.32,6,6,0,0,1,4.37-1.56,8.53,8.53,0,0,1,3.39.69l-.66,1.55a6.62,6.62,0,0,0-2.78-.64,3.74,3.74,0,0,0-2.89,1.15,4.44,4.44,0,0,0-1.06,3.14,4.68,4.68,0,0,0,1,3.18A3.47,3.47,0,0,0,30.44,27a9,9,0,0,0,1.94-.23V23.85H30Z"/></g><polygon class="cls-4" points="33.32 44.78 25.66 44.78 21.83 51.42 25.66 58.05 33.32 58.05 37.15 51.42 33.32 44.78"/></g></g></svg>