<svg xmlns="http://www.w3.org/2000/svg" viewBox="0 0 80 80"><defs><style>.cls-1,.cls-3,.cls-4{fill:none;}.cls-2{fill:#4c4c4c;}.cls-2,.cls-3{opacity:0.4;}.cls-3{stroke:#4c4c4c;}.cls-3,.cls-4{stroke-miterlimit:10;}.cls-4{stroke:#979797;}.cls-5{fill:#979797;}</style>
<filter id="shadow-normal" x="0%" y="0%" width="100%" height="100%">
  <feDropShadow dx="0" dy="0" stdDeviation="5" flood-color="rgba(151, 151, 151, 0.25)" flood-opacity="1" />
</filter>
</defs><title>hydrogen</title><g class="shadow" style="filter: url(#shadow-normal);"><rect class="cls-1" width="80" height="80"/><rect class="cls-2" x="15.11" y="58.78" width="2.85" height="2.85" transform="translate(47.42 5.95) rotate(45)"/><rect class="cls-2" x="65.91" y="28.88" width="2.85" height="2.85"/><path class="cls-3" d="M23.22,23.69A2.26,2.26,0,1,1,21,21.39"/><polyline class="cls-3" points="66.02 53.51 66.02 51.66 71.5 51.66 71.5 53.51 68.37 53.51"/><polygon class="cls-2" points="19.27 53.95 30.17 62.64 43 65.39 55.58 45.72 52.65 35.32 37.49 20.11 19.27 53.95"/><polygon class="cls-2" points="41.8 19.09 19.72 40.58 25.23 65.04 49.84 58.2 53.28 44.38 51.49 27.17 41.8 19.09"/><polygon class="cls-2" points="26.56 48.62 28.89 67.3 45.14 67.3 51.48 58.22 60.89 43.69 39.48 18.38 35.64 31.79 26.56 48.62"/><polyline class="cls-4" points="35.34 63.84 39.08 66.24 48.56 64.17 58.02 45.28 48.99 28.54 40.57 21.14 33.62 28.54 28.91 29.17 20.74 49.88 29.54 65.04"/><path class="cls-5" d="M47,52.36H43.67V45.59H37.45v6.78H34.12V36.66h3.33v6.16h6.22V36.66H47Z"/></g></svg>