<svg xmlns="http://www.w3.org/2000/svg" viewBox="0 0 80 80"><defs><style>.cls-1,.cls-3,.cls-5{fill:none;}.cls-2{fill:#4e1ed3;}.cls-2,.cls-3,.cls-4{opacity:0.4;}.cls-3{stroke:#4e1ed3;}.cls-3,.cls-5{stroke-miterlimit:10;}.cls-4{fill:#4d1c9b;}.cls-5{stroke:#9976f7;}.cls-6{fill:#9976f7;}</style>
<filter id="shadow-normal" x="0%" y="0%" width="100%" height="100%">
  <feDropShadow dx="0" dy="0" stdDeviation="5" flood-color="rgba(77, 28, 155, 0.25)" flood-opacity="1" />
</filter>
</defs><title>keanium</title><g class="shadow" style="filter: url(#shadow-normal);"><rect class="cls-1" width="80" height="80"/><rect class="cls-2" x="18.57" y="20.92" width="2.85" height="2.85" transform="translate(21.66 -7.6) rotate(45)"/><rect class="cls-2" x="64.54" y="47.47" width="2.85" height="2.85"/><path class="cls-3" d="M4.72,60.49A2.26,2.26,0,1,1,7,62.78"/><polyline class="cls-3" points="53.16 22.34 53.16 20.49 58.64 20.49 58.64 22.34 55.51 22.34"/><polygon class="cls-4" points="12.98 52.76 24.13 31.11 40.67 17.49 45.83 34.2 62.14 54.8 27.22 66.14 12.98 52.76"/><polygon class="cls-4" points="23.08 51.91 21.86 33.39 32.81 19.7 57.75 43.51 52.52 61.94 31.87 58.9 23.08 51.91"/><polygon class="cls-4" points="16.15 44.52 25.21 30.04 38.81 16.44 56.15 35.18 53.46 60.99 16.05 64.62 16.15 44.52"/><path class="cls-5" d="M24.14,60.12s-4.66-2.19-6-3.56,2.19-12.73,2.19-12.73l15-24.14L50.07,30.36l7.68,21.1-9.54,7.15L37.28,56.95"/><path class="cls-6" d="M44.9,49.93H41.28l-3.94-6.34-1.35,1v5.37H32.8v-15H36v6.88L37.24,40l4.07-5.11h3.54l-5.25,6.66Z"/></g></svg>