<svg xmlns="http://www.w3.org/2000/svg" viewBox="0 0 80 80"><defs><style>.cls-1,.cls-4{fill:none;}.cls-2,.cls-4{opacity:0.6;}.cls-3{fill:#fff;}.cls-4{stroke:#fff;stroke-linecap:round;stroke-linejoin:round;stroke-width:0.75px;}</style></defs><title>kh</title><g id="Слой_2" data-name="Слой 2"><g id="Слой_1-2" data-name="Слой 1"><rect class="cls-1" width="80" height="80"/><g class="cls-2"><path class="cls-3" d="M35.46,27.53H33.7l-2.91-4.2-.9.73v3.47H28.37V18.25h1.52v4.43q.62-.76,1.24-1.47l2.51-3h1.73q-2.43,2.86-3.49,4.07Z"/></g><polyline class="cls-4" points="22.84 29.55 19 22.89 25.46 11.71 38.37 11.71 44.83 22.89 38.37 34.08 30.07 34.08"/><line class="cls-4" x1="42.02" y1="40.34" x2="38.41" y2="34.08"/><polygon class="cls-4" points="50.92 42.43 43.26 42.43 39.43 49.06 43.26 55.7 50.92 55.7 54.75 49.06 50.92 42.43"/><g class="cls-2"><path class="cls-3" d="M49.34,51.92h-.94V49.34H45.77v2.57h-.93V46.21h.93v2.34h2.63V46.21h.94Z"/></g></g></g></svg>