<svg xmlns="http://www.w3.org/2000/svg" viewBox="0 0 80 80"><defs><style>.cls-1,.cls-2{fill:none;}.cls-2{stroke:#fff;stroke-linecap:round;stroke-linejoin:round;stroke-width:0.75px;}.cls-2,.cls-3{opacity:0.6;}.cls-4{fill:#fff;}</style></defs><title>kh2o</title><g id="Слой_2" data-name="Слой 2"><g id="Слой_1-2" data-name="Слой 1"><rect class="cls-1" width="80" height="80"/><polyline class="cls-2" points="28.83 22.86 32.67 29.52 26.22 40.7 13.3 40.7 6.84 29.52 13.3 18.34 21.6 18.34"/><g class="cls-3"><path class="cls-4" d="M24.3,34.16H22.54L19.63,30l-.9.73v3.47H17.22V24.88h1.52v4.43q.62-.76,1.24-1.47l2.51-3h1.73q-2.43,2.86-3.49,4.07Z"/></g><polygon class="cls-2" points="56.26 8.41 48.6 8.41 44.77 15.05 48.6 21.69 56.26 21.69 60.09 15.05 56.26 8.41"/><g class="cls-3"><path class="cls-4" d="M54.68,17.91h-.94V15.33H51.11v2.57h-.93V12.2h.93v2.34h2.63V12.2h.94Z"/></g><line class="cls-2" x1="29.9" y1="46.96" x2="26.29" y2="40.7"/><polyline class="cls-2" points="47.73 23.26 44.12 29.52 44.04 29.52 32.54 29.52"/><g class="cls-3"><path class="cls-4" d="M38.6,54a5.07,5.07,0,0,1-1.13,3.52,4.1,4.1,0,0,1-3.21,1.26A4.13,4.13,0,0,1,31,57.49a5.11,5.11,0,0,1-1.13-3.55A5,5,0,0,1,31,50.42a4.18,4.18,0,0,1,3.23-1.23,4.09,4.09,0,0,1,3.2,1.25A5.07,5.07,0,0,1,38.6,54Zm-7.08,0a4.16,4.16,0,0,0,.69,2.6,2.82,2.82,0,0,0,4.09,0A4.16,4.16,0,0,0,37,54a4.18,4.18,0,0,0-.68-2.59,2.41,2.41,0,0,0-2-.88,2.46,2.46,0,0,0-2.06.88A4.12,4.12,0,0,0,31.52,54Z"/><path class="cls-4" d="M47.91,58.61H46.39V54.43H42.11v4.18H40.59V49.33h1.52v3.8h4.28v-3.8h1.52Z"/></g></g></g></svg>