<svg xmlns="http://www.w3.org/2000/svg" viewBox="0 0 80 80"><defs><style>.cls-1,.cls-4{opacity:0.6;}.cls-2{fill:#fff;}.cls-3,.cls-4{fill:none;}.cls-4{stroke:#fff;stroke-linecap:round;stroke-linejoin:round;stroke-width:0.75px;}</style></defs><title>kho2</title><g id="Слой_2" data-name="Слой 2"><g id="Слой_1-2" data-name="Слой 1"><g class="cls-1"><path class="cls-2" d="M55.11,15a3.12,3.12,0,0,1-.7,2.17,2.93,2.93,0,0,1-4,0A3.15,3.15,0,0,1,49.76,15a3.09,3.09,0,0,1,.7-2.17,2.57,2.57,0,0,1,2-.76,2.52,2.52,0,0,1,2,.77A3.12,3.12,0,0,1,55.11,15Zm-4.36,0a2.56,2.56,0,0,0,.43,1.6,1.73,1.73,0,0,0,2.52,0A2.57,2.57,0,0,0,54.12,15a2.57,2.57,0,0,0-.42-1.59,1.48,1.48,0,0,0-1.25-.54,1.52,1.52,0,0,0-1.27.54A2.54,2.54,0,0,0,50.75,15Z"/></g><rect class="cls-3" width="80" height="80"/><polyline class="cls-4" points="28.83 22.86 32.67 29.52 26.22 40.7 13.3 40.7 6.84 29.52 13.3 18.34 21.6 18.34"/><g class="cls-1"><path class="cls-2" d="M24.3,34.16H22.54L19.63,30l-.9.73v3.47H17.22V24.88h1.52v4.43q.62-.76,1.24-1.47l2.51-3h1.73q-2.43,2.86-3.49,4.07Z"/></g><polygon class="cls-4" points="56.26 8.41 48.6 8.41 44.77 15.05 48.6 21.69 56.26 21.69 60.09 15.05 56.26 8.41"/><line class="cls-4" x1="29.9" y1="46.96" x2="26.29" y2="40.7"/><polyline class="cls-4" points="47.73 23.26 44.12 29.52 44.04 29.52 32.54 29.52"/><g class="cls-1"><path class="cls-2" d="M38.6,54a5.07,5.07,0,0,1-1.13,3.52,4.1,4.1,0,0,1-3.21,1.26A4.13,4.13,0,0,1,31,57.49a5.11,5.11,0,0,1-1.13-3.55A5,5,0,0,1,31,50.42a4.18,4.18,0,0,1,3.23-1.23,4.09,4.09,0,0,1,3.2,1.25A5.07,5.07,0,0,1,38.6,54Zm-7.08,0a4.16,4.16,0,0,0,.69,2.6,2.82,2.82,0,0,0,4.09,0A4.16,4.16,0,0,0,37,54a4.18,4.18,0,0,0-.68-2.59,2.41,2.41,0,0,0-2-.88,2.46,2.46,0,0,0-2.06.88A4.12,4.12,0,0,0,31.52,54Z"/><path class="cls-2" d="M47.91,58.61H46.39V54.43H42.11v4.18H40.59V49.33h1.52v3.8h4.28v-3.8h1.52Z"/></g></g></g></svg>