<svg xmlns="http://www.w3.org/2000/svg" viewBox="0 0 80 80"><defs><style>.cls-1,.cls-4{opacity:0.6;}.cls-2{fill:#fff;}.cls-3,.cls-4{fill:none;}.cls-4{stroke:#fff;stroke-linecap:round;stroke-linejoin:round;stroke-width:0.75px;}</style></defs><title>ko</title><g id="Слой_2" data-name="Слой 2"><g id="Слой_1-2" data-name="Слой 1"><g class="cls-1"><path class="cls-2" d="M49.77,49.06a3.12,3.12,0,0,1-.7,2.17,2.93,2.93,0,0,1-4,0,3.15,3.15,0,0,1-.69-2.18,3.09,3.09,0,0,1,.7-2.17,2.57,2.57,0,0,1,2-.76,2.52,2.52,0,0,1,2,.77A3.12,3.12,0,0,1,49.77,49.06Zm-4.36,0a2.56,2.56,0,0,0,.43,1.6,1.73,1.73,0,0,0,2.52,0,3.24,3.24,0,0,0,0-3.2,1.48,1.48,0,0,0-1.25-.54,1.52,1.52,0,0,0-1.27.54A2.54,2.54,0,0,0,45.41,49.06Z"/></g><rect class="cls-3" width="80" height="80"/><g class="cls-1"><path class="cls-2" d="M35.46,27.53H33.7l-2.91-4.2-.9.73v3.47H28.37V18.25h1.52v4.43q.62-.76,1.24-1.47l2.51-3h1.73q-2.43,2.86-3.49,4.07Z"/></g><polyline class="cls-4" points="22.84 29.55 19 22.89 25.46 11.71 38.37 11.71 44.83 22.89 38.37 34.08 30.07 34.08"/><line class="cls-4" x1="42.02" y1="40.34" x2="38.41" y2="34.08"/><polygon class="cls-4" points="50.92 42.43 43.26 42.43 39.43 49.06 43.26 55.7 50.92 55.7 54.75 49.06 50.92 42.43"/></g></g></svg>