<svg xmlns="http://www.w3.org/2000/svg" viewBox="0 0 80 80"><defs><style>.cls-1,.cls-3,.cls-4{fill:none;}.cls-2{fill:#345f46;}.cls-2,.cls-3{opacity:0.4;}.cls-3{stroke:#345f46;}.cls-3,.cls-4{stroke-miterlimit:10;}.cls-4{stroke:#6cf0a9;}.cls-5{fill:#6cf0a9;}</style>
<filter id="shadow-normal" x="0%" y="0%" width="100%" height="100%">
  <feDropShadow dx="0" dy="0" stdDeviation="5" flood-color="rgba(108, 240, 169, 0.25)" flood-opacity="1" />
</filter>
</defs><title>lemergium</title><g class="shadow" style="filter: url(#shadow-normal);"><rect class="cls-1" width="80" height="80"/><rect class="cls-2" x="11.36" y="64.34" width="2.85" height="2.85" transform="translate(50.25 10.22) rotate(45)"/><rect class="cls-2" x="61.3" y="26.27" width="2.85" height="2.85"/><path class="cls-3" d="M14.14,34.73a2.26,2.26,0,1,1,3.08,1"/><polyline class="cls-3" points="55.13 63.91 55.13 65.77 60.61 65.77 60.61 63.91 57.48 63.91"/><path class="cls-2" d="M58.38,49,44.56,60.4a53.14,53.14,0,0,1-7.88,1.37,52,52,0,0,1-7.76-1.37L15,49l21.7-25.71Z"/><path class="cls-2" d="M61.45,49,47.62,60.4a53.14,53.14,0,0,1-7.88,1.37A52,52,0,0,1,32,60.4L18,49l21.7-25.71Z"/><path class="cls-2" d="M51.24,49,43.1,60.4a20.07,20.07,0,0,1-4.63,1.37A19.66,19.66,0,0,1,33.9,60.4L25.7,49,38.47,23.27Z"/><path class="cls-4" d="M45.19,63s-4.62,1.66-6.46,1.66S32.36,63,32.36,63L20.93,44.42l17.8-26.93,17.8,26.93L51.91,52"/><path class="cls-5" d="M34.39,51.28V35.58h3.33v13h6.37v2.75Z"/></g></svg>