<?xml version="1.0"?>
<svg xmlns="http://www.w3.org/2000/svg" xmlns:xlink="http://www.w3.org/1999/xlink" viewBox="0 0 1600 200">
<defs>
    <style>
        .cls-1{fill:url(#gradient_53);}
        .cls-17,.cls-2,.cls-23,.cls-24,.cls-3,.cls-4,.cls-5,.cls-6{opacity:0.1;}
        .cls-2{fill:url(#gradient_19);}
        .cls-3{fill:url(#gradient_19-2);}
        .cls-4{fill:url(#gradient_19-3);}
        .cls-5{fill:url(#gradient_19-4);}
        .cls-6{fill:url(#gradient_19-5);}
        .cls-10,.cls-13,.cls-18,.cls-24,.cls-25,.cls-26,.cls-30,.cls-31,.cls-32,.cls-33,.cls-35,.cls-7{fill:none;}
        .cls-26,.cls-31,.cls-32,.cls-33,.cls-35,.cls-7{stroke:#8f9fc4;}
        .cls-10,.cls-26,.cls-31,.cls-32,.cls-35,.cls-7{stroke-linecap:round;stroke-linejoin:round;}
        .cls-11,.cls-15,.cls-7{opacity:0.4;}
        .cls-11,.cls-12,.cls-14,.cls-16,.cls-17,.cls-19,.cls-20,.cls-8,.cls-9{fill:#909fc4;}
        .cls-10,.cls-13,.cls-20,.cls-21,.cls-8,.cls-9{opacity:0.3;}
        .cls-9{font-size:6px;}
        .cls-19,.cls-20,.cls-9{font-family:MyriadPro-Regular, Myriad Pro;}
        .cls-10,.cls-13,.cls-18,.cls-24,.cls-25,.cls-30{stroke:#909fc4;}
        .cls-12,.cls-18,.cls-22,.cls-31,.cls-34{opacity:0.2;}
        .cls-13,.cls-18,.cls-24,.cls-25,.cls-30,.cls-33{stroke-miterlimit:10;}
        .cls-14,.cls-19{opacity:0.15;}
        .cls-19,.cls-20{font-size:5.35px;}
        .cls-25{opacity:0.06;}
        .cls-27{fill:#2c467e;}
        .cls-28{fill:#141414;}
        .cls-29,.cls-34{fill:#8f9fc4;}
        .cls-32{opacity:0.64;}
        .cls-35{stroke-width:0.75px;}
        .cls-36{fill:#1a1c22;}
    </style>
</defs>
<title>main-illustration</title>

    <!--  *** Left ***  -->
    <g id='robot-1'>
        <g class="cls-15">
            <circle class="cls-26" cx="459.66" cy="172.2" r="3.5"/>
            <circle class="cls-26" cx="425.48" cy="167.84" r="7.85"/>
            <path class="cls-26" d="M453.77,170.84c-1.3.06-2.6.08-3.87.08H437.48"/>
            <path class="cls-26" d="M433,141.78l10.46,16.54a1.64,1.64,0,0,0,1.34.73c6.25.1,18.67,1.18,24.42,1.75a1.65,1.65,0,0,1,1,2.81L464.94,169"/>
            <path class="cls-7" d="M408.74,152.06"/>
            <path class="cls-26" d="M414.28,165.42a18.82,18.82,0,0,1-5.15-9.5"/>
            <path class="cls-26" d="M434.22,135.27l11.13,16.27a8.77,8.77,0,0,0,6.49,3.79L468,156.71a8.77,8.77,0,0,0,8.93-5.56l1.86-4.79"/>
            <path class="cls-26" d="M425.2,148.43a8.41,8.41,0,1,0-13.67,0Z"/>
            <polyline class="cls-26" points="437.44 125.98 437.44 129.91 432.05 133.81 432.05 130.79"/>
            <path class="cls-26" d="M427.2,129.49h-5.91a12.6,12.6,0,0,0-12.6,12.6v11.33H431.9V136.75Z"/>
        </g>
        <circle class="cls-30" cx="437.44" cy="123.44" r="1.06"/>
        <circle class="cls-27" cx="417.17" cy="143.01" r="3.12"/>
        <circle class="cls-28" cx="417.17" cy="143.01" r="1.36"/>
        <circle class="cls-29" cx="416.88" cy="142.65" r="0.68"/>
    </g>
    
    <g id='robot-2'>
        <g class="cls-15">
            <path class="cls-26" d="M284.06,115.46l1.3,1c2.52.27,6.07,2.24,10,2.24s7.47-2,10-2.24l1.21-1"/>
            <path class="cls-26" d="M302.14,100.11H288.52a1.74,1.74,0,0,1-1.23-.51L284,96.29a1.74,1.74,0,0,1-.51-1.23V83.3a1.74,1.74,0,0,1,.51-1.23l2-2a1.74,1.74,0,0,1,1.23-.51h16.22a1.74,1.74,0,0,1,1.23.51l2,2a1.74,1.74,0,0,1,.51,1.23V95.06a1.74,1.74,0,0,1-.51,1.23l-3.31,3.31A1.74,1.74,0,0,1,302.14,100.11Z"/>
            <rect class="cls-26" x="292.85" y="77.03" width="5.05" height="0.81"/>
            <path class="cls-26" d="M306.56,114.26V103.19a.32.32,0,0,0-.41-.26,55.25,55.25,0,0,1-21.63,0,.32.32,0,0,0-.41.26v11.07"/>
            <path class="cls-26" d="M268,120a4.39,4.39,0,0,1,0-6.2c1.71-1.71,2.49-.71,4.2,1"/>
            <line class="cls-26" x1="272.23" y1="115.03" x2="270.82" y2="116.44"/>
            <path class="cls-26" d="M283.22,96.52h-1.41V91.67a1.41,1.41,0,0,1,1.41-1.41h0"/>
            <path class="cls-26" d="M307.44,90.26h0a1.41,1.41,0,0,1,1.41,1.41v4.85h-1.41"/>
            <path class="cls-26" d="M301.33,100.11a6,6,0,0,1-.39,2.12"/>
            <path class="cls-26" d="M289.71,102.23a6,6,0,0,1-.39-2.12"/>
            <polyline class="cls-26" points="271.23 113.39 276.76 105.94 280.66 107.62"/>
            <path class="cls-26" d="M319.45,120.25a4.39,4.39,0,0,0,1.85-5.92c-1.12-2.15-2.16-1.42-4.31-.3"/>
            <line class="cls-26" x1="316.92" y1="114.26" x2="317.85" y2="116.02"/>
            <polyline class="cls-26" points="317.37 113.39 315.83 106.94 309.93 107.62"/>
        </g>
        <path class="cls-26" d="M289.1,111.06a52,52,0,0,0,12.36,0"/>
        <circle class="cls-27" cx="295.29" cy="90.45" r="4.35"/>
        <circle class="cls-28" cx="295.29" cy="90.45" r="1.89"/>
        <circle class="cls-29" cx="294.88" cy="89.95" r="0.95"/>
    </g>
    
    <g id='carry'>
        <path class="cls-7" d="M336.06,157.08l-7.3,8.87a9,9,0,0,1-7,3.29H274.34a9,9,0,0,1-7-3.29l-7.3-8.87"/>
        <g class="cls-15">
            <circle class="cls-30" cx="298.77" cy="143.96" r="6.68"/>
            <path class="cls-16" d="M301.49,144a3.1,3.1,0,0,1-.7,2.18,3,3,0,0,1-4,0,3.11,3.11,0,0,1-.7-2.19,3.07,3.07,0,0,1,.71-2.18,2.64,2.64,0,0,1,2-.75,2.6,2.6,0,0,1,2,.76A3.11,3.11,0,0,1,301.49,144Zm-4.17,0a2.39,2.39,0,0,0,.36,1.44,1.27,1.27,0,0,0,1.09.48q1.45,0,1.45-1.93t-1.44-1.93a1.28,1.28,0,0,0-1.09.49A2.37,2.37,0,0,0,297.33,144Z"/>
        </g>
        <g class="cls-15">
            <circle class="cls-30" cx="292.09" cy="158.59" r="6.68"/>
            <path class="cls-16" d="M294.43,156.14v3.7a2.13,2.13,0,0,1-.28,1.11,1.85,1.85,0,0,1-.82.73,2.94,2.94,0,0,1-1.27.25,2.42,2.42,0,0,1-1.71-.56,2,2,0,0,1-.61-1.54v-3.68H291v3.5a1.46,1.46,0,0,0,.27,1,1.1,1.1,0,0,0,.88.31,1.08,1.08,0,0,0,.86-.31,1.48,1.48,0,0,0,.27-1v-3.49Z"/>
        </g>
        <g class="cls-15">
            <circle class="cls-30" cx="275.7" cy="158.59" r="6.68"/>
            <path class="cls-16" d="M274.24,161.52v-5.71h1.21v4.71h2.32v1Z"/>
        </g>
        <g class="cls-15">
            <circle class="cls-30" cx="306.99" cy="158.59" r="6.68"/>
            <path class="cls-16" d="M309.49,161.75h-1.37l-1.5-2.41-.51.37v2H304.9V156h1.21v2.61l.48-.67,1.55-1.94h1.34l-2,2.53Z"/>
        </g>
        <g class="cls-15">
            <circle class="cls-30" cx="322.42" cy="158.59" r="6.68"/>
            <path class="cls-16" d="M324.54,161.76h-4.25V161L323,157h-2.66v-1h4.1v.78l-2.73,3.93h2.81Z"/>
        </g>
        <g class="cls-15">
            <circle class="cls-30" cx="313.67" cy="143.96" r="6.68"/>
        </g>
        <g class="cls-15">
            <circle class="cls-30" cx="264.11" cy="147.73" r="6.68"/>
            <path class="cls-16" d="M266.5,150.64H265.3v-2.46H263v2.46h-1.21v-5.71H263v2.24h2.26v-2.24h1.21Z"/>
        </g>
        <polygon class="cls-16" points="316.34 146.9 314.96 146.9 313.63 144.74 312.3 146.9 311 146.9 312.9 143.95 311.12 141.19 312.46 141.19 313.69 143.24 314.9 141.19 316.2 141.19 314.41 144.02 316.34 146.9"/>
    </g>

    <g id='crane'>
        <g class="cls-15">
            <rect class="cls-26" x="174.21" y="105.72" width="20.19" height="76.85" rx="10.09" ry="10.09" transform="translate(212.71 376.4) rotate(-135)"/>
            <path class="cls-26" d="M199.43,122.44a4.65,4.65,0,1,0,6.58,0"/>
            <line class="cls-35" x1="204.85" y1="127.86" x2="200.45" y2="123.46"/>
            <path class="cls-26" d="M160.57,161.31a4.65,4.65,0,1,0,6.58,0"/>
            <line class="cls-35" x1="165.98" y1="166.72" x2="161.58" y2="162.32"/>
            <rect class="cls-26" x="132.1" y="61.36" width="14.86" height="56.56" rx="7.43" ry="7.43" transform="translate(91.66 248.43) rotate(-105.94)"/>
            <path class="cls-26" d="M157,81.09a3.42,3.42,0,1,0,4.23,2.35"/>
            <line class="cls-35" x1="158.57" y1="86.5" x2="157.31" y2="82.1"/>
            <path class="cls-26" d="M118.12,92.2a3.42,3.42,0,1,0,4.23,2.35"/>
            <line class="cls-35" x1="119.67" y1="97.61" x2="118.41" y2="93.21"/>
            <polygon class="cls-26" points="186.35 127.83 197.2 116.98 162.51 90.74 151.44 93.97 186.35 127.83"/>
            <path class="cls-26" d="M158.39,172.37c-4.21.74-17.69.8-17.69.8v3.13H184V174.6s-19.83.1-23.38-1"/>
            <polyline class="cls-26" points="115 113.55 119.04 102.78 121.52 102.51 124.42 113.55"/>
            <polyline class="cls-26" points="130.23 117.27 130.23 113.66 108.42 113.65 108.42 116.12"/>
            <path class="cls-26" d="M114.89,128.44s-10.27-2.4-10.27-7.69l7.52-2.14,21.35,2.14c0,4.95-10.67,7.36-10.67,7.36"/>
            <path class="cls-29" d="M114.19,128.14A4.85,4.85,0,0,0,119,133c1.43,0,2.28-1,3.17-2s1.68-1.6,1.68-2.85a4.85,4.85,0,1,0-9.69,0Z"/>
        </g>
        <path class="cls-36" d="M120.73,130.51h-1l-1.09-1.75-.37.27v1.48h-.88v-4.15h.88v1.9l.35-.49,1.12-1.41h1l-1.45,1.83Z"/>
        <circle class="cls-29" cx="157.96" cy="84.38" r="1.02" transform="translate(-17.1 46.62) rotate(-15.94)"/>
        <circle class="cls-29" cx="202.72" cy="125.73" r="1.38" transform="translate(-26.73 60.51) rotate(-15.94)"/>
        <circle class="cls-29" cx="163.85" cy="164.6" r="1.38" transform="translate(-38.9 51.33) rotate(-15.94)"/>
        <circle class="cls-29" cx="119.06" cy="95.41" r="1.02" transform="translate(-21.62 36.37) rotate(-15.94)"/>
    </g>

</svg>
