<svg xmlns="http://www.w3.org/2000/svg" viewBox="0 0 80 80"><defs><style>.cls-1,.cls-2{fill:none;}.cls-2{stroke:#fff;stroke-linecap:round;stroke-linejoin:round;stroke-width:0.75px;}.cls-2,.cls-3{opacity:0.6;}.cls-4{fill:#fff;}</style></defs><title>lh2o</title><g id="Слой_2" data-name="Слой 2"><g id="Слой_1-2" data-name="Слой 1"><rect class="cls-1" width="80" height="80"/><polyline class="cls-2" points="13.35 24.96 9.51 31.61 15.96 42.8 28.88 42.8 35.33 31.61 28.88 20.43 20.58 20.43"/><polygon class="cls-2" points="57.73 7.65 50.07 7.65 46.23 14.29 50.07 20.93 57.73 20.93 61.56 14.29 57.73 7.65"/><g class="cls-3"><path class="cls-4" d="M56.15,17.15h-.94V14.57H52.58v2.57h-.93V11.44h.93v2.34h2.63V11.44h.94Z"/></g><line class="cls-2" x1="32.56" y1="49.06" x2="28.95" y2="42.8"/><polyline class="cls-2" points="28.95 20.55 32.56 14.29 32.65 14.29 44.15 14.29"/><g class="cls-3"><path class="cls-4" d="M41.26,56.05a5.07,5.07,0,0,1-1.13,3.52,4.1,4.1,0,0,1-3.21,1.26,4.13,4.13,0,0,1-3.23-1.25A5.11,5.11,0,0,1,32.56,56a5,5,0,0,1,1.13-3.53,4.18,4.18,0,0,1,3.23-1.23,4.09,4.09,0,0,1,3.2,1.25A5.07,5.07,0,0,1,41.26,56.05Zm-7.08,0a4.16,4.16,0,0,0,.69,2.6,2.82,2.82,0,0,0,4.09,0,4.16,4.16,0,0,0,.69-2.61A4.18,4.18,0,0,0,39,53.46a2.41,2.41,0,0,0-2-.88,2.46,2.46,0,0,0-2.06.88A4.12,4.12,0,0,0,34.18,56.05Z"/><path class="cls-4" d="M50.57,60.71H49V56.52H44.77v4.18H43.25V51.43h1.52v3.8H49v-3.8h1.52Z"/></g><g class="cls-3"><path class="cls-4" d="M19.7,36.26V27h1.52v8h3.93v1.3Z"/></g></g></g></svg>