<svg xmlns="http://www.w3.org/2000/svg" viewBox="0 0 31.53 33.69"><defs><style>.cls-1{fill:#fff;}.cls-2,.cls-3{fill:#d4d4d4;}.cls-2{opacity:0.6;}.cls-3{opacity:0.4;}</style></defs><title>liquid</title><g id="Layer_2" data-name="Layer 2"><g id="Layer_2-2" data-name="Layer 2"><path class="cls-1" d="M31.37,13.34c-.47,2.88-.15,4.83-.85,6.17-.26.26-.66.9-1.36,1.69-1.22,1.38-2.77.85-4.45,1.62-2.18,1-4.64.88-7.2.55-2.25-.3-4.7,2-6.42.72-3.8-2.75-8.26-8-5.36-12.42C9.77,5.6,13.13-1.55,20.54.3,27.61,2.07,32.52,6.15,31.37,13.34Z"/><path class="cls-1" d="M6.89,19c3.63,6.34,1.48,9.1,1.7,10.43a1.73,1.73,0,0,0,2,1.4A1.54,1.54,0,0,0,12,29.07c-.08-.56-.32-1-.39-1.68-.17-1.52.43-1.84,1.48-1.85S14.92,26.77,15,28.3c0,1-.71,2.32-.74,2.95a2.52,2.52,0,0,0,2.65,2.44,2.51,2.51,0,0,0,2.63-2.46c0-1.25-.92-2.36-.93-3.19,0-1.53.84-2.76,1.89-2.78,1.72,0,1.27,2.32,1,3.73s.1,2.55,1.19,2.49c1.46-.08,1.8-1.41,1.15-3.2a3.43,3.43,0,0,1-.33-2.17c.2-1.16,1.29-2.34,2-2.2.47.09.27,1.33.05,2.27,0,.21-.21.59-.25.8a1.06,1.06,0,0,0,.66,1.24,1.19,1.19,0,0,0,1.38-.91,1.58,1.58,0,0,0,.05-.74L27.16,26a6.08,6.08,0,0,1,.41-3.17c.37-.85,1.71-1.69,2.17-2.16"/><path class="cls-2" d="M4.52,8.44a1.26,1.26,0,0,1-.29-.52,4.68,4.68,0,0,1,.83-1.13c.2-.2.27-.51.48-.61.48-.24,1.16-.43,1.19,0,0,.61.18,1.2-.54,1.79S4.86,8.83,4.52,8.44Z"/><path class="cls-3" d="M1.58,20.08a6.76,6.76,0,0,1,1.89-.55,5.8,5.8,0,0,1,1.9,2.09c.22.5,1,.71,1,1.21C6.23,24,5.7,25.52,4.44,25.48c-1.75-.05-3.65.17-4.19-1.57S0,20.75,1.58,20.08Z"/></g></g></svg>