<svg xmlns="http://www.w3.org/2000/svg" viewBox="0 0 80 80"><defs><style>.cls-1,.cls-4{opacity:0.6;}.cls-2{fill:#fff;}.cls-3,.cls-4{fill:none;}.cls-4{stroke:#fff;stroke-linecap:round;stroke-linejoin:round;stroke-width:0.75px;}</style></defs><title>lo</title><g id="Слой_2" data-name="Слой 2"><g id="Слой_1-2" data-name="Слой 1"><g class="cls-1"><path class="cls-2" d="M29.34,49.23a3.12,3.12,0,0,1-.7,2.17,2.52,2.52,0,0,1-2,.77,2.54,2.54,0,0,1-2-.77A3.15,3.15,0,0,1,24,49.22a3.09,3.09,0,0,1,.7-2.17,2.57,2.57,0,0,1,2-.76,2.52,2.52,0,0,1,2,.77A3.12,3.12,0,0,1,29.34,49.23Zm-4.36,0a2.56,2.56,0,0,0,.43,1.6,1.73,1.73,0,0,0,2.52,0,3.24,3.24,0,0,0,0-3.2,1.48,1.48,0,0,0-1.25-.54,1.52,1.52,0,0,0-1.27.54A2.54,2.54,0,0,0,25,49.23Z"/></g><rect class="cls-3" width="80" height="80"/><g class="cls-1"><path class="cls-2" d="M39.14,27.7V18.42h1.52v8h3.93v1.3Z"/></g><polyline class="cls-4" points="50.94 16.4 54.78 23.06 48.32 34.24 35.41 34.24 28.95 23.06 35.41 11.88 43.71 11.88"/><line class="cls-4" x1="31.73" y1="40.5" x2="35.34" y2="34.24"/><polygon class="cls-4" points="22.83 42.59 30.5 42.59 34.33 49.23 30.5 55.87 22.83 55.87 19 49.23 22.83 42.59"/></g></g></svg>