<svg xmlns="http://www.w3.org/2000/svg" viewBox="0 0 80 80"><defs><style>.cls-1,.cls-3,.cls-4{fill:none;}.cls-2{fill:#4c4c4c;}.cls-2,.cls-3{opacity:0.4;}.cls-3{stroke:#4c4c4c;}.cls-3,.cls-4{stroke-miterlimit:10;}.cls-4{stroke:#979797;}.cls-5{fill:#979797;}</style>
<filter id="shadow-normal" x="0%" y="0%" width="100%" height="100%">
  <feDropShadow dx="0" dy="0" stdDeviation="5" flood-color="rgba(151, 151, 151, 0.25)" flood-opacity="1" />
</filter>
</defs><title>oxygen</title><g class="shadow" style="filter: url(#shadow-normal);"><rect class="cls-1" width="80" height="80"/><rect class="cls-2" x="19.16" y="23.46" width="2.85" height="2.85" transform="translate(23.62 -7.26) rotate(45)"/><rect class="cls-2" x="64.92" y="54.17" width="2.85" height="2.85"/><path class="cls-3" d="M17.12,63.37a2.26,2.26,0,1,1-2.31,2.26"/><polyline class="cls-3" points="64.92 25.36 64.92 27.21 59.44 27.21 59.44 25.36 62.58 25.36"/><polygon class="cls-2" points="54.39 29.21 49.14 56.01 33.43 67.25 22.35 51.25 26.25 37.44 35.74 27.49 54.39 29.21"/><polygon class="cls-2" points="49.45 22.81 58.28 52.05 39.13 64.98 21.67 58.59 32.91 27.16 34.15 22.2 49.45 22.81"/><polygon class="cls-2" points="57.61 38.71 58.41 58.99 45.09 61.31 27.43 60.43 20.45 42.86 27.53 20.57 52.67 26.69 57.61 38.71"/><polyline class="cls-4" points="51.48 32.26 46.63 19.64 37.15 22.66 22.86 41.92 26.25 59.62 36.15 66.19 52.72 62.57 57.63 56.04 57.44 42.97"/><path class="cls-5" d="M48,43.66a8.52,8.52,0,0,1-1.93,6,7.17,7.17,0,0,1-5.54,2.09A7.17,7.17,0,0,1,35,49.66a8.55,8.55,0,0,1-1.93-6,8.44,8.44,0,0,1,1.94-6,7.25,7.25,0,0,1,5.56-2.07,7.15,7.15,0,0,1,5.54,2.08A8.55,8.55,0,0,1,48,43.66Zm-11.46,0a6.56,6.56,0,0,0,1,4,3.49,3.49,0,0,0,3,1.33q4,0,4-5.3t-4-5.31a3.52,3.52,0,0,0-3,1.34A6.53,6.53,0,0,0,36.58,43.66Z"/></g></svg>