<svg xmlns="http://www.w3.org/2000/svg" viewBox="0 0 74 84"><defs><style>.cls-1,.cls-2{fill:none;}.cls-2{stroke:#fff;stroke-linecap:round;stroke-linejoin:round;stroke-width:0.75px;opacity:0.3;}.cls-3{opacity:0.6;}.cls-4{fill:#fff;}</style></defs><title>oh</title><g id="Слой_2" data-name="Слой 2"><g id="Слой_1-2" data-name="Слой 1"><rect class="cls-1" width="74" height="84"/><polyline class="cls-2" points="15.73 15.52 9.92 15.5 5.01 23.94 9.86 32.42 19.63 32.45 24.54 24 21.42 18.56"/><polyline class="cls-2" points="26.27 25.29 32.09 25.31 37 16.86 32.14 8.39 22.38 8.36 17.47 16.8 20.59 22.25"/><g class="cls-3"><path class="cls-4" d="M29.49,19.69h-.94V17.11H25.91v2.57H25V14h.93v2.34h2.63V14h.94Z"/></g><g class="cls-3"><path class="cls-4" d="M17.45,24a3.12,3.12,0,0,1-.7,2.17,2.52,2.52,0,0,1-2,.77,2.54,2.54,0,0,1-2-.77A3.15,3.15,0,0,1,12.1,24a3.09,3.09,0,0,1,.7-2.17,2.57,2.57,0,0,1,2-.76,2.52,2.52,0,0,1,2,.77A3.12,3.12,0,0,1,17.45,24Zm-4.36,0a2.56,2.56,0,0,0,.43,1.6,1.5,1.5,0,0,0,1.26.54A1.5,1.5,0,0,0,16,25.58,2.57,2.57,0,0,0,16.46,24,2.57,2.57,0,0,0,16,22.38a1.48,1.48,0,0,0-1.25-.54,1.52,1.52,0,0,0-1.27.54A2.54,2.54,0,0,0,13.09,24Z"/></g></g></g></svg>