<svg xmlns="http://www.w3.org/2000/svg" viewBox="-2 -2 52 52">
	
	<defs>
		<style>
		
		.cls-3{fill:#f4e383;}
		.cls-4{fill:#cc3d3e;}
		</style>
	
		<filter id="shadow-normal" x="-20%" y="-20%" width="150%" height="150%">
  			<feDropShadow dx="0" dy="0" stdDeviation="4" flood-color="rgba(251, 230, 121, 0.40)" flood-opacity="1" />
		</filter>
		
	</defs>
	<g style="filter: url(#shadow-normal)">
		
		<g class="cls-2">
			<path class="cls-3" d="M15.17,16.91c-.2.34-1.17.33-1.17.33s.18-1.2.55-1.24S15.31,16.64,15.17,16.91Z"/><path class="cls-4" d="M45.33,33.17C45,33,45,32,45,32s1.2.17,1.25.54S45.6,33.33,45.33,33.17Z"/><path class="cls-4" d="M34.07,41.54c-.06.29-1.07.28-1.07.28s.13-.66.39-.79S34.12,41.3,34.07,41.54Z"/><path class="cls-3" d="M39.07,45.53c-.06.29-1.07.28-1.07.28s.13-.66.39-.79S39.11,45.34,39.07,45.53Z"/><path class="cls-4" d="M7.07,16.54C7,16.83,6,16.82,6,16.82s.13-.66.39-.79S7.12,16.3,7.07,16.54Z"/><path class="cls-3" d="M42.29,37.47C42,38,40,37.28,40,37.28s.73-1.21,1.29-1.28S42.55,37,42.29,37.47Z"/><path class="cls-4" d="M7.09,21.84c0,.62-2.09,1-2.09,1s0-1.4.52-1.74S7.1,21.34,7.09,21.84Z"/><path class="cls-3" d="M15.81,7c.68-.09,1,1.84,1,1.84s-1.18.5-1.64,0A1.35,1.35,0,0,1,15.81,7Z"/>
		</g>
	
		<g>
			<path class="cls-4" d="M29,35a4,4,0,1,1-4-4,4,4,0,0,1,4,4"/><path class="cls-3"  d="M29,25a4,4,0,1,1-4-4,4,4,0,0,1,4,4"/><path class="cls-4" d="M29,14a4,4,0,1,1-4-4,4,4,0,0,1,4,4"/><path class="cls-4" d="M39,25a4,4,0,1,1-4-4,4,4,0,0,1,4,4"/><path class="cls-4" d="M39,14a4,4,0,1,1-4-4,4,4,0,0,1,4,4"/><path class="cls-3"  d="M18,35a4,4,0,1,1-4-4,4,4,0,0,1,4,4"/><path class="cls-4" d="M18,25a4,4,0,1,1-4-4,4,4,0,0,1,4,4"/>
		</g>
		
	</g>
</svg>