<svg width="16" height="16" viewBox="0 0 12 16" fill="none" xmlns="http://www.w3.org/2000/svg">
<path opacity="0.3" d="M10.1353 8.1131L12.0001 10.9408V5.30566L10.1353 8.1131Z" fill="#CCBC30"/>
<path opacity="0.6" d="M6 0.804688L12 5.1932L10.5 7.36212L6 0.804688Z" fill="#CCBC30"/>
<path opacity="0.6" d="M6 15.43L12 11.0313L10.5 8.91309L6 15.43Z" fill="#CCBC30"/>
<path opacity="0.3" fill-rule="evenodd" clip-rule="evenodd" d="M7.47962 10.0078L7.87489 10.5551H7.09448L7.47962 10.0078Z" fill="#CCBC30"/>
<path opacity="0.3" fill-rule="evenodd" clip-rule="evenodd" d="M4.85473 10.5551H4.125L4.51013 10.0078L4.85473 10.5551Z" fill="#CCBC30"/>
<path opacity="0.3" d="M6 13.8789L6.75 12.3789L6 12.7032L5.25 12.3789L6 13.8789Z" fill="#CCBC30"/>
<path opacity="0.9" fill-rule="evenodd" clip-rule="evenodd" d="M8.54392 8.30566L7.53041 10.0084L7.92568 10.5557H7.09459L5.95946 12.38L4.85473 10.5557H4.125L4.51014 10.0084L3.44595 8.30566H1.875L6 15.4003L10.1351 8.30566H8.54392ZM6 13.88L5.25 12.38L6 12.7043L6.75 12.38L6 13.88Z" fill="#CCBC30"/>
<path opacity="0.3" fill-rule="evenodd" clip-rule="evenodd" d="M4.51013 6.22698L4.125 5.67969H4.85473L4.51013 6.22698Z" fill="#CCBC30"/>
<path opacity="0.3" fill-rule="evenodd" clip-rule="evenodd" d="M7.09448 5.67969H7.83435L7.43908 6.22698L7.09448 5.67969Z" fill="#CCBC30"/>
<path opacity="0.3" d="M6 2.35547L5.25 3.84533L6 3.51087L6.75 3.84533L6 2.35547Z" fill="#CCBC30"/>
<path opacity="0.9" fill-rule="evenodd" clip-rule="evenodd" d="M3.44595 7.89928L4.51014 6.22698L4.125 5.67969H4.85473L6 3.84523L7.09459 5.67969H7.83446L7.43919 6.22698L8.54392 7.89928H10.1351L6 0.804688L1.875 7.89928H3.44595ZM6 2.32496L6.75 3.84523L6 3.51077L5.25 3.84523L6 2.32496Z" fill="#CCBC30"/>
<path opacity="0.3" d="M0 5.30566V10.9408L1.875 8.1131L0 5.30566Z" fill="#CCBC30"/>
<path opacity="0.6" d="M1.5 7.36212L0 5.1932L6 0.804688L1.5 7.36212Z" fill="#CCBC30"/>
<path opacity="0.6" d="M1.5 8.91309L0 11.0313L6 15.43L1.5 8.91309Z" fill="#CCBC30"/>
<path fill-rule="evenodd" clip-rule="evenodd" d="M6.00007 5.87305L4.6521 8.11291L6.00007 10.3629L7.34805 8.11291L6.00007 5.87305Z" fill="#CCBC30"/>
</svg>
