<svg width="16" height="16" viewBox="20 4 12 12" fill="none" xmlns="http://www.w3.org/2000/svg">
<g filter="url(#filter0_d)">
<path fill-rule="evenodd" clip-rule="evenodd" d="M23.6316 5.7373V6.85324V5.7373Z" fill="#47B165"/>
<path d="M23.6316 5.7373V6.85324" stroke="#47B165" stroke-width="2" stroke-linecap="round" stroke-linejoin="round"/>
<g opacity="0.6">
<path fill-rule="evenodd" clip-rule="evenodd" d="M27.4602 5.17383V6.56875V5.17383Z" fill="#47B165"/>
<path d="M27.4602 5.17383V6.56875" stroke="#47B165" stroke-linecap="round" stroke-linejoin="round"/>
</g>
<g opacity="0.6">
<path fill-rule="evenodd" clip-rule="evenodd" d="M28.2971 15.2169V12.7061V15.2169Z" fill="#47B165"/>
<path d="M28.2971 15.2169V12.7061" stroke="#47B165" stroke-linecap="round" stroke-linejoin="round"/>
</g>
<g opacity="0.6">
<path fill-rule="evenodd" clip-rule="evenodd" d="M21.6016 11.3115H22.1595H21.6016Z" fill="#47B165"/>
<path d="M21.6016 11.3115H22.1595" stroke="#47B165" stroke-width="2" stroke-linecap="round" stroke-linejoin="round"/>
</g>
<path fill-rule="evenodd" clip-rule="evenodd" d="M25.7864 12.1488V10.7539V12.1488Z" fill="#47B165"/>
<path d="M25.7864 12.1488V10.7539" stroke="#47B165" stroke-width="2" stroke-linecap="round" stroke-linejoin="round"/>
<path fill-rule="evenodd" clip-rule="evenodd" d="M28.2972 7.12703C28.2972 7.58923 27.9225 7.96394 27.4603 7.96394C26.998 7.96394 26.6233 7.58923 26.6233 7.12703C26.6233 6.66476 26.998 6.29004 27.4603 6.29004C27.9225 6.29004 28.2972 6.66476 28.2972 7.12703Z" fill="#47B165"/>
<path opacity="0.66" fill-rule="evenodd" clip-rule="evenodd" d="M28.8551 10.4743C28.5469 10.4743 28.2971 10.2246 28.2971 9.91637C28.2971 9.60824 28.5469 9.3584 28.8551 9.3584C29.1632 9.3584 29.4131 9.60824 29.4131 9.91637C29.4131 10.2246 29.1632 10.4743 28.8551 10.4743Z" fill="#47B165"/>
<path fill-rule="evenodd" clip-rule="evenodd" d="M27.7393 12.4271C27.7393 12.119 27.9891 11.8691 28.2972 11.8691C28.6054 11.8691 28.8552 12.119 28.8552 12.4271C28.8552 12.7352 28.6054 12.9851 28.2972 12.9851C27.9891 12.9851 27.7393 12.7352 27.7393 12.4271Z" fill="#47B165"/>
<path fill-rule="evenodd" clip-rule="evenodd" d="M23.5545 10.7539C23.8627 10.7539 24.1125 11.0037 24.1125 11.312C24.1125 11.6201 23.8627 11.8698 23.5545 11.8698C23.2464 11.8698 22.9966 11.6201 22.9966 11.312C22.9966 11.0037 23.2464 10.7539 23.5545 10.7539Z" fill="#47B165"/>
<path fill-rule="evenodd" clip-rule="evenodd" d="M25.2283 9.138C25.2283 8.8299 25.4781 8.58008 25.7862 8.58008C26.0944 8.58008 26.3442 8.8299 26.3442 9.138C26.3442 9.4461 26.0944 9.69601 25.7862 9.69601C25.4781 9.69601 25.2283 9.4461 25.2283 9.138Z" fill="#47B165"/>
<path fill-rule="evenodd" clip-rule="evenodd" d="M30.8079 9.91699H29.134H30.8079Z" fill="#47B165"/>
<path d="M30.8079 9.91699H29.134" stroke="#47B165" stroke-linecap="round" stroke-linejoin="round"/>
<path opacity="0.2" d="M22.3271 12.9666L22.2262 13.0784L22.3385 13.1789L22.5851 13.3994L22.3389 13.6181L22.2253 13.719L22.3276 13.8313L22.4013 13.9123L22.5017 14.0225L22.6126 13.9228L23.0714 13.5098L23.1953 13.3983L23.0714 13.2868L22.6126 12.8739L22.5012 12.7736L22.4009 12.8849L22.3271 12.9666ZM23.8334 14.2513H23.9834V14.1013V13.9953V13.8453H23.8334H23.0646H22.9146V13.9953V14.1013V14.2513H23.0646H23.8334Z" fill="#47B165" stroke="#47B165" stroke-width="0.3"/>
<path opacity="0.3" d="M25.5218 7.03526C25.5041 7.01565 25.4825 7.00102 25.4578 6.99144C25.4334 6.98197 25.4072 6.9777 25.3798 6.9777C25.3613 6.9777 25.3433 6.97991 25.326 6.98455L25.5748 6.60331L25.6252 6.52599L25.3155 7.34319C25.2981 7.33629 25.283 7.32612 25.2703 7.31268C25.2579 7.29924 25.2483 7.28253 25.2414 7.26255C25.2348 7.24221 25.2316 7.21896 25.2316 7.1928C25.2316 7.16956 25.235 7.14794 25.2419 7.12796M25.5218 7.03526C25.5398 7.05455 25.5528 7.07764 25.5612 7.1033M25.5218 7.03526C25.5216 7.03509 25.5214 7.03492 25.5213 7.03475L25.485 7.06911L25.5222 7.03577C25.5221 7.0356 25.5219 7.03543 25.5218 7.03526ZM25.5612 7.1033C25.5613 7.10343 25.5613 7.10356 25.5614 7.10369L25.5138 7.11924L25.5611 7.10292C25.5611 7.10305 25.5612 7.10318 25.5612 7.1033ZM25.5612 7.1033C25.5702 7.12951 25.5742 7.15815 25.5742 7.18844C25.5742 7.21724 25.5697 7.24489 25.5603 7.27092L25.5133 7.25383L25.5605 7.27016C25.5517 7.29574 25.5386 7.31885 25.5211 7.33887M25.5211 7.33887C25.5212 7.33878 25.5213 7.33869 25.5213 7.3386L25.4833 7.30614L25.5209 7.33913C25.521 7.33905 25.521 7.33896 25.5211 7.33887ZM25.5211 7.33887C25.5035 7.35946 25.4819 7.37537 25.457 7.38659L25.4365 7.34101L25.4574 7.38644C25.4319 7.39817 25.4042 7.40355 25.3754 7.40355C25.3481 7.40355 25.3218 7.39928 25.2974 7.38981L25.2971 7.38969L25.2971 7.38968C25.273 7.38013 25.2517 7.36586 25.2339 7.34704L25.2334 7.34651L25.2334 7.34651C25.2158 7.32728 25.2029 7.30433 25.1941 7.27888L25.1938 7.27785L25.1938 7.27785C25.1865 7.25532 25.1827 7.23108 25.1818 7.20555M25.1818 7.20555L25.1901 7.1928L25.2342 7.12532L25.2419 7.12796M25.1818 7.20555L25.0724 7.37324L25.0576 7.39592H25.0305H24.9412H24.8489L24.8993 7.31864L25.1474 6.93746M25.1818 7.20555L25.1474 6.93746M25.2419 7.12796C25.2488 7.10762 25.2586 7.09 25.2714 7.07511C25.2844 7.06021 25.3001 7.04859 25.3182 7.04023L25.2342 7.12529L25.2419 7.12796ZM25.316 7.15357C25.3131 7.16483 25.3117 7.17718 25.3117 7.19062C25.3117 7.22259 25.3175 7.2462 25.3291 7.26146C25.3407 7.27672 25.3569 7.28435 25.3776 7.28435C25.3881 7.28435 25.3974 7.28198 25.4054 7.27726C25.4138 7.27254 25.4208 7.266 25.4266 7.25765C25.4325 7.24929 25.4368 7.23948 25.4397 7.22822L25.316 7.15357ZM25.316 7.15357C25.3189 7.14195 25.3231 7.13196 25.3286 7.1236L25.316 7.15357ZM25.1474 6.93746C25.1573 6.93482 25.1669 6.93138 25.1762 6.9271L25.1762 6.9271L25.1766 6.92691C25.201 6.91544 25.2223 6.89975 25.2398 6.87972L25.2049 6.8492M25.1474 6.93746L25.2022 6.8468L25.2049 6.8492M25.1474 6.93746C25.1304 6.94204 25.1126 6.9442 25.0943 6.9442C25.0669 6.9442 25.0407 6.93993 25.0163 6.93047L25.0159 6.93034L25.0159 6.93034C24.9918 6.92079 24.9706 6.90651 24.9528 6.8877L24.9518 6.88669L24.9518 6.88668C24.9345 6.86727 24.9217 6.84437 24.913 6.81899L24.9127 6.81822L24.9127 6.81821C24.9042 6.79216 24.9004 6.76366 24.9004 6.73346C24.9004 6.70521 24.9046 6.67802 24.9135 6.65229L24.9608 6.66862L25.1474 6.93746ZM25.2049 6.8492L25.239 6.79686L25.239 6.79682L25.2834 6.72856L25.2922 6.71511C25.2924 6.71955 25.2925 6.72404 25.2925 6.72856C25.2925 6.75709 25.2883 6.78455 25.2795 6.81055L25.2794 6.81082C25.2705 6.83651 25.2574 6.8597 25.2397 6.87979L25.2049 6.84921L25.2049 6.8492ZM25.0833 6.70672L25.0833 6.70672C25.0816 6.71333 25.0805 6.72142 25.0805 6.73128C25.0805 6.75896 25.0859 6.76939 25.0877 6.77182C25.089 6.77354 25.0898 6.77392 25.0901 6.77406C25.0906 6.77427 25.0923 6.775 25.0964 6.775C25.0979 6.775 25.0986 6.77486 25.099 6.77478L25.0996 6.77438L25.0996 6.77439C25.1007 6.77377 25.1018 6.77291 25.1031 6.77099L25.1039 6.76974L25.1039 6.76975C25.1059 6.76691 25.108 6.76271 25.1096 6.75639L25.0833 6.70672ZM25.0833 6.70672L25.0834 6.70636M25.0833 6.70672L25.0834 6.70636M25.0834 6.70636C25.0851 6.69958 25.0871 6.69509 25.0889 6.69219L25.0834 6.70636ZM25.3645 7.16607L25.3645 7.16607C25.3627 7.17267 25.3617 7.18076 25.3617 7.19062C25.3617 7.2183 25.367 7.22873 25.3689 7.23116C25.3702 7.23289 25.371 7.23326 25.3713 7.23341C25.3717 7.23361 25.3735 7.23435 25.3776 7.23435C25.379 7.23435 25.3798 7.2342 25.3801 7.23412L25.3645 7.16607ZM25.3645 7.16607L25.3645 7.1657M25.3645 7.16607L25.3645 7.1657M25.3645 7.1657C25.3662 7.15892 25.3683 7.15444 25.3701 7.15154L25.3645 7.1657ZM24.8524 7.32989L24.8908 7.29113L24.8489 7.25625L24.5984 7.04808L24.8487 6.84238L24.8909 6.80769L24.8526 6.76872L24.7932 6.70824L24.7609 6.67533L24.7255 6.70489L24.3593 7.01057L24.3133 7.04895L24.3593 7.08734L24.7255 7.39302L24.7607 7.42244L24.793 7.38983L24.8524 7.32989ZM25.2795 6.64342C25.271 6.61765 25.258 6.59447 25.2398 6.57513C25.2221 6.55592 25.2006 6.54159 25.1761 6.53209L25.2795 6.64342ZM25.6218 6.76888L25.5841 6.80768L25.6258 6.84224L25.8762 7.04991L25.6259 7.25611L25.5838 7.2908L25.622 7.32973L25.6809 7.38967L25.7132 7.42258L25.7486 7.39302L26.1147 7.08734L26.1607 7.04895L26.1147 7.01057L25.7486 6.70489L25.713 6.67519L25.6807 6.7084L25.6218 6.76888Z" fill="#47B165" stroke="#47B165" stroke-width="0.1"/>
<path opacity="0.2" d="M27.0098 11.4868L27.0274 11.4699L27.0009 11.5299L26.9077 11.7405H27.138H27.2574H27.3551L27.3946 11.6512L27.8879 10.5353L27.981 10.3246H27.7507H27.6313H27.5336L27.4941 10.414L27.0883 11.332L26.999 11.2612L26.7563 11.0689L26.9983 10.8792L27.1336 10.7732L27.0103 10.6535L26.9319 10.5774L26.8372 10.4855L26.734 10.5677L26.2508 10.9522L26.1034 11.0696L26.2508 11.187L26.734 11.5715L26.8368 11.6533L26.9314 11.5622L27.0098 11.4868ZM27.9103 10.654L27.7886 10.7732L27.9222 10.8788L28.1648 11.0706L27.9226 11.2608L27.7876 11.3668L27.9108 11.4864L27.9884 11.5618L28.0831 11.6537L28.1863 11.5715L28.6695 11.187L28.817 11.0696L28.6695 10.9522L28.1863 10.5677L28.0826 10.4851L27.9879 10.5779L27.9103 10.654Z" fill="#47B165" stroke="#47B165" stroke-width="0.3"/>
<g opacity="0.2">
<mask id="path-21-outside-1" maskUnits="userSpaceOnUse" x="20.6016" y="8.08008" width="4" height="3" fill="black">
<rect fill="white" x="20.6016" y="8.08008" width="4" height="3"/>
<path d="M21.8702 10.0925H21.6016V9.08008H21.8702V9.15636H21.692V10.0162H21.8702V10.0925Z"/>
<path d="M22.3295 9.69744C22.3419 9.69744 22.3535 9.6998 22.3644 9.70452C22.3757 9.70924 22.3853 9.71578 22.3933 9.72414C22.4016 9.73249 22.4082 9.7423 22.4129 9.75356C22.4176 9.76446 22.42 9.77627 22.42 9.78898C22.42 9.80133 22.4176 9.81296 22.4129 9.82385C22.4082 9.83475 22.4016 9.84438 22.3933 9.85273C22.3853 9.86072 22.3757 9.86708 22.3644 9.8718C22.3535 9.87653 22.3419 9.87889 22.3295 9.87889C22.3168 9.87889 22.305 9.87653 22.2941 9.8718C22.2832 9.86708 22.2736 9.86072 22.2652 9.85273C22.2572 9.84438 22.2509 9.83475 22.2462 9.82385C22.2414 9.81296 22.2391 9.80133 22.2391 9.78898C22.2391 9.77627 22.2414 9.76446 22.2462 9.75356C22.2509 9.7423 22.2572 9.73249 22.2652 9.72414C22.2736 9.71578 22.2832 9.70924 22.2941 9.70452C22.305 9.6998 22.3168 9.69744 22.3295 9.69744Z"/>
<path d="M22.9431 9.69744C22.9554 9.69744 22.9671 9.6998 22.978 9.70452C22.9892 9.70924 22.9988 9.71578 23.0068 9.72414C23.0152 9.73249 23.0217 9.7423 23.0264 9.75356C23.0312 9.76446 23.0335 9.77627 23.0335 9.78898C23.0335 9.80133 23.0312 9.81296 23.0264 9.82385C23.0217 9.83475 23.0152 9.84438 23.0068 9.85273C22.9988 9.86072 22.9892 9.86708 22.978 9.8718C22.9671 9.87653 22.9554 9.87889 22.9431 9.87889C22.9304 9.87889 22.9186 9.87653 22.9077 9.8718C22.8968 9.86708 22.8871 9.86072 22.8788 9.85273C22.8708 9.84438 22.8644 9.83475 22.8597 9.82385C22.855 9.81296 22.8526 9.80133 22.8526 9.78898C22.8526 9.77627 22.855 9.76446 22.8597 9.75356C22.8644 9.7423 22.8708 9.73249 22.8788 9.72414C22.8871 9.71578 22.8968 9.70924 22.9077 9.70452C22.9186 9.6998 22.9304 9.69744 22.9431 9.69744Z"/>
<path d="M23.5566 9.69744C23.569 9.69744 23.5806 9.6998 23.5915 9.70452C23.6028 9.70924 23.6124 9.71578 23.6204 9.72414C23.6287 9.73249 23.6353 9.7423 23.64 9.75356C23.6447 9.76446 23.6471 9.77627 23.6471 9.78898C23.6471 9.80133 23.6447 9.81296 23.64 9.82385C23.6353 9.83475 23.6287 9.84438 23.6204 9.85273C23.6124 9.86072 23.6028 9.86708 23.5915 9.8718C23.5806 9.87653 23.569 9.87889 23.5566 9.87889C23.5439 9.87889 23.5321 9.87653 23.5212 9.8718C23.5103 9.86708 23.5007 9.86072 23.4923 9.85273C23.4843 9.84438 23.478 9.83475 23.4733 9.82385C23.4685 9.81296 23.4662 9.80133 23.4662 9.78898C23.4662 9.77627 23.4685 9.76446 23.4733 9.75356C23.478 9.7423 23.4843 9.73249 23.4923 9.72414C23.5007 9.71578 23.5103 9.70924 23.5212 9.70452C23.5321 9.6998 23.5439 9.69744 23.5566 9.69744Z"/>
<path d="M24.2933 10.0925H24.0247V10.0162H24.2018V9.15636H24.0247V9.08008H24.2933V10.0925Z"/>
</mask>
<path d="M21.8702 10.0925H21.6016V9.08008H21.8702V9.15636H21.692V10.0162H21.8702V10.0925Z" fill="#47B165"/>
<path d="M22.3295 9.69744C22.3419 9.69744 22.3535 9.6998 22.3644 9.70452C22.3757 9.70924 22.3853 9.71578 22.3933 9.72414C22.4016 9.73249 22.4082 9.7423 22.4129 9.75356C22.4176 9.76446 22.42 9.77627 22.42 9.78898C22.42 9.80133 22.4176 9.81296 22.4129 9.82385C22.4082 9.83475 22.4016 9.84438 22.3933 9.85273C22.3853 9.86072 22.3757 9.86708 22.3644 9.8718C22.3535 9.87653 22.3419 9.87889 22.3295 9.87889C22.3168 9.87889 22.305 9.87653 22.2941 9.8718C22.2832 9.86708 22.2736 9.86072 22.2652 9.85273C22.2572 9.84438 22.2509 9.83475 22.2462 9.82385C22.2414 9.81296 22.2391 9.80133 22.2391 9.78898C22.2391 9.77627 22.2414 9.76446 22.2462 9.75356C22.2509 9.7423 22.2572 9.73249 22.2652 9.72414C22.2736 9.71578 22.2832 9.70924 22.2941 9.70452C22.305 9.6998 22.3168 9.69744 22.3295 9.69744Z" fill="#47B165"/>
<path d="M22.9431 9.69744C22.9554 9.69744 22.9671 9.6998 22.978 9.70452C22.9892 9.70924 22.9988 9.71578 23.0068 9.72414C23.0152 9.73249 23.0217 9.7423 23.0264 9.75356C23.0312 9.76446 23.0335 9.77627 23.0335 9.78898C23.0335 9.80133 23.0312 9.81296 23.0264 9.82385C23.0217 9.83475 23.0152 9.84438 23.0068 9.85273C22.9988 9.86072 22.9892 9.86708 22.978 9.8718C22.9671 9.87653 22.9554 9.87889 22.9431 9.87889C22.9304 9.87889 22.9186 9.87653 22.9077 9.8718C22.8968 9.86708 22.8871 9.86072 22.8788 9.85273C22.8708 9.84438 22.8644 9.83475 22.8597 9.82385C22.855 9.81296 22.8526 9.80133 22.8526 9.78898C22.8526 9.77627 22.855 9.76446 22.8597 9.75356C22.8644 9.7423 22.8708 9.73249 22.8788 9.72414C22.8871 9.71578 22.8968 9.70924 22.9077 9.70452C22.9186 9.6998 22.9304 9.69744 22.9431 9.69744Z" fill="#47B165"/>
<path d="M23.5566 9.69744C23.569 9.69744 23.5806 9.6998 23.5915 9.70452C23.6028 9.70924 23.6124 9.71578 23.6204 9.72414C23.6287 9.73249 23.6353 9.7423 23.64 9.75356C23.6447 9.76446 23.6471 9.77627 23.6471 9.78898C23.6471 9.80133 23.6447 9.81296 23.64 9.82385C23.6353 9.83475 23.6287 9.84438 23.6204 9.85273C23.6124 9.86072 23.6028 9.86708 23.5915 9.8718C23.5806 9.87653 23.569 9.87889 23.5566 9.87889C23.5439 9.87889 23.5321 9.87653 23.5212 9.8718C23.5103 9.86708 23.5007 9.86072 23.4923 9.85273C23.4843 9.84438 23.478 9.83475 23.4733 9.82385C23.4685 9.81296 23.4662 9.80133 23.4662 9.78898C23.4662 9.77627 23.4685 9.76446 23.4733 9.75356C23.478 9.7423 23.4843 9.73249 23.4923 9.72414C23.5007 9.71578 23.5103 9.70924 23.5212 9.70452C23.5321 9.6998 23.5439 9.69744 23.5566 9.69744Z" fill="#47B165"/>
<path d="M24.2933 10.0925H24.0247V10.0162H24.2018V9.15636H24.0247V9.08008H24.2933V10.0925Z" fill="#47B165"/>
<path d="M21.8702 10.0925V10.2925H22.0702V10.0925H21.8702ZM21.6016 10.0925H21.4016V10.2925H21.6016V10.0925ZM21.6016 9.08008V8.88008H21.4016V9.08008H21.6016ZM21.8702 9.08008H22.0702V8.88008H21.8702V9.08008ZM21.8702 9.15636V9.35636H22.0702V9.15636H21.8702ZM21.692 9.15636V8.95636H21.492V9.15636H21.692ZM21.692 10.0162H21.492V10.2162H21.692V10.0162ZM21.8702 10.0162H22.0702V9.8162H21.8702V10.0162ZM22.3644 9.70452L22.2849 9.88805L22.2871 9.88896L22.3644 9.70452ZM22.3933 9.72414L22.2487 9.86242L22.2519 9.86556L22.3933 9.72414ZM22.4129 9.75356L22.2285 9.83091L22.2294 9.83308L22.4129 9.75356ZM22.3933 9.85273L22.2519 9.71131L22.3933 9.85273ZM22.3644 9.8718L22.2871 9.68735L22.2849 9.68829L22.3644 9.8718ZM22.2652 9.85273L22.1206 9.99111L22.127 9.99726L22.2652 9.85273ZM22.2462 9.75356L22.4297 9.83309L22.4306 9.83091L22.2462 9.75356ZM22.2652 9.72414L22.1238 9.58268L22.1207 9.58589L22.2652 9.72414ZM22.978 9.70452L22.8984 9.88805L22.9006 9.88896L22.978 9.70452ZM23.0068 9.72414L22.8623 9.86242L22.8654 9.86556L23.0068 9.72414ZM23.0264 9.75356L22.842 9.83091L22.8429 9.83308L23.0264 9.75356ZM23.0068 9.85273L22.8654 9.71131L23.0068 9.85273ZM22.978 9.8718L22.9006 9.68735L22.8984 9.68829L22.978 9.8718ZM22.8788 9.85273L22.7341 9.99111L22.7405 9.99726L22.8788 9.85273ZM22.8597 9.75356L23.0432 9.83309L23.0442 9.83091L22.8597 9.75356ZM22.8788 9.72414L22.7373 9.58268L22.7343 9.58589L22.8788 9.72414ZM23.5915 9.70452L23.512 9.88805L23.5142 9.88896L23.5915 9.70452ZM23.6204 9.72414L23.4758 9.86242L23.479 9.86556L23.6204 9.72414ZM23.64 9.75356L23.4555 9.83091L23.4565 9.83308L23.64 9.75356ZM23.6204 9.85273L23.479 9.71131L23.6204 9.85273ZM23.5915 9.8718L23.5141 9.68735L23.512 9.68829L23.5915 9.8718ZM23.4923 9.85273L23.3477 9.99111L23.3541 9.99726L23.4923 9.85273ZM23.4733 9.75356L23.6568 9.83309L23.6577 9.83091L23.4733 9.75356ZM23.4923 9.72414L23.3509 9.58268L23.3478 9.58589L23.4923 9.72414ZM24.2933 10.0925V10.2925H24.4933V10.0925H24.2933ZM24.0247 10.0925H23.8247V10.2925H24.0247V10.0925ZM24.0247 10.0162V9.8162H23.8247V10.0162H24.0247ZM24.2018 10.0162V10.2162H24.4018V10.0162H24.2018ZM24.2018 9.15636H24.4018V8.95636H24.2018V9.15636ZM24.0247 9.15636H23.8247V9.35636H24.0247V9.15636ZM24.0247 9.08008V8.88008H23.8247V9.08008H24.0247ZM24.2933 9.08008H24.4933V8.88008H24.2933V9.08008ZM21.8702 9.89248H21.6016V10.2925H21.8702V9.89248ZM21.8016 10.0925V9.08008H21.4016V10.0925H21.8016ZM21.6016 9.28008H21.8702V8.88008H21.6016V9.28008ZM21.6702 9.08008V9.15636H22.0702V9.08008H21.6702ZM21.8702 8.95636H21.692V9.35636H21.8702V8.95636ZM21.492 9.15636V10.0162H21.892V9.15636H21.492ZM21.692 10.2162H21.8702V9.8162H21.692V10.2162ZM21.6702 10.0162V10.0925H22.0702V10.0162H21.6702ZM22.3295 9.89744C22.3156 9.89744 22.3001 9.89462 22.2849 9.88803L22.4439 9.52101C22.4069 9.50498 22.3681 9.49744 22.3295 9.49744V9.89744ZM22.2871 9.88896C22.2744 9.88367 22.2608 9.87498 22.2488 9.86238L22.5378 9.58589C22.5098 9.55659 22.4769 9.53482 22.4418 9.52008L22.2871 9.88896ZM22.2519 9.86556C22.2412 9.85493 22.2334 9.84278 22.2285 9.83091L22.5973 9.67622C22.5829 9.64182 22.562 9.61005 22.5347 9.58272L22.2519 9.86556ZM22.2294 9.83308C22.2225 9.81715 22.22 9.80167 22.22 9.78898H22.62C22.62 9.75086 22.6128 9.71177 22.5964 9.67404L22.2294 9.83308ZM22.22 9.78898C22.22 9.77509 22.2228 9.75954 22.2294 9.74433L22.5964 9.90337C22.6124 9.86637 22.62 9.82757 22.62 9.78898H22.22ZM22.2294 9.74433C22.2346 9.73225 22.2423 9.72085 22.2519 9.71131L22.5347 9.99415C22.561 9.9679 22.5817 9.93725 22.5964 9.90337L22.2294 9.74433ZM22.2519 9.71131C22.2637 9.69951 22.2763 9.69187 22.2871 9.68736L22.4418 10.0562C22.475 10.0423 22.5069 10.0219 22.5347 9.99415L22.2519 9.71131ZM22.2849 9.68829C22.3001 9.6817 22.3156 9.67889 22.3295 9.67889V10.0789C22.3681 10.0789 22.4069 10.0713 22.4439 10.0553L22.2849 9.68829ZM22.3295 9.67889C22.3422 9.67889 22.3577 9.68139 22.3736 9.68829L22.2146 10.0553C22.2523 10.0717 22.2914 10.0789 22.3295 10.0789V9.67889ZM22.3736 9.68829C22.3839 9.69272 22.3943 9.69938 22.4035 9.7082L22.127 9.99726C22.1529 10.0221 22.1826 10.0414 22.2146 10.0553L22.3736 9.68829ZM22.4098 9.71449C22.4186 9.72371 22.4252 9.7341 22.4297 9.74433L22.0627 9.90337C22.0765 9.9354 22.0959 9.96504 22.1207 9.99098L22.4098 9.71449ZM22.4297 9.74433C22.4363 9.75954 22.4391 9.77509 22.4391 9.78898H22.0391C22.0391 9.82757 22.0466 9.86637 22.0627 9.90337L22.4297 9.74433ZM22.4391 9.78898C22.4391 9.80167 22.4366 9.81715 22.4297 9.83308L22.0627 9.67404C22.0463 9.71177 22.0391 9.75086 22.0391 9.78898H22.4391ZM22.4306 9.83091C22.4264 9.84093 22.4196 9.85207 22.4098 9.86238L22.1207 9.58589C22.0949 9.61291 22.0754 9.64367 22.0617 9.67622L22.4306 9.83091ZM22.4067 9.86556C22.3971 9.8751 22.3857 9.8828 22.3736 9.88803L22.2146 9.52101C22.1807 9.53569 22.1501 9.55647 22.1238 9.58272L22.4067 9.86556ZM22.3736 9.88803C22.3577 9.89494 22.3422 9.89744 22.3295 9.89744V9.49744C22.2914 9.49744 22.2523 9.50466 22.2146 9.52101L22.3736 9.88803ZM22.9431 9.89744C22.9292 9.89744 22.9136 9.89462 22.8984 9.88803L23.0575 9.52101C23.0205 9.50498 22.9817 9.49744 22.9431 9.49744V9.89744ZM22.9006 9.88896C22.888 9.88367 22.8744 9.87498 22.8623 9.86238L23.1514 9.58589C23.1233 9.55659 23.0904 9.53482 23.0553 9.52008L22.9006 9.88896ZM22.8654 9.86556C22.8548 9.85493 22.847 9.84278 22.842 9.83091L23.2109 9.67622C23.1965 9.64182 23.1756 9.61005 23.1483 9.58272L22.8654 9.86556ZM22.8429 9.83308C22.836 9.81715 22.8335 9.80167 22.8335 9.78898H23.2335C23.2335 9.75086 23.2263 9.71177 23.21 9.67404L22.8429 9.83308ZM22.8335 9.78898C22.8335 9.77509 22.8363 9.75954 22.8429 9.74433L23.21 9.90337C23.226 9.86637 23.2335 9.82757 23.2335 9.78898H22.8335ZM22.8429 9.74433C22.8482 9.73225 22.8559 9.72085 22.8654 9.71131L23.1483 9.99415C23.1745 9.9679 23.1953 9.93725 23.21 9.90337L22.8429 9.74433ZM22.8654 9.71131C22.8772 9.69951 22.8899 9.69187 22.9006 9.68736L23.0553 10.0562C23.0886 10.0423 23.1205 10.0219 23.1483 9.99415L22.8654 9.71131ZM22.8984 9.68829C22.9136 9.6817 22.9292 9.67889 22.9431 9.67889V10.0789C22.9817 10.0789 23.0205 10.0713 23.0575 10.0553L22.8984 9.68829ZM22.9431 9.67889C22.9558 9.67889 22.9712 9.68139 22.9872 9.68829L22.8281 10.0553C22.8659 10.0717 22.905 10.0789 22.9431 10.0789V9.67889ZM22.9872 9.68829C22.9974 9.69272 23.0078 9.69938 23.017 9.7082L22.7405 9.99726C22.7665 10.0221 22.7961 10.0414 22.8281 10.0553L22.9872 9.68829ZM23.0233 9.71449C23.0321 9.72371 23.0388 9.7341 23.0432 9.74433L22.6762 9.90337C22.6901 9.9354 22.7094 9.96504 22.7343 9.99098L23.0233 9.71449ZM23.0432 9.74433C23.0498 9.75954 23.0526 9.77509 23.0526 9.78898H22.6526C22.6526 9.82757 22.6602 9.86637 22.6762 9.90337L23.0432 9.74433ZM23.0526 9.78898C23.0526 9.80167 23.0501 9.81715 23.0432 9.83308L22.6762 9.67404C22.6599 9.71177 22.6526 9.75086 22.6526 9.78898H23.0526ZM23.0442 9.83091C23.0399 9.84093 23.0332 9.85207 23.0233 9.86238L22.7343 9.58589C22.7084 9.61291 22.6889 9.64367 22.6753 9.67622L23.0442 9.83091ZM23.0202 9.86556C23.0107 9.8751 22.9993 9.8828 22.9872 9.88803L22.8281 9.52101C22.7943 9.53569 22.7636 9.55647 22.7374 9.58272L23.0202 9.86556ZM22.9872 9.88803C22.9712 9.89494 22.9558 9.89744 22.9431 9.89744V9.49744C22.905 9.49744 22.8659 9.50466 22.8281 9.52101L22.9872 9.88803ZM23.5566 9.89744C23.5427 9.89744 23.5272 9.89462 23.512 9.88803L23.671 9.52101C23.634 9.50498 23.5952 9.49744 23.5566 9.49744V9.89744ZM23.5142 9.88896C23.5015 9.88367 23.4879 9.87498 23.4758 9.86238L23.7649 9.58589C23.7369 9.55659 23.704 9.53482 23.6688 9.52008L23.5142 9.88896ZM23.479 9.86556C23.4683 9.85493 23.4605 9.84278 23.4556 9.83091L23.8244 9.67622C23.81 9.64182 23.7891 9.61005 23.7618 9.58272L23.479 9.86556ZM23.4565 9.83308C23.4496 9.81715 23.4471 9.80167 23.4471 9.78898H23.8471C23.8471 9.75086 23.8399 9.71177 23.8235 9.67404L23.4565 9.83308ZM23.4471 9.78898C23.4471 9.77509 23.4499 9.75954 23.4565 9.74433L23.8235 9.90337C23.8395 9.86637 23.8471 9.82757 23.8471 9.78898H23.4471ZM23.4565 9.74433C23.4617 9.73225 23.4694 9.72085 23.479 9.71131L23.7618 9.99415C23.788 9.9679 23.8088 9.93725 23.8235 9.90337L23.4565 9.74433ZM23.479 9.71131C23.4908 9.69951 23.5034 9.69187 23.5142 9.68736L23.6688 10.0562C23.7021 10.0423 23.734 10.0219 23.7618 9.99415L23.479 9.71131ZM23.512 9.68829C23.5272 9.6817 23.5427 9.67889 23.5566 9.67889V10.0789C23.5952 10.0789 23.634 10.0713 23.671 10.0553L23.512 9.68829ZM23.5566 9.67889C23.5693 9.67889 23.5848 9.68139 23.6007 9.68829L23.4417 10.0553C23.4794 10.0717 23.5185 10.0789 23.5566 10.0789V9.67889ZM23.6007 9.68829C23.611 9.69272 23.6213 9.69938 23.6306 9.7082L23.3541 9.99726C23.38 10.0221 23.4097 10.0414 23.4417 10.0553L23.6007 9.68829ZM23.6369 9.71449C23.6457 9.72371 23.6523 9.7341 23.6568 9.74433L23.2897 9.90337C23.3036 9.9354 23.323 9.96504 23.3478 9.99098L23.6369 9.71449ZM23.6568 9.74433C23.6634 9.75954 23.6662 9.77509 23.6662 9.78898H23.2662C23.2662 9.82757 23.2737 9.86637 23.2897 9.90337L23.6568 9.74433ZM23.6662 9.78898C23.6662 9.80167 23.6637 9.81715 23.6568 9.83308L23.2897 9.67404C23.2734 9.71177 23.2662 9.75086 23.2662 9.78898H23.6662ZM23.6577 9.83091C23.6535 9.84093 23.6467 9.85207 23.6369 9.86238L23.3478 9.58589C23.322 9.61291 23.3025 9.64367 23.2888 9.67622L23.6577 9.83091ZM23.6338 9.86556C23.6242 9.8751 23.6128 9.8828 23.6007 9.88803L23.4417 9.52101C23.4078 9.53569 23.3772 9.55647 23.3509 9.58272L23.6338 9.86556ZM23.6007 9.88803C23.5848 9.89494 23.5693 9.89744 23.5566 9.89744V9.49744C23.5185 9.49744 23.4794 9.50466 23.4417 9.52101L23.6007 9.88803ZM24.2933 9.89248H24.0247V10.2925H24.2933V9.89248ZM24.2247 10.0925V10.0162H23.8247V10.0925H24.2247ZM24.0247 10.2162H24.2018V9.8162H24.0247V10.2162ZM24.4018 10.0162V9.15636H24.0018V10.0162H24.4018ZM24.2018 8.95636H24.0247V9.35636H24.2018V8.95636ZM24.2247 9.15636V9.08008H23.8247V9.15636H24.2247ZM24.0247 9.28008H24.2933V8.88008H24.0247V9.28008ZM24.0933 9.08008V10.0925H24.4933V9.08008H24.0933Z" fill="#47B165" mask="url(#path-21-outside-1)"/>
</g>
<path d="M29.5526 4.89453V4.89453C30.4001 4.89453 31.087 5.58151 31.087 6.42894V11.2169C31.087 13.4261 29.2962 15.2169 27.087 15.2169H22.0201C21.3267 15.2169 20.7646 14.6549 20.7646 13.9615V13.9615M28.2524 4.89453H24.7646C22.5555 4.89453 20.7646 6.68539 20.7646 8.89453V12.4271" stroke="#47B165" stroke-linecap="round" stroke-linejoin="round"/>
</g>
<defs>
<filter id="filter0_d" x="0" y="-16" width="52" height="52" filterUnits="userSpaceOnUse" color-interpolation-filters="sRGB">
<feFlood flood-opacity="0" result="BackgroundImageFix"/>
<feColorMatrix in="SourceAlpha" type="matrix" values="0 0 0 0 0 0 0 0 0 0 0 0 0 0 0 0 0 0 127 0"/>
<feOffset/>
<feGaussianBlur stdDeviation="10"/>
<feColorMatrix type="matrix" values="0 0 0 0 0.278431 0 0 0 0 0.694118 0 0 0 0 0.396078 0 0 0 0.3 0"/>
<feBlend mode="normal" in2="BackgroundImageFix" result="effect1_dropShadow"/>
<feBlend mode="normal" in="SourceGraphic" in2="effect1_dropShadow" result="shape"/>
</filter>
</defs>
</svg>
