<svg width="16" height="16" viewBox="29 3.5 12 12" fill="none" xmlns="http://www.w3.org/2000/svg">
<g filter="url(#filter0_d)">
<path d="M33.6362 14.8003C33.6362 14.9108 33.7258 15.0003 33.8362 15.0003H36.1635C36.274 15.0003 36.3635 14.9108 36.3635 14.8003V12.4666C36.3635 12.3561 36.274 12.2666 36.1635 12.2666H33.8362C33.7258 12.2666 33.6362 12.3561 33.6362 12.4666V14.8003Z" fill="#FF7378"/>
<path d="M30 14.8003C30 14.9108 30.0895 15.0003 30.2 15.0003H32.5273C32.6377 15.0003 32.7273 14.9108 32.7273 14.8003V12.4666C32.7273 12.3561 32.6377 12.2666 32.5273 12.2666H30.2C30.0895 12.2666 30 12.3561 30 12.4666V14.8003Z" fill="#FF7378"/>
<path d="M30 11.1548C30 11.2653 30.0895 11.3548 30.2 11.3548H32.5273C32.6377 11.3548 32.7273 11.2653 32.7273 11.1548V8.82109C32.7273 8.71064 32.6377 8.62109 32.5273 8.62109H30.2C30.0895 8.62109 30 8.71064 30 8.82109V11.1548Z" fill="#FF7378"/>
<path d="M33.6362 8.42131C33.6362 8.53177 33.7258 8.62131 33.8362 8.62131H35.2544C35.3649 8.62131 35.4544 8.53177 35.4544 8.42131V6.99883C35.4544 6.88837 35.3649 6.79883 35.2544 6.79883H33.8362C33.7258 6.79883 33.6362 6.88837 33.6362 6.99883V8.42131Z" fill="#FF7378"/>
<path d="M30.9092 6.59894C30.9092 6.7094 30.9987 6.79894 31.1092 6.79894H31.6183C31.7287 6.79894 31.8183 6.70939 31.8183 6.59894V6.0877C31.8183 5.97724 31.7287 5.8877 31.6183 5.8877H31.1092C30.9987 5.8877 30.9092 5.97724 30.9092 6.0877V6.59894Z" fill="#FF7378"/>
<path d="M31.8181 4.77667C31.8181 4.88713 31.9077 4.97667 32.0181 4.97667H32.5272C32.6377 4.97667 32.7272 4.88713 32.7272 4.77667V4.26543C32.7272 4.15497 32.6377 4.06543 32.5272 4.06543H32.0181C31.9077 4.06543 31.8181 4.15497 31.8181 4.26543V4.77667Z" fill="#FF7378"/>
<path d="M37.2727 10.2436C37.2727 10.354 37.3622 10.4436 37.4727 10.4436H38.8909C39.0013 10.4436 39.0909 10.354 39.0909 10.2436V8.82109C39.0909 8.71064 39.0013 8.62109 38.8909 8.62109H37.4727C37.3622 8.62109 37.2727 8.71064 37.2727 8.82109V10.2436Z" fill="#FF7378"/>
<path d="M38.1819 12.0667C38.1819 12.1772 38.2714 12.2667 38.3819 12.2667H38.891C39.0014 12.2667 39.091 12.1772 39.091 12.0667V11.5555C39.091 11.445 39.0014 11.3555 38.891 11.3555H38.3819C38.2714 11.3555 38.1819 11.445 38.1819 11.5555V12.0667Z" fill="#FF7378"/>
<path d="M34.5454 11.1547C34.5454 11.2652 34.635 11.3547 34.7454 11.3547H36.1636C36.274 11.3547 36.3636 11.2652 36.3636 11.1547V9.73223C36.3636 9.62177 36.274 9.53223 36.1636 9.53223H34.7454C34.635 9.53223 34.5454 9.62177 34.5454 9.73223V11.1547Z" fill="#FF7378"/>
<path d="M37.2727 6.59894C37.2727 6.7094 37.3622 6.79894 37.4727 6.79894H37.9818C38.0923 6.79894 38.1818 6.70939 38.1818 6.59894V6.0877C38.1818 5.97724 38.0923 5.8877 37.9818 5.8877H37.4727C37.3622 5.8877 37.2727 5.97724 37.2727 6.0877V6.59894Z" fill="#FF7378"/>
<path d="M38.1819 14.8002C38.1819 14.9107 38.2714 15.0002 38.3819 15.0002H39.8001C39.9105 15.0002 40.0001 14.9107 40.0001 14.8002V13.3777C40.0001 13.2673 39.9105 13.1777 39.8001 13.1777H38.3819C38.2714 13.1777 38.1819 13.2673 38.1819 13.3777V14.8002Z" fill="#FF7378"/>
<path d="M34.5454 5.68781C34.5454 5.79826 34.635 5.8878 34.7454 5.8878H35.2545C35.365 5.8878 35.4545 5.79826 35.4545 5.6878V5.17656C35.4545 5.06611 35.365 4.97656 35.2545 4.97656H34.7454C34.635 4.97656 34.5454 5.06611 34.5454 5.17656V5.68781Z" fill="#FF7378"/>
<path d="M39.0908 7.51007C39.0908 7.62053 39.1804 7.71007 39.2908 7.71007H39.7999C39.9104 7.71007 39.9999 7.62053 39.9999 7.51007V6.99883C39.9999 6.88837 39.9104 6.79883 39.7999 6.79883H39.2908C39.1804 6.79883 39.0908 6.88837 39.0908 6.99883V7.51007Z" fill="#FF7378"/>
<path d="M36.6667 4.71124C36.6667 4.8217 36.7563 4.91124 36.8667 4.91124H37.3758C37.4863 4.91124 37.5758 4.8217 37.5758 4.71124V4.2C37.5758 4.08954 37.4863 4 37.3758 4H36.8667C36.7563 4 36.6667 4.08954 36.6667 4.2V4.71124Z" fill="#FF7378"/>
</g>
<defs>
<filter id="filter0_d" x="0" y="-26" width="70" height="71" filterUnits="userSpaceOnUse" color-interpolation-filters="sRGB">
<feFlood flood-opacity="0" result="BackgroundImageFix"/>
<feColorMatrix in="SourceAlpha" type="matrix" values="0 0 0 0 0 0 0 0 0 0 0 0 0 0 0 0 0 0 127 0"/>
<feOffset/>
<feGaussianBlur stdDeviation="15"/>
<feColorMatrix type="matrix" values="0 0 0 0 1 0 0 0 0 0.45098 0 0 0 0 0.470588 0 0 0 0.44 0"/>
<feBlend mode="normal" in2="BackgroundImageFix" result="effect1_dropShadow"/>
<feBlend mode="normal" in="SourceGraphic" in2="effect1_dropShadow" result="shape"/>
</filter>
</defs>
</svg>
