<svg width="16" height="16" viewBox="0 0 14 14" fill="none" xmlns="http://www.w3.org/2000/svg">
<path d="M6.87871 2.66336C8.05093 2.66336 9.10593 3.13225 9.92648 3.95281C10.747 4.77336 11.2159 5.82836 11.2159 7.00058C11.2159 8.1728 10.747 9.2278 9.92648 10.0484C9.10593 10.8689 8.05093 11.3378 6.87871 11.3378C5.70649 11.3378 4.65149 10.8689 3.83094 10.0484C3.01038 9.2278 2.54149 8.1728 2.54149 7.00058C2.54149 5.82836 3.01038 4.77336 3.83094 3.95281C4.65149 3.13225 5.70649 2.66336 6.87871 2.66336ZM6.87871 1.72559C5.58927 1.72559 4.1826 2.19447 3.24483 3.24947C1.25205 5.24225 1.25205 8.52447 3.24483 10.5172C4.29982 11.5722 5.58927 12.0411 6.87871 12.0411C8.16815 12.0411 9.57482 11.5722 10.5126 10.5172C12.5054 8.52447 12.5054 5.24225 10.5126 3.24947C9.4576 2.3117 8.16815 1.72559 6.87871 1.72559Z" fill="#ECEFFF"/>
<path d="M7.42896 7.56075C7.3867 8.00829 7.22151 8.35787 6.9334 8.60949C6.64528 8.85919 6.26209 8.98404 5.78382 8.98404C5.4496 8.98404 5.15476 8.90529 4.8993 8.74778C4.64576 8.58836 4.44984 8.36267 4.31155 8.07071C4.17325 7.77875 4.10122 7.43974 4.09546 7.05366V6.66183C4.09546 6.26615 4.16557 5.91753 4.30578 5.61597C4.446 5.31441 4.64672 5.08199 4.90795 4.91873C5.17109 4.75546 5.47457 4.67383 5.81839 4.67383C6.2813 4.67383 6.65393 4.79964 6.93628 5.05126C7.21863 5.30288 7.38286 5.65822 7.42896 6.11729H6.70291C6.66833 5.81573 6.57998 5.59868 6.43784 5.46615C6.29762 5.33169 6.09114 5.26447 5.81839 5.26447C5.50146 5.26447 5.25753 5.38067 5.08658 5.61309C4.91755 5.84358 4.83111 6.18259 4.82727 6.63013V7.0018C4.82727 7.4551 4.90795 7.80084 5.06929 8.03902C5.23256 8.27719 5.47073 8.39628 5.78382 8.39628C6.07001 8.39628 6.28514 8.33194 6.4292 8.20324C6.57325 8.07455 6.66449 7.86039 6.70291 7.56075H7.42896Z" fill="#ECEFFF"/>
<path d="M9.64745 6.44862C9.55525 6.43325 9.46017 6.42557 9.36221 6.42557C9.04144 6.42557 8.82536 6.5485 8.71395 6.79436V8.92641H8.01383V5.809H8.68226L8.69955 6.15762C8.86858 5.88679 9.10291 5.75138 9.40255 5.75138C9.50243 5.75138 9.58502 5.76483 9.65033 5.79172L9.64745 6.44862Z" fill="#ECEFFF"/>
<path d="M3.71374 3.83557C3.4793 4.07001 3.24485 4.07001 3.01041 3.83557L1.83819 2.66335C1.60374 2.4289 1.60374 2.19446 1.83819 1.96001C2.07263 1.72557 2.30707 1.72557 2.54152 1.96001L3.71374 3.13223C3.94818 3.36668 3.94818 3.60112 3.71374 3.83557Z" fill="#ECEFFF" fill-opacity="0.8"/>
<path d="M11.6849 11.1029L10.5127 9.93066L9.80933 10.634L10.9815 11.8062C11.216 12.0407 11.4504 12.0407 11.6849 11.8062C11.9193 11.5718 11.9193 11.3373 11.6849 11.1029Z" fill="#ECEFFF" fill-opacity="0.8"/>
<path d="M10.9815 2.0772L9.80933 3.24942L10.5127 3.95275L11.6849 2.78053C11.9193 2.54609 11.9193 2.31164 11.6849 2.0772C11.4504 1.84276 11.216 1.84276 10.9815 2.0772Z" fill="#ECEFFF" fill-opacity="0.8"/>
<path d="M10.4344 1.78027C9.41524 1.1138 8.22498 0.78057 6.96668 0.78057C5.73203 0.78057 4.49739 1.10139 3.50612 1.74302L2.96271 1.21084C4.15028 0.381477 5.59376 -0.0332031 6.96668 -0.0332031C8.37076 -0.0332031 9.77484 0.328235 11.0043 1.22212L10.4344 1.78027Z" fill="#ECEFFF" fill-opacity="0.6"/>
<path d="M12.2413 3.62765C13.4736 5.62182 13.4377 8.23348 12.1335 10.1917L12.8366 10.8802C14.4028 8.55741 14.3876 5.46502 12.7911 3.08912L12.2413 3.62765Z" fill="#ECEFFF" fill-opacity="0.6"/>
<path d="M11.0416 12.7392L10.2646 11.9782C9.28401 12.5734 8.15573 12.8709 6.96668 12.8709C5.7473 12.8709 4.59183 12.558 3.59405 11.9321L2.84125 12.6694C4.09144 13.5788 5.52906 14.0334 6.96668 14.0334C8.36703 14.0334 9.84081 13.602 11.0416 12.7392Z" fill="#ECEFFF" fill-opacity="0.6"/>
<path d="M1.06431 10.7927L1.75218 10.119C0.489055 8.16015 0.474727 5.57326 1.7092 3.60014L1.14573 3.04832C-0.443165 5.34076 -0.470306 8.40839 1.06431 10.7927Z" fill="#ECEFFF" fill-opacity="0.6"/>
<path d="M3.71374 10.0479C3.94818 10.2823 3.94818 10.5168 3.71374 10.7512L2.54152 11.9235C2.30707 12.1579 2.07263 12.1579 1.83819 11.9235C1.60374 11.689 1.60374 11.4546 1.83819 11.2201L3.01041 10.0479C3.24485 9.81346 3.59652 9.81346 3.71374 10.0479Z" fill="#ECEFFF" fill-opacity="0.8"/>
</svg>
