<?xml version="1.0"?>
<svg xmlns="http://www.w3.org/2000/svg" xmlns:xlink="http://www.w3.org/1999/xlink" viewBox="0 0 1600 200">
<defs>
    <style>
        .cls-1{fill:url(#gradient_53);}
        .cls-17,.cls-2,.cls-23,.cls-24,.cls-3,.cls-4,.cls-5,.cls-6{opacity:0.1;}
        .cls-2{fill:url(#gradient_19);}
        .cls-3{fill:url(#gradient_19-2);}
        .cls-4{fill:url(#gradient_19-3);}
        .cls-5{fill:url(#gradient_19-4);}
        .cls-6{fill:url(#gradient_19-5);}
        .cls-10,.cls-13,.cls-18,.cls-24,.cls-25,.cls-26,.cls-30,.cls-31,.cls-32,.cls-33,.cls-35,.cls-7{fill:none;}
        .cls-26,.cls-31,.cls-32,.cls-33,.cls-35,.cls-7{stroke:#8f9fc4;}
        .cls-10,.cls-26,.cls-31,.cls-32,.cls-35,.cls-7{stroke-linecap:round;stroke-linejoin:round;}
        .cls-11,.cls-15,.cls-7{opacity:0.4;}
        .cls-11,.cls-12,.cls-14,.cls-16,.cls-17,.cls-19,.cls-20,.cls-8,.cls-9{fill:#909fc4;}
        .cls-10,.cls-13,.cls-20,.cls-21,.cls-8,.cls-9{opacity:0.3;}
        .cls-9{font-size:6px;}
        .cls-19,.cls-20,.cls-9{font-family:MyriadPro-Regular, Myriad Pro;}
        .cls-10,.cls-13,.cls-18,.cls-24,.cls-25,.cls-30{stroke:#909fc4;}
        .cls-12,.cls-18,.cls-22,.cls-31,.cls-34{opacity:0.2;}
        .cls-13,.cls-18,.cls-24,.cls-25,.cls-30,.cls-33{stroke-miterlimit:10;}
        .cls-14,.cls-19{opacity:0.15;}
        .cls-19,.cls-20{font-size:5.35px;}
        .cls-25{opacity:0.06;}
        .cls-27{fill:#2c467e;}
        .cls-28{fill:#141414;}
        .cls-29,.cls-34{fill:#8f9fc4;}
        .cls-32{opacity:0.64;}
        .cls-35{stroke-width:0.75px;}
        .cls-36{fill:#1a1c22;}
    </style>
</defs>
<title>main-illustration</title>

    <!--  *** Right ***  -->
    <g id='robot-3'>
        <g class="cls-15">
            <path class="cls-26" d="M1449.15,160.13h-13.49a7.63,7.63,0,0,1-5.4-2.24l-.7-.7a7.63,7.63,0,0,1-2.14-6.6l1.77-11.07a7.63,7.63,0,0,1,2.14-4.19h0a7.63,7.63,0,0,1,5.4-2.24h11.35a7.63,7.63,0,0,1,5.4,2.24h0a7.63,7.63,0,0,1,2.14,4.19l1.77,11.07a7.63,7.63,0,0,1-2.14,6.6l-.7.7A7.63,7.63,0,0,1,1449.15,160.13Z"/>
            <path class="cls-26" d="M1453.82,170.39l-2-5.68a.28.28,0,0,0-.35-.27,38,38,0,0,1-18.09,0,.28.28,0,0,0-.35.27l-3.73,4.61"/>
            <path class="cls-26" d="M1431.1,176.95a2,2,0,0,1,1.23-3.87"/>
            <path class="cls-26" d="M1450.42,173.22a2,2,0,1,1,.9,4"/>
            <line class="cls-26" x1="1452.32" y1="173.71" x2="1453.82" y2="170.39"/>
            <line class="cls-26" x1="1430.19" y1="173.34" x2="1429.28" y2="169.34"/>
            <path class="cls-26" d="M1447.66,161.6a10.65,10.65,0,0,1-.34,2.69"/>
            <path class="cls-26" d="M1437.49,164.28a10.65,10.65,0,0,1-.34-2.68"/>
            <line class="cls-26" x1="1442.4" y1="133.09" x2="1444.11" y2="128.08"/>
        </g>
        <polyline class="cls-26" points="1438.44 170.88 1442.26 170.88 1445.65 170.88 1442.04 177.18 1438.44 170.88"/>
        <circle class="cls-27" cx="1442.4" cy="147.41" r="5.22"/>
        <circle class="cls-28" cx="1442.4" cy="147.41" r="2.01"/>
        <circle class="cls-29" cx="1442.97" cy="146.74" r="1"/>
        <circle class="cls-27" cx="1444.6" cy="126.64" r="1.9"/>
    </g>

    <g id='rocket-2'>
        <g class="cls-15">
            <path class="cls-30" d="M1353.37,118.81l-17.18.08c-.16-2.49-.3-2.41-.38-2.28l-7.66,12.11a.45.45,0,0,0,.39.7l32.62-.15a.45.45,0,0,0,.38-.7l-7.77-12C1353.67,116.4,1353.53,116.32,1353.37,118.81Z"/>
            <path class="cls-30" d="M1304.48,149.41c4-.83,19.77-3.25,19.77-3.25l13.83-16.78"/>
            <path class="cls-30" d="M1385,149.09c-4-.83-19.55-2.93-19.55-2.93l-13.83-16.78"/>
            <path class="cls-30" d="M1339.21,149.26l-37.74.17a.92.92,0,0,0-.91.77l-2.38,14.21a.92.92,0,0,0,.91,1.08l91.88-.41a.92.92,0,0,0,.9-1.08l-2.51-14.19a.92.92,0,0,0-.91-.76l-37.74.17"/>
            <circle class="cls-30" cx="1302.2" cy="170.47" r="1.87" transform="translate(-0.75 5.85) rotate(-0.26)"/>
            <polyline class="cls-30" points="1302.2 170.47 1305.89 173.22 1325.14 173.14"/>
            <line class="cls-30" x1="1306.59" y1="168.96" x2="1312.44" y2="168.93"/>
            <circle class="cls-30" cx="1387.91" cy="170.09" r="1.87" transform="translate(-0.75 6.24) rotate(-0.26)"/>
            <polyline class="cls-30" points="1387.91 170.09 1384.24 172.87 1364.98 172.96"/>
            <line class="cls-30" x1="1383.5" y1="168.61" x2="1377.65" y2="168.64"/>
            <line class="cls-30" x1="1343.5" y1="168.79" x2="1346.59" y2="168.78"/>
            <circle class="cls-30" cx="1330.95" cy="173.11" r="4.22" transform="translate(-0.76 5.98) rotate(-0.26)"/>
            <circle class="cls-30" cx="1340.18" cy="173.06" r="2.89" transform="matrix(1, 0, 0, 1, -0.76, 6.02)"/>
            <circle class="cls-30" cx="1349.95" cy="173.03" r="2.89" transform="translate(-0.76 6.07) rotate(-0.26)"/>
            <circle class="cls-30" cx="1359.17" cy="172.99" r="4.22" transform="translate(-0.76 6.11) rotate(-0.26)"/>
            <line class="cls-30" x1="1388.51" y1="160.39" x2="1375.82" y2="160.45"/>
            <line class="cls-30" x1="1320.51" y1="160.36" x2="1301.47" y2="160.45"/>
            <line class="cls-30" x1="1346.93" y1="126.73" x2="1342.71" y2="126.75"/>
            <line class="cls-30" x1="1346.46" y1="123.69" x2="1343.14" y2="123.71"/>
        </g>
        <path class="cls-27" d="M1338.85,112.73a.75.75,0,0,0,.75.81H1350a.75.75,0,0,0,.75-.81l-5.2-66.26a.75.75,0,0,0-1.49,0"/>
        <path class="cls-30" d="M1348.66,161.24l2.11-6.6a1,1,0,0,0-.37-1.11l-5-3.62a1,1,0,0,0-1.17,0l-5,3.67a1,1,0,0,0-.36,1.11l2.17,6.58"/>
    </g>

    <g id='tower'>
        <g class="cls-15">
            <path class="cls-29" d="M1139.09,109.25a11.75,11.75,0,0,1-1.41,2.95h-7.62c-3.62,0,4.18-1.32,4.18-2.95s-7.8-2.95-4.18-2.95h7.75A12.23,12.23,0,0,1,1139.09,109.25Z"/>
            <polyline class="cls-33" points="1130.6 115.67 1137.8 115.67 1147.57 172.41"/>
            <line class="cls-33" x1="1130.6" y1="121.11" x2="1138.74" y2="121.11"/>
            <line class="cls-33" x1="1130.6" y1="164.82" x2="1139.89" y2="164.82"/>
            <line class="cls-33" x1="1130.6" y1="127.21" x2="1139.79" y2="127.21"/>
            <line class="cls-33" x1="1130.6" y1="133.31" x2="1140.84" y2="133.31"/>
        </g>
    </g>

    <g id='rocket-1'>
        <g class="cls-15">
            <line class="cls-30" x1="1219.94" y1="147.63" x2="1219.94" y2="106.68"/>
            <line class="cls-30" x1="1219.94" y1="169.27" x2="1219.94" y2="153.21"/>
            <line class="cls-30" x1="1213.99" y1="121.66" x2="1213.99" y2="112.63"/>
            <polyline class="cls-30" points="1212.09 131.81 1213.99 129.49 1213.99 149.38"/>
            <line class="cls-30" x1="1208.04" y1="155.61" x2="1208.04" y2="106.68"/>
            <polyline class="cls-30" points="1209.56 161.54 1208.04 159.63 1208.04 169.28"/>
            <path class="cls-30" d="M1219.22,99.34a27.83,27.83,0,0,1-2,4h-6.38a27.82,27.82,0,0,1-2-4Z"/>
            <circle class="cls-30" cx="1219.83" cy="151.05" r="0.89"/>
            <line class="cls-30" x1="1220.18" y1="170.75" x2="1224.36" y2="174.93"/>
            <line class="cls-30" x1="1203.62" y1="174.93" x2="1207.8" y2="170.75"/>
            <path class="cls-30" d="M1198.26,179.12h31.47a4.59,4.59,0,0,0-4.37-3.19h-22.73A4.59,4.59,0,0,0,1198.26,179.12Z"/>
            <path class="cls-30" d="M1205.49,127.84"/>
            <polygon class="cls-30" points="1203.98 150.26 1208.05 152.97 1208.05 143.31 1206.01 143.31 1203.98 143.31 1203.98 150.26"/>
            <line class="cls-30" x1="1205.18" y1="138.83" x2="1205.18" y2="143.31"/>
        </g>
        <line class="cls-26" x1="1213.99" y1="153.51" x2="1213.99" y2="159.75"/>
        <polygon class="cls-27" points="1213.97 48.96 1210.91 94.86 1217.03 94.9 1213.97 48.96"/>
        <circle class="cls-26" cx="1213.99" cy="110.21" r="0.89"/>
        <circle class="cls-26" cx="1205.18" cy="137.83" r="0.89"/>
    </g>

</svg>
