<svg xmlns="http://www.w3.org/2000/svg" viewBox="0 0 80 80"><defs><style>.cls-1{opacity:0;}.cls-2{fill:#4ca7e5;opacity:0.1;}.cls-3,.cls-4,.cls-6,.cls-7,.cls-8{fill:none;stroke:#4ca7e5;stroke-miterlimit:10;}.cls-3,.cls-4{stroke-width:2px;}.cls-4,.cls-6,.cls-7,.cls-8{stroke-linecap:round;}.cls-4{opacity:0.6;}.cls-5{opacity:0.3;}.cls-6{stroke-width:0.71px;}.cls-7{stroke-width:1.42px;}.cls-8{stroke-width:1.06px;}</style></defs><title>silicon</title><g id="Layer_2" data-name="Layer 2"><g id="Layer_2-2" data-name="Layer 2"><rect class="cls-1" width="80" height="80"/><rect class="cls-2" x="25.47" y="25.47" width="29.07" height="29.07" rx="1"/><rect class="cls-3" x="25.47" y="25.47" width="29.07" height="29.07" rx="1"/><line class="cls-4" x1="44.84" y1="54.53" x2="44.84" y2="60.53"/><line class="cls-4" x1="35.16" y1="54.53" x2="35.16" y2="60.53"/><line class="cls-4" x1="44.84" y1="19.47" x2="44.84" y2="25.47"/><line class="cls-4" x1="35.16" y1="19.47" x2="35.16" y2="25.47"/><line class="cls-4" x1="25.47" y1="44.84" x2="19.46" y2="44.84"/><line class="cls-4" x1="25.47" y1="35.16" x2="19.46" y2="35.16"/><line class="cls-4" x1="60.54" y1="44.84" x2="54.53" y2="44.84"/><line class="cls-4" x1="60.54" y1="35.16" x2="54.53" y2="35.16"/><g class="cls-5"><line class="cls-6" x1="59.82" y1="25.1" x2="60.98" y2="25.1"/><line class="cls-7" x1="47.07" y1="12.23" x2="47.07" y2="13.86"/><line class="cls-6" x1="26.97" y1="18.92" x2="29.14" y2="18.92"/><line class="cls-8" x1="16.18" y1="53.11" x2="17.6" y2="54.53"/><line class="cls-7" x1="55.36" y1="62.24" x2="57.07" y2="60.53"/><line class="cls-6" x1="27.65" y1="63.95" x2="27.65" y2="66.66"/></g></g></g></svg>