<svg xmlns="http://www.w3.org/2000/svg" viewBox="0 0 80 80"><defs><style>.cls-1,.cls-3,.cls-4{fill:none;}.cls-2{fill:#26607e;}.cls-2,.cls-3{opacity:0.5;}.cls-3{stroke:#26607e;}.cls-3,.cls-4{stroke-miterlimit:10;}.cls-4{stroke:#75d5f5;}.cls-5{fill:#75d5f5;}</style>
<filter id="shadow-normal" x="0%" y="0%" width="100%" height="100%">
  <feDropShadow dx="0" dy="0" stdDeviation="5" flood-color="rgba(117, 213, 245, 0.25)" flood-opacity="1" />
</filter>
</defs><title>utrium</title><g class="shadow" style="filter: url(#shadow-normal);"><rect class="cls-1" width="80" height="80"/><rect class="cls-2" x="62.21" y="58.63" width="2.85" height="2.85" transform="translate(61.1 -27.41) rotate(45)"/><rect class="cls-2" x="23.15" y="17.48" width="2.85" height="2.85"/><path class="cls-3" d="M62.41,30.49a2.26,2.26,0,1,1,3.16-.64"/><polyline class="cls-3" points="14.93 54.29 14.93 52.44 9.45 52.44 9.45 54.29 12.58 54.29"/><polygon class="cls-2" points="21.84 56.87 30.64 30.85 36.7 17.93 56.72 39.16 50.99 52.42 51.61 62.59 21.84 56.87"/><polygon class="cls-2" points="25.92 63.91 21 33.58 30.71 19.43 58.38 31.93 54.39 63.29 41.09 66.55 25.92 63.91"/><polygon class="cls-2" points="19.89 46.97 21.8 26.65 35.39 26.1 52.88 29.34 62.21 47.25 47.47 69.06 23.23 59.61 19.89 46.97"/><polyline class="cls-4" points="40.47 25.38 59.22 37.6 55.43 54.16 46.63 64.75 28.87 62.3 23.09 42.7 25.35 26.05 31.86 21.74"/><path class="cls-5" d="M47.08,35.42V46.5a6.38,6.38,0,0,1-.85,3.32A5.52,5.52,0,0,1,43.78,52a8.77,8.77,0,0,1-3.79.76,7.26,7.26,0,0,1-5.13-1.69A6,6,0,0,1,33,46.45v-11h3.62V45.9a4.39,4.39,0,0,0,.8,2.9,3.31,3.31,0,0,0,2.63.92,3.24,3.24,0,0,0,2.58-.93,4.41,4.41,0,0,0,.8-2.92V35.42Z"/></g></svg>