<svg xmlns="http://www.w3.org/2000/svg" viewBox="0 0 80 80"><defs><style>.cls-1,.cls-2{fill:none;}.cls-2{stroke:#fff;stroke-linecap:round;stroke-linejoin:round;stroke-width:0.75px;}.cls-2,.cls-3{opacity:0.6;}.cls-4{fill:#fff;}</style></defs><title>uh2o</title><g id="Слой_2" data-name="Слой 2"><g id="Слой_1-2" data-name="Слой 1"><rect class="cls-1" width="80" height="80"/><polyline class="cls-2" points="13.23 12.56 9.39 19.22 15.85 30.4 28.76 30.4 35.22 19.22 28.76 8.03 20.46 8.03"/><line class="cls-2" x1="42.58" y1="19.22" x2="35.08" y2="19.22"/><polygon class="cls-2" points="43.98 38.96 36.31 38.96 32.48 45.6 36.31 52.23 43.98 52.23 47.81 45.6 43.98 38.96"/><g class="cls-3"><path class="cls-4" d="M42.4,48.45h-.94V45.88H38.83v2.57h-.93V42.74h.93v2.34h2.63V42.74h.94Z"/></g><polyline class="cls-2" points="29.11 45.6 22.86 41.98 22.86 41.9 22.86 30.4"/><g class="cls-3"><path class="cls-4" d="M54.5,19.08a5.07,5.07,0,0,1-1.13,3.52,4.1,4.1,0,0,1-3.21,1.26,4.13,4.13,0,0,1-3.23-1.25,5.11,5.11,0,0,1-1.13-3.55,5,5,0,0,1,1.13-3.53,4.18,4.18,0,0,1,3.23-1.23,4.09,4.09,0,0,1,3.2,1.25A5.07,5.07,0,0,1,54.5,19.08Zm-7.08,0a4.16,4.16,0,0,0,.69,2.6,2.82,2.82,0,0,0,4.09,0,4.16,4.16,0,0,0,.69-2.61,4.18,4.18,0,0,0-.68-2.59,2.41,2.41,0,0,0-2-.88,2.46,2.46,0,0,0-2.06.88A4.12,4.12,0,0,0,47.42,19.08Z"/><path class="cls-4" d="M63.81,23.73H62.29V19.55H58v4.18H56.49V14.45H58v3.8h4.28v-3.8h1.52Z"/></g><g class="cls-3"><path class="cls-4" d="M26,14.51v6a3.57,3.57,0,0,1-.44,1.8,2.94,2.94,0,0,1-1.28,1.19,4.43,4.43,0,0,1-2,.42A3.73,3.73,0,0,1,19.58,23a3.31,3.31,0,0,1-1-2.51v-6h1.52v5.87a2.35,2.35,0,0,0,.53,1.69,2.2,2.2,0,0,0,1.64.55q2.15,0,2.15-2.25V14.51Z"/></g></g></g></svg>