<svg xmlns="http://www.w3.org/2000/svg" viewBox="0 0 74 84"><defs><style>.cls-1,.cls-2{fill:none;}.cls-2{stroke:#fff;stroke-linecap:round;stroke-linejoin:round;stroke-width:0.75px;opacity:0.3;}.cls-3{opacity:0.6;}.cls-4{fill:#fff;}</style></defs><title>ul</title><g id="Слой_2" data-name="Слой 2"><g id="Слой_1-2" data-name="Слой 1"><rect class="cls-1" width="74" height="84"/><polyline class="cls-2" points="15.73 15.52 9.92 15.5 5.01 23.94 9.86 32.42 19.63 32.45 24.54 24 21.42 18.56"/><polyline class="cls-2" points="26.27 25.29 32.09 25.31 37 16.86 32.14 8.39 22.38 8.36 17.47 16.8 20.59 22.25"/><g class="cls-3"><path class="cls-4" d="M17,21.08v3.7a2.19,2.19,0,0,1-.27,1.11,1.81,1.81,0,0,1-.79.73,2.73,2.73,0,0,1-1.23.26,2.3,2.3,0,0,1-1.65-.56,2,2,0,0,1-.59-1.55V21.08h.94v3.61a1.44,1.44,0,0,0,.33,1,1.35,1.35,0,0,0,1,.34q1.32,0,1.32-1.39V21.08Z"/></g><g class="cls-3"><path class="cls-4" d="M25.56,19.69V14h.93v4.91h2.42v.8Z"/></g></g></g></svg>