<svg xmlns="http://www.w3.org/2000/svg" viewBox="0 0 80 80"><defs><style>.cls-1,.cls-4{opacity:0.6;}.cls-2{fill:#fff;}.cls-3,.cls-4{fill:none;}.cls-4{stroke:#fff;stroke-linecap:round;stroke-linejoin:round;stroke-width:0.75px;}</style></defs><title>uo</title><g id="Слой_2" data-name="Слой 2"><g id="Слой_1-2" data-name="Слой 1"><g class="cls-1"><path class="cls-2" d="M57.74,25.36a3.12,3.12,0,0,1-.7,2.17,2.93,2.93,0,0,1-4,0,3.15,3.15,0,0,1-.69-2.18,3.09,3.09,0,0,1,.7-2.17,2.57,2.57,0,0,1,2-.76,2.52,2.52,0,0,1,2,.77A3.12,3.12,0,0,1,57.74,25.36Zm-4.36,0a2.56,2.56,0,0,0,.43,1.6,1.73,1.73,0,0,0,2.52,0,2.57,2.57,0,0,0,.42-1.61,2.57,2.57,0,0,0-.42-1.59,1.48,1.48,0,0,0-1.25-.54,1.52,1.52,0,0,0-1.27.54A2.54,2.54,0,0,0,53.38,25.36Z"/></g><rect class="cls-3" width="80" height="80"/><polyline class="cls-4" points="15.42 18.7 11.57 25.36 18.03 36.55 30.95 36.55 37.4 25.36 30.95 14.18 22.65 14.18"/><line class="cls-4" x1="44.77" y1="25.36" x2="37.27" y2="25.36"/><polygon class="cls-4" points="58.9 18.73 51.24 18.73 47.4 25.36 51.24 32 58.9 32 62.73 25.36 58.9 18.73"/><g class="cls-1"><path class="cls-2" d="M28.17,20.66v6a3.57,3.57,0,0,1-.44,1.8,2.94,2.94,0,0,1-1.28,1.19,4.43,4.43,0,0,1-2,.42,3.73,3.73,0,0,1-2.68-.91,3.31,3.31,0,0,1-1-2.51v-6h1.52v5.87a2.35,2.35,0,0,0,.53,1.69,2.2,2.2,0,0,0,1.64.55q2.15,0,2.15-2.25V20.66Z"/></g></g></g></svg>