<svg xmlns="http://www.w3.org/2000/svg" viewBox="0 0 41.83 30.38"><defs><style>.cls-1,.cls-2{fill:#3fcaef;}.cls-1{opacity:0.5;}</style></defs><title>u</title><g id="Layer_2" data-name="Layer 2"><g id="Layer_2-2" data-name="Layer 2"><rect class="cls-1" x="31.6" y="26.62" width="9.06" height="3.76" rx="1.69"/><rect class="cls-1" x="0.96" y="26.62" width="9.06" height="3.76" rx="1.69"/><rect class="cls-1" x="31.6" width="9.06" height="3.76" rx="1.69"/><rect class="cls-1" x="0.96" width="9.06" height="3.76" rx="1.69"/><path class="cls-2" d="M40,6.18h-7.7A1.88,1.88,0,0,1,30.37,4.3,2.86,2.86,0,0,0,27.5,1.43H13.31a1.84,1.84,0,0,0-1.85,1.84v1A1.88,1.88,0,0,1,9.58,6.18H1.88A1.88,1.88,0,0,1,0,4.3V26.44a1.88,1.88,0,0,1,1.88-1.88h7.7a1.88,1.88,0,0,1,1.88,1.88,2.86,2.86,0,0,0,2.87,2.87H27.5a2.86,2.86,0,0,0,2.87-2.87,1.88,1.88,0,0,1,1.88-1.88H40a1.88,1.88,0,0,1,1.88,1.88V4.3A1.88,1.88,0,0,1,40,6.18Zm-14,10.9a4.59,4.59,0,0,1-.6,2.37A3.92,3.92,0,0,1,23.57,21a6.25,6.25,0,0,1-2.7.55,5.21,5.21,0,0,1-3.66-1.21,4.29,4.29,0,0,1-1.3-3.3V9.18h2.58v7.47a3.15,3.15,0,0,0,.56,2.08,2.41,2.41,0,0,0,1.88.66,2.31,2.31,0,0,0,1.84-.67,3.15,3.15,0,0,0,.57-2.08V9.18h2.58Z"/></g></g></svg>