<svg xmlns="http://www.w3.org/2000/svg" viewBox="0 0 80 80"><defs><style>.cls-1,.cls-3,.cls-5{fill:none;}.cls-2{fill:#703232;}.cls-2,.cls-3,.cls-4{opacity:0.4;}.cls-3{stroke:#703232;}.cls-3,.cls-5{stroke-miterlimit:10;}.cls-4{fill:#532423;}.cls-5{stroke:#f3817f;}.cls-6{fill:#f3817f;}</style>
<filter id="shadow-normal" x="0%" y="0%" width="100%" height="100%">
  <feDropShadow dx="0" dy="0" stdDeviation="5" flood-color="rgba(243, 129, 127, 0.25)" flood-opacity="1" />
</filter>
</defs><title>catalyst</title><g class="shadow" style="filter: url(#shadow-normal);"><rect class="cls-1" width="80" height="80"/><rect class="cls-2" x="11.99" y="61.05" width="2.85" height="2.85" transform="translate(48.11 8.82) rotate(45)"/><rect class="cls-2" x="63.35" y="37.49" width="2.85" height="2.85"/><path class="cls-3" d="M17.87,25.93a2.26,2.26,0,1,1,3-1.12"/><polyline class="cls-3" points="54.76 63.84 54.76 65.69 60.24 65.69 60.24 63.84 57.11 63.84"/><path class="cls-4" d="M60.09,48.22l-14.57,12S30,61.69,27.6,61.69a54.73,54.73,0,0,1-8.18-1.44L14.36,38.6,37.23,25Z"/><path class="cls-4" d="M63.32,48.22l-14.57,12a56,56,0,0,1-8.3,1.44c-2.32,0-17.81-1.44-17.81-1.44L17.59,38.6,40.45,25Z"/><path class="cls-4" d="M52.56,48.22,44,60.25s-3.49,1.44-4.88,1.44-14.44-1.44-14.44-1.44l1-12L39.11,25Z"/><path class="cls-5" d="M46.18,63s-4.86,1.75-6.81,1.75S23,63,23,63L20.62,33.79,39.38,17.93,58.13,43.41l-4.86,7.95"/><path class="cls-6" d="M45.46,52h-3.8L38,46.1,34.35,52H30.78L36,43.94l-4.88-7.61h3.67L38.17,42l3.32-5.65h3.59l-4.93,7.79Z"/></g></svg>