<svg xmlns="http://www.w3.org/2000/svg" viewBox="0 0 80 80"><defs><style>.cls-1,.cls-4,.cls-5{opacity:0.6;}.cls-2{fill:#fff;}.cls-3,.cls-4,.cls-5{fill:none;}.cls-4,.cls-5{stroke:#fff;stroke-linecap:round;stroke-linejoin:round;}.cls-4{stroke-width:0.75px;}</style></defs><title>xgho2</title><g id="Слой_2" data-name="Слой 2"><g id="Слой_1-2" data-name="Слой 1"><g class="cls-1"><path class="cls-2" d="M16.34,16.76a3.12,3.12,0,0,1-.7,2.17,2.52,2.52,0,0,1-2,.77,2.54,2.54,0,0,1-2-.77A3.15,3.15,0,0,1,11,16.75a3.09,3.09,0,0,1,.7-2.17,2.57,2.57,0,0,1,2-.76,2.52,2.52,0,0,1,2,.77A3.12,3.12,0,0,1,16.34,16.76Zm-4.36,0a2.56,2.56,0,0,0,.43,1.6,1.5,1.5,0,0,0,1.26.54,1.5,1.5,0,0,0,1.26-.54,2.57,2.57,0,0,0,.42-1.61,2.57,2.57,0,0,0-.42-1.59,1.48,1.48,0,0,0-1.25-.54,1.52,1.52,0,0,0-1.27.54A2.54,2.54,0,0,0,12,16.76Z"/></g><rect class="cls-3" width="80" height="80"/><g class="cls-1"><path class="cls-2" d="M44.15,16.28h4.2V22a12.2,12.2,0,0,1-2,.48,14,14,0,0,1-2.05.14,5.15,5.15,0,0,1-4-1.54,6.18,6.18,0,0,1-1.41-4.33,5.77,5.77,0,0,1,1.59-4.32,6,6,0,0,1,4.37-1.56,8.51,8.51,0,0,1,3.39.69l-.66,1.55a6.6,6.6,0,0,0-2.78-.64,3.74,3.74,0,0,0-2.89,1.15,4.45,4.45,0,0,0-1.06,3.14,4.69,4.69,0,0,0,1,3.18,3.47,3.47,0,0,0,2.75,1.09,9,9,0,0,0,1.94-.23V17.88H44.15Z"/></g><line class="cls-4" x1="30.72" y1="16.76" x2="23.22" y2="16.76"/><polyline class="cls-4" points="37.13 43.28 43.38 39.67 43.38 39.59 43.38 28.09"/><polyline class="cls-5" points="62.39 21.46 62.39 18.52 58.39 18.52"/><polyline class="cls-5" points="62.39 12.07 62.39 15 58.39 15"/><polyline class="cls-4" points="34.56 10.1 30.72 16.76 37.17 27.95 50.09 27.95 56.55 16.76 50.09 5.58 41.79 5.58"/><polygon class="cls-4" points="17.49 10.13 9.83 10.13 6 16.76 9.83 23.4 17.49 23.4 21.32 16.76 17.49 10.13"/><g class="cls-1"><path class="cls-2" d="M25.19,46.61a5.07,5.07,0,0,1-1.13,3.52,4.1,4.1,0,0,1-3.21,1.26,4.13,4.13,0,0,1-3.23-1.25,5.11,5.11,0,0,1-1.13-3.55,5,5,0,0,1,1.13-3.53,4.18,4.18,0,0,1,3.23-1.23,4.09,4.09,0,0,1,3.2,1.25A5.07,5.07,0,0,1,25.19,46.61Zm-7.08,0a4.16,4.16,0,0,0,.69,2.6,2.44,2.44,0,0,0,2.05.89,2.44,2.44,0,0,0,2-.88,4.16,4.16,0,0,0,.69-2.61A4.18,4.18,0,0,0,22.89,44a2.41,2.41,0,0,0-2-.88A2.46,2.46,0,0,0,18.8,44,4.12,4.12,0,0,0,18.1,46.61Z"/><path class="cls-2" d="M34.5,51.26H33V47.08H28.7v4.18H27.18V42H28.7v3.8H33V42H34.5Z"/></g><g class="cls-1"><path class="cls-2" d="M67.5,16.65,65,13.19h1.39l1.82,2.7,1.82-2.7h1.43l-2.44,3.44,2.6,3.7H70.28l-2-2.92-2,2.92H64.86Z"/></g></g></g></svg>