<svg xmlns="http://www.w3.org/2000/svg" viewBox="0 0 80 80"><defs><style>.cls-1,.cls-2,.cls-3{fill:none;}.cls-2,.cls-3{stroke:#fff;stroke-linecap:round;stroke-linejoin:round;}.cls-2,.cls-3,.cls-4{opacity:0.6;}.cls-3{stroke-width:0.75px;}.cls-5{fill:#fff;}</style></defs><title>xkh2o</title><g id="Слой_2" data-name="Слой 2"><g id="Слой_1-2" data-name="Слой 1"><rect class="cls-1" width="80" height="80"/><polyline class="cls-2" points="12.73 26.55 12.73 23.61 16.74 23.61"/><polyline class="cls-2" points="12.73 17.16 12.73 20.09 16.74 20.09"/><polyline class="cls-3" points="40.94 15.19 44.78 21.85 38.32 33.03 25.41 33.03 18.95 21.85 25.41 10.67 33.7 10.67"/><g class="cls-4"><path class="cls-5" d="M36.41,26.49H34.65l-2.91-4.2-.9.73v3.47H29.32V17.21h1.52v4.43q.62-.76,1.24-1.47l2.51-3h1.73q-2.43,2.86-3.49,4.07Z"/></g><polygon class="cls-3" points="21.1 41.21 13.44 41.21 9.61 47.85 13.44 54.49 21.1 54.49 24.93 47.85 21.1 41.21"/><g class="cls-4"><path class="cls-5" d="M19.52,50.71h-.94V48.13H16v2.57H15V45H16v2.34h2.63V45h.94Z"/></g><line class="cls-3" x1="21.84" y1="39.29" x2="25.46" y2="33.03"/><polyline class="cls-3" points="44.78 21.85 48.4 15.59 48.48 15.59 56.98 15.59"/><g class="cls-4"><path class="cls-5" d="M67.21,15.59a5.07,5.07,0,0,1-1.13,3.52,4.76,4.76,0,0,1-6.44,0,5.11,5.11,0,0,1-1.13-3.55A5,5,0,0,1,59.65,12a4.18,4.18,0,0,1,3.23-1.23,4.09,4.09,0,0,1,3.2,1.25A5.07,5.07,0,0,1,67.21,15.59Zm-7.08,0a4.16,4.16,0,0,0,.69,2.6,2.82,2.82,0,0,0,4.09,0,4.16,4.16,0,0,0,.69-2.61A4.18,4.18,0,0,0,64.92,13a2.41,2.41,0,0,0-2-.88,2.46,2.46,0,0,0-2.06.88A4.12,4.12,0,0,0,60.13,15.59Z"/><path class="cls-5" d="M76.52,20.24H75V16.06H70.72v4.18H69.2V11h1.52v3.8H75V11h1.52Z"/></g><g class="cls-4"><path class="cls-5" d="M10.27,25.42H8.8l-2-2.92-2,2.92H3.47l2.6-3.7L3.64,18.28H5.07L6.88,21l1.82-2.7h1.39L7.63,21.74Z"/></g></g></g></svg>