<svg xmlns="http://www.w3.org/2000/svg" viewBox="0 0 80 80"><defs><style>.cls-1,.cls-4,.cls-5{fill:none;}.cls-2,.cls-4,.cls-5{opacity:0.6;}.cls-3{fill:#fff;}.cls-4,.cls-5{stroke:#fff;stroke-linecap:round;stroke-linejoin:round;}.cls-4{stroke-width:0.75px;}</style></defs><title>xlh2o</title><g id="Слой_2" data-name="Слой 2"><g id="Слой_1-2" data-name="Слой 1"><rect class="cls-1" width="80" height="80"/><g class="cls-2"><path class="cls-3" d="M27.26,35.55V26.26h1.52v8h3.93v1.3Z"/></g><g class="cls-2"><path class="cls-3" d="M30.74,7.66l2.46,3.46H31.81L30,8.42l-1.82,2.7H26.75l2.44-3.44L26.59,4H28l2,2.92,2-2.92h1.48Z"/></g><polyline class="cls-4" points="20.92 24.25 17.07 30.91 23.53 42.09 36.44 42.09 42.9 30.91 36.44 19.72 28.15 19.72"/><polyline class="cls-5" points="34.68 12.83 31.75 12.83 31.75 16.84"/><polyline class="cls-5" points="25.29 12.83 28.23 12.83 28.23 16.84"/><polygon class="cls-4" points="19.31 49.62 11.65 49.62 7.82 56.26 11.65 62.9 19.31 62.9 23.14 56.26 19.31 49.62"/><g class="cls-2"><path class="cls-3" d="M17.73,59.11H16.8V56.54H14.16v2.57h-.93V53.4h.93v2.34H16.8V53.4h.94Z"/></g><line class="cls-4" x1="23.58" y1="42.09" x2="19.97" y2="48.35"/><g class="cls-2"><path class="cls-3" d="M62.87,13.46A5.07,5.07,0,0,1,61.74,17a4.76,4.76,0,0,1-6.44,0,5.11,5.11,0,0,1-1.13-3.55,5,5,0,0,1,1.13-3.53,4.18,4.18,0,0,1,3.23-1.23,4.09,4.09,0,0,1,3.2,1.25A5.07,5.07,0,0,1,62.87,13.46Zm-7.08,0a4.16,4.16,0,0,0,.69,2.6,2.82,2.82,0,0,0,4.09,0,4.16,4.16,0,0,0,.69-2.61,4.18,4.18,0,0,0-.68-2.59,2.41,2.41,0,0,0-2-.88,2.46,2.46,0,0,0-2.06.88A4.12,4.12,0,0,0,55.79,13.46Z"/><path class="cls-3" d="M72.18,18.11H70.66V13.93H66.38v4.18H64.86V8.83h1.52v3.8h4.28V8.83h1.52Z"/></g><polyline class="cls-4" points="36.35 19.72 39.96 13.46 40.04 13.46 51.54 13.46"/></g></g></svg>