<svg xmlns="http://www.w3.org/2000/svg" viewBox="0 0 80 80"><defs><style>.cls-1,.cls-4,.cls-5{fill:none;}.cls-2,.cls-4,.cls-5{opacity:0.6;}.cls-3{fill:#fff;}.cls-4,.cls-5{stroke:#fff;stroke-linecap:round;stroke-linejoin:round;}.cls-4{stroke-width:0.75px;}</style></defs><title>xuh2o</title><g id="Слой_2" data-name="Слой 2"><g id="Слой_1-2" data-name="Слой 1"><rect class="cls-1" width="80" height="80"/><g class="cls-2"><path class="cls-3" d="M33.17,61.36H31.69l-2-2.92-2,2.92H26.37l2.6-3.7-2.44-3.44H28l1.82,2.7,1.82-2.7H33l-2.46,3.46Z"/></g><polyline class="cls-4" points="20.7 40.79 16.85 34.13 23.31 22.95 36.22 22.95 42.68 34.13 36.22 45.31 27.93 45.31"/><polyline class="cls-5" points="34.46 52.51 31.53 52.51 31.53 48.51"/><polyline class="cls-5" points="25.07 52.51 28 52.51 28 48.51"/><polygon class="cls-4" points="64.58 10.05 56.92 10.05 53.09 16.69 56.92 23.32 64.58 23.32 68.41 16.69 64.58 10.05"/><g class="cls-2"><path class="cls-3" d="M63,19.54h-.94V17H59.43v2.57H58.5V13.83h.93v2.34h2.63V13.83H63Z"/></g><line class="cls-4" x1="23.36" y1="22.95" x2="19.75" y2="16.69"/><g class="cls-2"><path class="cls-3" d="M16.39,9.71a5.07,5.07,0,0,1-1.13,3.52A4.1,4.1,0,0,1,12,14.49a4.13,4.13,0,0,1-3.23-1.25A5.11,5.11,0,0,1,7.69,9.69,5,5,0,0,1,8.82,6.16a4.18,4.18,0,0,1,3.23-1.23,4.09,4.09,0,0,1,3.2,1.25A5.07,5.07,0,0,1,16.39,9.71Zm-7.08,0A4.16,4.16,0,0,0,10,12.3a2.44,2.44,0,0,0,2.05.89,2.44,2.44,0,0,0,2-.88,4.16,4.16,0,0,0,.69-2.61,4.18,4.18,0,0,0-.68-2.59,2.41,2.41,0,0,0-2-.88A2.46,2.46,0,0,0,10,7.12,4.12,4.12,0,0,0,9.3,9.71Z"/><path class="cls-3" d="M25.7,14.36H24.18V10.17H19.9v4.18H18.38V5.08H19.9v3.8h4.28V5.08H25.7Z"/></g><polyline class="cls-4" points="36.13 22.95 39.74 16.69 39.82 16.69 51.32 16.69"/><g class="cls-2"><path class="cls-3" d="M33.44,29.43v6a3.57,3.57,0,0,1-.44,1.8,2.94,2.94,0,0,1-1.28,1.19,4.43,4.43,0,0,1-2,.42A3.73,3.73,0,0,1,27,37.92a3.31,3.31,0,0,1-1-2.51v-6h1.52V35.3A2.35,2.35,0,0,0,28.14,37a2.2,2.2,0,0,0,1.64.55q2.15,0,2.15-2.25V29.43Z"/></g></g></g></svg>