<svg xmlns="http://www.w3.org/2000/svg" viewBox="0 0 80 80"><defs><style>.cls-1,.cls-2,.cls-3{fill:none;}.cls-2,.cls-3{stroke:#fff;stroke-linecap:round;stroke-linejoin:round;}.cls-2,.cls-3,.cls-4{opacity:0.6;}.cls-3{stroke-width:0.75px;}.cls-5{fill:#fff;}</style></defs><title>xzh2o</title><g id="Слой_2" data-name="Слой 2"><g id="Слой_1-2" data-name="Слой 1"><rect class="cls-1" width="80" height="80"/><polyline class="cls-2" points="17.7 31.09 17.7 28.16 21.7 28.16"/><polyline class="cls-2" points="17.7 21.7 17.7 24.63 21.7 24.63"/><polyline class="cls-3" points="27.76 19.73 23.91 26.39 30.37 37.58 43.28 37.58 49.74 26.39 43.28 15.21 34.99 15.21"/><polygon class="cls-3" points="61.82 5.31 54.16 5.31 50.33 11.95 54.16 18.58 61.82 18.58 65.65 11.95 61.82 5.31"/><g class="cls-4"><path class="cls-5" d="M60.24,14.8h-.94V12.23H56.67V14.8h-.93V9.09h.93v2.34h2.63V9.09h.94Z"/></g><line class="cls-3" x1="49.75" y1="26.29" x2="53.36" y2="20.04"/><polyline class="cls-3" points="28.97 47.45 37.47 47.45 37.55 47.45 40.7 42.01 43.26 37.58"/><g class="cls-4"><path class="cls-5" d="M18.69,47.45A5.07,5.07,0,0,1,17.56,51a4.1,4.1,0,0,1-3.21,1.26A4.13,4.13,0,0,1,11.12,51,5.11,5.11,0,0,1,10,47.44a5,5,0,0,1,1.13-3.53,4.18,4.18,0,0,1,3.23-1.23,4.09,4.09,0,0,1,3.2,1.25A5.07,5.07,0,0,1,18.69,47.45Zm-7.08,0A4.16,4.16,0,0,0,12.3,50a2.44,2.44,0,0,0,2.05.89,2.44,2.44,0,0,0,2-.88,4.16,4.16,0,0,0,.69-2.61,4.18,4.18,0,0,0-.68-2.59,2.41,2.41,0,0,0-2-.88,2.46,2.46,0,0,0-2.06.88A4.12,4.12,0,0,0,11.61,47.45Z"/><path class="cls-5" d="M28,52.1H26.48V47.92H22.2V52.1H20.68V42.82H22.2v3.8h4.28v-3.8H28Z"/></g><g class="cls-4"><path class="cls-5" d="M15.23,30H13.76l-2-2.92L9.81,30H8.44l2.6-3.7L8.6,22.82H10l1.82,2.7,1.82-2.7H15l-2.46,3.46Z"/></g><g class="cls-4"><path class="cls-5" d="M40.15,31H33.51V30l4.68-6.92H33.63v-1.3H40v1.07l-4.7,6.91h4.82Z"/></g></g></g></svg>