<svg xmlns="http://www.w3.org/2000/svg" viewBox="0 0 80 80"><defs><style>.cls-1,.cls-3,.cls-4{fill:none;}.cls-2{fill:#5b4c32;}.cls-2,.cls-3{opacity:0.4;}.cls-3{stroke:#5b4c32;}.cls-3,.cls-4{stroke-miterlimit:10;}.cls-4{stroke:#f7d492;}.cls-5{fill:#f7d492;}</style>
<filter id="shadow-normal" x="0%" y="0%" width="100%" height="100%">
  <feDropShadow dx="0" dy="0" stdDeviation="5" flood-color="rgba(247, 212, 146, 0.25)" flood-opacity="1" />
</filter>
</defs><title>zynthium</title><g class="shadow" style="filter: url(#shadow-normal);"><rect class="cls-1" width="80" height="80"/><rect class="cls-2" x="16.13" y="20.99" width="2.58" height="2.58" transform="translate(20.85 -5.8) rotate(45)"/><rect class="cls-2" x="58.86" y="59.33" width="2.58" height="2.58"/><path class="cls-3" d="M15.62,60.37a2.05,2.05,0,1,1-2.36,1.73"/><polyline class="cls-3" points="61.78 32.2 61.78 30.52 66.75 30.52 66.75 32.2 63.91 32.2"/><path class="cls-2" d="M23.22,47.91l1.59-16.63s8.83-10.63,10.31-12.11a48.41,48.41,0,0,1,6-4.22l16.71,22.3L43.54,65.18Z"/><path class="cls-2" d="M21.2,59.3l1.59-26a49.52,49.52,0,0,1,4.29-6.09c1.45-1.45,12-10.24,12-10.24L55.82,27.35,50,58.68l-15.7,5.45Z"/><path class="cls-2" d="M27.93,43.2,25.77,30.32a18.7,18.7,0,0,1,2.15-4c.86-.86,9.93-8.13,9.93-8.13l6.9,8.14,6.12,40L26.14,61.06Z"/><path class="cls-4" d="M22.7,30s1.95-4.14,3.16-5.35,11.31-6.57,11.31-6.57l17.2,27L46.61,62.42l-16.2-2.54L24,51.4l1.47-9.71"/><path class="cls-5" d="M42.67,49.28H32.06v-2l6.83-9.79H32.25V35H42.48V37l-6.82,9.8h7Z"/></g></svg>