<svg xmlns="http://www.w3.org/2000/svg" viewBox="0 0 80 80"><defs><style>.cls-1,.cls-2{fill:none;}.cls-2{stroke:#fff;stroke-linecap:round;stroke-linejoin:round;stroke-width:0.75px;}.cls-2,.cls-3{opacity:0.6;}.cls-4{fill:#fff;}</style></defs><title>zh</title><g id="Слой_2" data-name="Слой 2"><g id="Слой_1-2" data-name="Слой 1"><rect class="cls-1" width="80" height="80"/><polyline class="cls-2" points="34.75 35.43 38.59 28.77 32.14 17.58 19.22 17.58 12.77 28.77 19.22 39.95 27.52 39.95"/><line class="cls-2" x1="45.96" y1="28.77" x2="38.46" y2="28.77"/><polygon class="cls-2" points="60.09 22.13 52.43 22.13 48.59 28.77 52.43 35.41 60.09 35.41 63.92 28.77 60.09 22.13"/><g class="cls-3"><path class="cls-4" d="M58.51,31.62h-.94V29H54.94v2.57H54V25.91h.93v2.34h2.63V25.91h.94Z"/></g><g class="cls-3"><path class="cls-4" d="M29,33.41H22.36V32.35L27,25.43H22.49v-1.3h6.39v1.07l-4.7,6.91H29Z"/></g></g></g></svg>