<svg xmlns="http://www.w3.org/2000/svg" viewBox="0 0 80 80"><defs><style>.cls-1,.cls-2{fill:none;}.cls-2{stroke:#fff;stroke-linecap:round;stroke-linejoin:round;stroke-width:0.75px;}.cls-2,.cls-3{opacity:0.6;}.cls-4{fill:#fff;}</style></defs><title>zh2o</title><g id="Слой_2" data-name="Слой 2"><g id="Слой_1-2" data-name="Слой 1"><rect class="cls-1" width="80" height="80"/><polyline class="cls-2" points="9.23 44.64 5.39 37.98 11.84 26.79 24.76 26.79 31.21 37.98 24.76 49.16 16.46 49.16"/><polygon class="cls-2" points="53.91 48.78 46.25 48.78 42.42 55.42 46.25 62.06 53.91 62.06 57.74 55.42 53.91 48.78"/><g class="cls-3"><path class="cls-4" d="M52.33,58.28H51.4V55.7H48.76v2.57h-.93V52.57h.93V54.9H51.4V52.57h.94Z"/></g><line class="cls-2" x1="28.45" y1="20.53" x2="24.83" y2="26.79"/><polyline class="cls-2" points="24.67 49.16 28.29 55.42 28.37 55.42 39.87 55.42"/><g class="cls-3"><path class="cls-4" d="M37.14,13.53A5.07,5.07,0,0,1,36,17.06a4.1,4.1,0,0,1-3.21,1.26,4.13,4.13,0,0,1-3.23-1.25,5.11,5.11,0,0,1-1.13-3.55A5,5,0,0,1,29.58,10a4.18,4.18,0,0,1,3.23-1.23A4.09,4.09,0,0,1,36,10,5.07,5.07,0,0,1,37.14,13.53Zm-7.08,0a4.16,4.16,0,0,0,.69,2.6A2.44,2.44,0,0,0,32.8,17a2.44,2.44,0,0,0,2-.88,4.16,4.16,0,0,0,.69-2.61,4.18,4.18,0,0,0-.68-2.59,2.41,2.41,0,0,0-2-.88,2.46,2.46,0,0,0-2.06.88A4.12,4.12,0,0,0,30.06,13.53Z"/><path class="cls-4" d="M46.45,18.19H44.93V14H40.65v4.18H39.13V8.91h1.52v3.8h4.28V8.91h1.52Z"/></g><g class="cls-3"><path class="cls-4" d="M21.62,42.62H15V41.56l4.68-6.92H15.11v-1.3h6.39V34.4l-4.7,6.91h4.82Z"/></g></g></g></svg>