<svg xmlns="http://www.w3.org/2000/svg" viewBox="0 0 74 84"><defs><style>.cls-1,.cls-2{fill:none;}.cls-2{stroke:#fff;stroke-linecap:round;stroke-linejoin:round;stroke-width:0.75px;opacity:0.3;}.cls-3{opacity:0.6;}.cls-4{fill:#fff;}</style></defs><title>zk</title><g id="Слой_2" data-name="Слой 2"><g id="Слой_1-2" data-name="Слой 1"><rect class="cls-1" width="74" height="84"/><polyline class="cls-2" points="15.73 15.52 9.92 15.5 5.01 23.94 9.86 32.42 19.63 32.45 24.54 24 21.42 18.56"/><polyline class="cls-2" points="26.27 25.29 32.09 25.31 37 16.86 32.14 8.39 22.38 8.36 17.47 16.8 20.59 22.25"/><g class="cls-3"><path class="cls-4" d="M16.82,26.83H12.73v-.65l2.88-4.26h-2.8v-.8h3.93v.66L13.85,26h3Z"/></g><g class="cls-3"><path class="cls-4" d="M29.41,19.69H28.33L26.54,17.1l-.55.45v2.14h-.93V14H26V16.7q.38-.47.76-.9L28.29,14h1.06l-2.14,2.5Z"/></g></g></g></svg>