<svg xmlns="http://www.w3.org/2000/svg" viewBox="0 0 80 80"><defs><style>.cls-1,.cls-4{opacity:0.6;}.cls-2{fill:#fff;}.cls-3,.cls-4{fill:none;}.cls-4{stroke:#fff;stroke-linecap:round;stroke-linejoin:round;stroke-width:0.75px;}</style></defs><title>zo</title><g id="Слой_2" data-name="Слой 2"><g id="Слой_1-2" data-name="Слой 1"><g class="cls-1"><path class="cls-2" d="M58.93,28.77a3.12,3.12,0,0,1-.7,2.17,2.93,2.93,0,0,1-4,0,3.15,3.15,0,0,1-.69-2.18,3.09,3.09,0,0,1,.7-2.17,2.57,2.57,0,0,1,2-.76,2.52,2.52,0,0,1,2,.77A3.12,3.12,0,0,1,58.93,28.77Zm-4.36,0a2.56,2.56,0,0,0,.43,1.6,1.73,1.73,0,0,0,2.52,0,2.57,2.57,0,0,0,.42-1.61,2.57,2.57,0,0,0-.42-1.59,1.48,1.48,0,0,0-1.25-.54,1.52,1.52,0,0,0-1.27.54A2.54,2.54,0,0,0,54.57,28.77Z"/></g><rect class="cls-3" width="80" height="80"/><polyline class="cls-4" points="34.75 35.43 38.59 28.77 32.14 17.58 19.22 17.58 12.77 28.77 19.22 39.95 27.52 39.95"/><line class="cls-4" x1="45.96" y1="28.77" x2="38.46" y2="28.77"/><polygon class="cls-4" points="60.09 22.13 52.43 22.13 48.59 28.77 52.43 35.41 60.09 35.41 63.92 28.77 60.09 22.13"/><g class="cls-1"><path class="cls-2" d="M29,33.41H22.36V32.35L27,25.43H22.49v-1.3h6.39v1.07l-4.7,6.91H29Z"/></g></g></g></svg>